<?xml version="1.0" encoding="utf-8"?>
<!-- Generator: Adobe Illustrator 28.1.0, SVG Export Plug-In . SVG Version: 6.00 Build 0)  -->
<svg version="1.1" id="Layer_1" xmlns="http://www.w3.org/2000/svg" xmlns:xlink="http://www.w3.org/1999/xlink" x="0px" y="0px"
	 viewBox="0 0 1915.4 175.7" style="enable-background:new 0 0 1915.4 175.7;" xml:space="preserve">
<style type="text/css">
	.st0{fill:#D4B89D;}
</style>
<path class="st0" d="M1920.4,633.1c-27.6,37-72.9,86.5-141.4,118.5c-217.9,101.7-374.3-112.9-698.1-118.5
	c-298.4-5.1-358.5,174-662.3,152.2C236.3,772.1,91.9,695.7-1.6,633.1c0-288,0-576,0-864c28,1.4,74.1,6.4,126.1,26.6
	c61,23.7,99.8,56.6,108.3,63.3c142.6,113.3,723.1,12.3,723.1,12.3c380.9-66.3,500.4-126.7,788.4-116.4
	c74.7,2.6,135.9,9.2,176.2,14.3C1920.4,57.1,1920.4,345.1,1920.4,633.1z"/>
</svg>
