<?xml version="1.0" encoding="utf-8"?>
<!-- Generator: Adobe Illustrator 28.1.0, SVG Export Plug-In . SVG Version: 6.00 Build 0)  -->
<svg version="1.1" xmlns="http://www.w3.org/2000/svg" xmlns:xlink="http://www.w3.org/1999/xlink" x="0px" y="0px"
	 viewBox="0 0 50 50" style="enable-background:new 0 0 50 50;" xml:space="preserve">
<style type="text/css">
	.st0{fill:none;stroke:#605643;stroke-width:0.1615;stroke-linecap:round;stroke-linejoin:round;stroke-miterlimit:10;}
	.st1{fill:none;stroke:#605643;stroke-width:0.1615;stroke-linecap:round;stroke-miterlimit:10;}
</style>
<g id="Layer_437">
</g>
<g id="Layer_436">
</g>
<g id="Layer_435">
</g>
<g id="Layer_434">
</g>
<g id="Layer_433">
</g>
<g id="Layer_432">
</g>
<g id="Layer_431">
</g>
<g id="Layer_430">
</g>
<g id="Layer_429">
</g>
<g id="Layer_428">
</g>
<g id="Layer_427">
</g>
<g id="Layer_426">
</g>
<g id="Layer_425">
</g>
<g id="Layer_424">
</g>
<g id="Layer_423">
</g>
<g id="Layer_422">
</g>
<g id="Layer_421">
</g>
<g id="Layer_420">
</g>
<g id="Layer_419">
</g>
<g id="Layer_418">
</g>
<g id="Layer_417">
</g>
<g id="Layer_416">
</g>
<g id="Layer_415">
</g>
<g id="Layer_414">
</g>
<g id="Layer_413">
</g>
<g id="Layer_412">
</g>
<g id="Layer_411">
</g>
<g id="Layer_410">
</g>
<g id="Layer_409">
</g>
<g id="Layer_408">
</g>
<g id="Layer_407">
</g>
<g id="Layer_406">
</g>
<g id="Layer_405">
</g>
<g id="Layer_404">
</g>
<g id="Layer_403">
</g>
<g id="Layer_402">
</g>
<g id="Layer_401">
</g>
<g id="Layer_400">
</g>
<g id="Layer_399">
</g>
<g id="Layer_398">
</g>
<g id="Layer_397">
</g>
<g id="Layer_396">
</g>
<g id="Layer_395">
</g>
<g id="Layer_394">
</g>
<g id="Layer_393">
</g>
<g id="Layer_392">
</g>
<g id="Layer_391">
</g>
<g id="Layer_390">
</g>
<g id="Layer_389">
</g>
<g id="Layer_388">
</g>
<g id="Layer_387">
</g>
<g id="Layer_386">
</g>
<g id="Layer_385">
</g>
<g id="Layer_384">
</g>
<g id="Layer_383">
</g>
<g id="Layer_382">
</g>
<g id="Layer_381">
</g>
<g id="Layer_380">
</g>
<g id="Layer_379">
</g>
<g id="Layer_378">
</g>
<g id="Layer_377">
</g>
<g id="Layer_376">
</g>
<g id="Layer_375">
</g>
<g id="Layer_374">
</g>
<g id="Layer_373">
</g>
<g id="Layer_372">
</g>
<g id="Layer_371">
</g>
<g id="Layer_370">
</g>
<g id="Layer_369">
</g>
<g id="Layer_368">
</g>
<g id="Layer_367">
</g>
<g id="Layer_366">
</g>
<g id="Layer_365">
</g>
<g id="Layer_364">
</g>
<g id="Layer_363">
</g>
<g id="Layer_362">
</g>
<g id="Layer_361">
</g>
<g id="Layer_360">
</g>
<g id="Layer_359">
</g>
<g id="Layer_358">
</g>
<g id="Layer_357">
</g>
<g id="Layer_356">
</g>
<g id="Layer_355">
</g>
<g id="Layer_354">
</g>
<g id="Layer_353">
</g>
<g id="Layer_352">
</g>
<g id="Layer_351">
</g>
<g id="Layer_350">
</g>
<g id="Layer_349">
</g>
<g id="Layer_348">
</g>
<g id="Layer_347">
</g>
<g id="Layer_346">
</g>
<g id="Layer_345">
</g>
<g id="Layer_344">
</g>
<g id="Layer_343">
</g>
<g id="Layer_342">
</g>
<g id="Layer_341">
</g>
<g id="Layer_340">
</g>
<g id="Layer_339">
</g>
<g id="Layer_338">
</g>
<g id="Layer_337">
</g>
<g id="Layer_336">
</g>
<g id="Layer_335">
</g>
<g id="Layer_334">
</g>
<g id="Layer_333">
</g>
<g id="Layer_332">
</g>
<g id="Layer_331">
</g>
<g id="Layer_330">
</g>
<g id="Layer_329">
</g>
<g id="Layer_328">
</g>
<g id="Layer_327">
</g>
<g id="Layer_326">
</g>
<g id="Layer_325">
</g>
<g id="Layer_324">
</g>
<g id="Layer_323">
</g>
<g id="Layer_322">
</g>
<g id="Layer_321">
</g>
<g id="Layer_320">
</g>
<g id="Layer_319">
</g>
<g id="Layer_318">
</g>
<g id="Layer_317">
</g>
<g id="Layer_316">
</g>
<g id="Layer_315">
</g>
<g id="Layer_314">
</g>
<g id="Layer_313">
</g>
<g id="Layer_312">
</g>
<g id="Layer_311">
</g>
<g id="Layer_310">
</g>
<g id="Layer_309">
</g>
<g id="Layer_308">
</g>
<g id="Layer_307">
</g>
<g id="Layer_306">
</g>
<g id="Layer_305">
</g>
<g id="Layer_304">
</g>
<g id="Layer_303">
</g>
<g id="Layer_302">
</g>
<g id="Layer_301">
</g>
<g id="Layer_300">
</g>
<g id="Layer_299">
</g>
<g id="Layer_298">
</g>
<g id="Layer_297">
</g>
<g id="Layer_296">
</g>
<g id="Layer_295">
</g>
<g id="Layer_294">
</g>
<g id="Layer_293">
</g>
<g id="Layer_292">
</g>
<g id="Layer_291">
</g>
<g id="Layer_290">
</g>
<g id="Layer_289">
</g>
<g id="Layer_288">
</g>
<g id="Layer_287">
</g>
<g id="Layer_286">
</g>
<g id="Layer_285">
</g>
<g id="Layer_284">
</g>
<g id="Layer_283">
</g>
<g id="Layer_282">
</g>
<g id="Layer_281">
</g>
<g id="Layer_280">
</g>
<g id="Layer_279">
</g>
<g id="Layer_278">
</g>
<g id="Layer_277">
</g>
<g id="Layer_276">
</g>
<g id="Layer_275">
</g>
<g id="Layer_274">
</g>
<g id="Layer_273">
</g>
<g id="Layer_272">
</g>
<g id="Layer_271">
</g>
<g id="Layer_270">
</g>
<g id="Layer_269">
</g>
<g id="Layer_268">
</g>
<g id="Layer_267">
</g>
<g id="Layer_266">
</g>
<g id="Layer_265">
</g>
<g id="Layer_264">
</g>
<g id="Layer_263">
</g>
<g id="Layer_262">
</g>
<g id="Layer_261">
</g>
<g id="Layer_260">
</g>
<g id="Layer_259">
</g>
<g id="Layer_258">
</g>
<g id="Layer_257">
</g>
<g id="Layer_256">
</g>
<g id="Layer_255">
</g>
<g id="Layer_254">
</g>
<g id="Layer_253">
</g>
<g id="Layer_252">
</g>
<g id="Layer_251">
</g>
<g id="Layer_250">
</g>
<g id="Layer_249">
</g>
<g id="Layer_248">
</g>
<g id="Layer_247">
</g>
<g id="Layer_246">
</g>
<g id="Layer_245">
</g>
<g id="Layer_244">
</g>
<g id="Layer_243">
</g>
<g id="Layer_242">
</g>
<g id="Layer_241">
</g>
<g id="Layer_240">
</g>
<g id="Layer_239">
</g>
<g id="Layer_238">
</g>
<g id="Layer_237">
</g>
<g id="Layer_236">
</g>
<g id="Layer_235">
</g>
<g id="Layer_234">
</g>
<g id="Layer_233">
</g>
<g id="Layer_232">
</g>
<g id="Layer_231">
</g>
<g id="Layer_230">
</g>
<g id="Layer_229">
</g>
<g id="Layer_228">
</g>
<g id="Layer_227">
</g>
<g id="Layer_226">
</g>
<g id="Layer_225">
</g>
<g id="Layer_224">
</g>
<g id="Layer_223">
</g>
<g id="Layer_222">
</g>
<g id="Layer_221">
</g>
<g id="Layer_220">
</g>
<g id="Layer_219">
</g>
<g id="Layer_218">
</g>
<g id="Layer_217">
</g>
<g id="Layer_216">
</g>
<g id="Layer_215">
</g>
<g id="Layer_214">
</g>
<g id="Layer_213">
</g>
<g id="Layer_212">
</g>
<g id="Layer_211">
</g>
<g id="Layer_210">
</g>
<g id="Layer_209">
</g>
<g id="Layer_208">
</g>
<g id="Layer_207">
</g>
<g id="Layer_206">
</g>
<g id="Layer_205">
</g>
<g id="Layer_204">
</g>
<g id="Layer_203">
</g>
<g id="Layer_202">
</g>
<g id="Layer_201">
</g>
<g id="Layer_200">
</g>
<g id="Layer_199">
</g>
<g id="Layer_198">
</g>
<g id="Layer_197">
</g>
<g id="Layer_196">
</g>
<g id="Layer_195">
</g>
<g id="Layer_194">
</g>
<g id="Layer_193">
</g>
<g id="Layer_192">
</g>
<g id="Layer_191">
</g>
<g id="Layer_190">
</g>
<g id="Layer_189">
</g>
<g id="Layer_188">
</g>
<g id="Layer_187">
</g>
<g id="Layer_186">
</g>
<g id="Layer_185">
</g>
<g id="Layer_184">
</g>
<g id="Layer_183">
</g>
<g id="Layer_182">
</g>
<g id="Layer_181">
</g>
<g id="Layer_180">
</g>
<g id="Layer_179">
</g>
<g id="Layer_178">
</g>
<g id="Layer_177">
</g>
<g id="Layer_176">
</g>
<g id="Layer_175">
</g>
<g id="Layer_174">
</g>
<g id="Layer_173">
</g>
<g id="Layer_172">
</g>
<g id="Layer_171">
</g>
<g id="Layer_170">
</g>
<g id="Layer_169">
</g>
<g id="Layer_168">
</g>
<g id="Layer_167">
</g>
<g id="Layer_166">
</g>
<g id="Layer_165">
</g>
<g id="Layer_164">
</g>
<g id="Layer_163">
</g>
<g id="Layer_162">
</g>
<g id="Layer_161">
</g>
<g id="Layer_160">
</g>
<g id="Layer_159">
</g>
<g id="Layer_158">
</g>
<g id="Layer_157">
</g>
<g id="Layer_156">
</g>
<g id="Layer_155">
</g>
<g id="Layer_154">
</g>
<g id="Layer_153">
</g>
<g id="Layer_152">
</g>
<g id="Layer_151">
</g>
<g id="Layer_150">
</g>
<g id="Layer_149">
</g>
<g id="Layer_148">
</g>
<g id="Layer_147">
</g>
<g id="Layer_146">
</g>
<g id="Layer_145">
</g>
<g id="Layer_144">
</g>
<g id="Layer_143">
</g>
<g id="Layer_142">
</g>
<g id="Layer_141">
</g>
<g id="Layer_140">
</g>
<g id="Layer_139">
</g>
<g id="Layer_138">
</g>
<g id="Layer_137">
</g>
<g id="Layer_136">
</g>
<g id="Layer_135">
</g>
<g id="Layer_134">
</g>
<g id="Layer_133">
</g>
<g id="Layer_132">
</g>
<g id="Layer_131">
</g>
<g id="Layer_130">
</g>
<g id="Layer_129">
</g>
<g id="Layer_128">
</g>
<g id="Layer_127">
</g>
<g id="Layer_126">
</g>
<g id="Layer_125">
</g>
<g id="Layer_124">
</g>
<g id="Layer_123">
</g>
<g id="Layer_122">
</g>
<g id="Layer_121">
</g>
<g id="Layer_120">
</g>
<g id="Layer_119">
</g>
<g id="Layer_118">
</g>
<g id="Layer_117">
</g>
<g id="Layer_116">
</g>
<g id="Layer_115">
</g>
<g id="Layer_114">
</g>
<g id="Layer_113">
</g>
<g id="Layer_112">
</g>
<g id="Layer_111">
</g>
<g id="Layer_110">
</g>
<g id="Layer_109">
</g>
<g id="Layer_108">
</g>
<g id="Layer_107">
</g>
<g id="Layer_106">
</g>
<g id="Layer_105">
</g>
<g id="Layer_104">
</g>
<g id="Layer_103">
</g>
<g id="Layer_102">
</g>
<g id="Layer_101">
</g>
<g id="Layer_100">
</g>
<g id="Layer_99">
</g>
<g id="Layer_98">
</g>
<g id="Layer_97">
</g>
<g id="Layer_96">
</g>
<g id="Layer_95">
</g>
<g id="Layer_94">
</g>
<g id="Layer_93">
</g>
<g id="Layer_92">
</g>
<g id="Layer_91">
</g>
<g id="Layer_90">
</g>
<g id="Layer_89">
</g>
<g id="Layer_88">
</g>
<g id="Layer_87">
</g>
<g id="Layer_86">
</g>
<g id="Layer_85">
</g>
<g id="Layer_84">
</g>
<g id="Layer_83">
</g>
<g id="Layer_82">
</g>
<g id="Layer_81">
</g>
<g id="Layer_80">
</g>
<g id="Layer_79">
</g>
<g id="Layer_78">
</g>
<g id="Layer_77">
</g>
<g id="Layer_76">
</g>
<g id="Layer_75">
</g>
<g id="Layer_74">
</g>
<g id="Layer_73">
</g>
<g id="Layer_72">
</g>
<g id="Layer_71">
</g>
<g id="Layer_70">
</g>
<g id="Layer_69">
</g>
<g id="Layer_68">
</g>
<g id="Layer_67">
</g>
<g id="Layer_66">
</g>
<g id="Layer_65">
</g>
<g id="Layer_64">
</g>
<g id="Layer_63">
</g>
<g id="Layer_62">
</g>
<g id="Layer_61">
</g>
<g id="Layer_60">
</g>
<g id="Layer_59">
</g>
<g id="Layer_58">
</g>
<g id="Layer_57">
</g>
<g id="Layer_56">
</g>
<g id="Layer_55">
</g>
<g id="Layer_54">
</g>
<g id="Layer_53">
</g>
<g id="Layer_52">
</g>
<g id="Layer_51">
</g>
<g id="Layer_50">
</g>
<g id="Layer_49">
</g>
<g id="Layer_48">
</g>
<g id="Layer_47">
</g>
<g id="Layer_46">
</g>
<g id="Layer_45">
</g>
<g id="Layer_44">
</g>
<g id="Layer_43">
</g>
<g id="Layer_42">
</g>
<g id="Layer_41">
</g>
<g id="Layer_40">
</g>
<g id="Layer_39">
</g>
<g id="Layer_38">
</g>
<g id="Layer_37">
</g>
<g id="Layer_36">
</g>
<g id="Layer_35">
</g>
<g id="Layer_34">
</g>
<g id="Layer_33">
</g>
<g id="Layer_32">
</g>
<g id="Layer_31">
</g>
<g id="Layer_30">
</g>
<g id="Layer_29">
</g>
<g id="Layer_28">
</g>
<g id="Layer_27">
</g>
<g id="Layer_26">
</g>
<g id="Layer_25">
</g>
<g id="Layer_24">
</g>
<g id="Layer_23">
</g>
<g id="Layer_22">
</g>
<g id="Layer_21">
</g>
<g id="Layer_20">
</g>
<g id="Layer_19">
</g>
<g id="Layer_18">
</g>
<g id="Layer_17">
</g>
<g id="Layer_16">
</g>
<g id="Layer_15">
</g>
<g id="Layer_14">
</g>
<g id="Layer_13">
</g>
<g id="Layer_12">
</g>
<g id="Layer_11">
</g>
<g id="Layer_10">
</g>
<g id="Layer_9">
</g>
<g id="Layer_8">
</g>
<g id="Layer_7">
</g>
<g id="Layer_6">
</g>
<g id="Layer_5">
</g>
<g id="Layer_4">
</g>
<g id="Layer_3">
</g>
<g id="Layer_2">
	<g>
		<path class="st0" d="M25.66,33.59c0.06,0.2-0.03,0.41,0.05,0.61"/>
		<path class="st0" d="M47.71,31.33c-0.15,0.37-0.14,0.77-0.1,1.15c0.12,1.31-0.59,2.17-1.55,2.91c-0.32,0.24-0.64,0.48-0.93,0.76
			c-0.48,0.44-0.82,0.4-1.19-0.14c-0.07-0.1-0.08-0.23-0.24-0.31c-0.15-0.07-0.2-0.4-0.44-0.33c-0.24,0.07-0.36,0.32-0.46,0.53
			c-0.26,0.53-0.24,0.52-0.83,0.47c-0.41-0.04-0.85-0.14-1.19,0.24c-0.14,0.16-0.32,0.07-0.46,0c-0.34-0.18-0.69-0.35-1.04-0.5
			c-0.44-0.19-0.72-0.57-1-0.93c-0.19-0.23-0.39-0.41-0.68-0.5c-0.64-0.21-1.13,0.12-1.61,0.44c-0.65,0.42-1.13,1.05-1.72,1.55
			c-0.38,0.32-0.78,0.46-1.26,0.46c-0.41,0-0.82,0.02-1.22,0.11c-0.06,0.01-0.12,0.03-0.18,0.03c-1.35-0.15-2.62,0.12-3.84,0.68
			c-0.65,0.3-1.31,0.56-2.04,0.54"/>
		<path class="st0" d="M16.25,36.24c-0.3-0.62-0.86-0.91-1.43-1.19c-0.18-0.09-0.36-0.19-0.54-0.29c-0.05-0.03-0.14-0.05-0.14-0.07
			c0-0.39-0.34-0.42-0.58-0.53c-0.31-0.14-0.64-0.13-0.97-0.08c-0.37,0.06-0.68,0.25-0.93,0.51c-0.44,0.45-0.95,0.65-1.58,0.65
			c-0.59,0-1.16,0.21-1.72,0.39c-0.41,0.13-0.81,0.03-1.22-0.04C6.9,35.56,6.82,35.37,6.7,35.2c-0.4-0.59-0.59-0.59-1.18-0.03
			c-0.23,0.22-0.44,0.45-0.75,0.58C4.14,36,3.62,35.74,3.12,35.41c-0.26-0.17-0.5-0.38-0.76-0.57"/>
		<path class="st0" d="M18,6.15c0.27-0.02,0.55,0.02,0.83-0.03c0.17-0.03,0.33,0.07,0.46,0.17c0.34,0.27,0.71,0.49,1.15,0.58
			c0.3,0.06,0.46,0.34,0.65,0.56c0.42,0.47,0.81,0.95,1.04,1.54c0.03,0.09,0.07,0.2,0.14,0.25c0.45,0.33,0.45,0.83,0.53,1.3
			c0.09,0.52,0.36,0.97,0.58,1.43c0.25,0.54,0.56,1.06,0.74,1.62c0.19,0.59,0.49,1.17,0.45,1.82c-0.01,0.13,0.01,0.28-0.04,0.39
			c-0.24,0.46-0.13,0.9-0.04,1.37c0.09,0.44-0.12,0.88-0.1,1.33c0.01,0.31-0.09,0.56-0.33,0.75"/>
		<path class="st0" d="M47.78,29.53c-0.7-0.06-1.27,0.21-1.76,0.68c-0.34,0.34-0.7,0.37-1.12,0.15c-0.27-0.14-0.56-0.15-0.82,0.06
			c-0.07,0.05-0.16,0.08-0.21,0.15c-0.53,0.73-1.32,0.79-2.12,0.91c-0.36,0.05-0.7-0.01-1.04-0.02c-0.32-0.01-0.67-0.02-0.93,0.2
			c-0.43,0.36-0.92,0.38-1.44,0.39c-0.58,0.01-1.14,0.06-1.65,0.39c-0.34,0.22-0.72,0.34-1.15,0.33c-0.65,0-1.3-0.08-1.94,0.14
			c-0.12,0.04-0.22,0.1-0.33,0.17c-0.81,0.47-1.7,0.77-2.61,0.97c-0.24,0.05-0.5-0.02-0.75-0.03c-0.53-0.02-0.99,0.17-1.36,0.54
			c-0.24,0.24-0.48,0.48-0.68,0.75c-0.52,0.69-1.23,1.03-2.05,1.18"/>
		<path class="st0" d="M26.26,18.72c-0.38,0.1-0.54,0.42-0.35,0.88c0.29,0.71,0.41,1.44,0.5,2.19c0.04,0.36-0.03,0.7-0.06,1.04
			c-0.04,0.5-0.02,0.99,0.09,1.47c0.07,0.31,0.24,0.56,0.53,0.72"/>
		<path class="st0" d="M48.42,22.72c-0.13,0.05-0.26,0.14-0.39,0.14c-0.75-0.01-1.17,0.43-1.31,1.09c-0.15,0.67-0.44,1.13-1.12,1.34
			c-0.28,0.09-0.54,0.29-0.79,0.46c-0.44,0.29-0.88,0.25-1.33,0.03"/>
		<path class="st0" d="M36.59,23.33c-0.15,0.05-0.28-0.06-0.39-0.12c-0.4-0.21-0.84-0.29-1.26-0.41c-0.38-0.11-0.64-0.36-0.77-0.66
			c-0.31-0.73-0.73-1.38-1.19-1.96c-1.6,0.96-3.25,1.82-5.14,2.11"/>
		<path class="st0" d="M41.72,27.92c-0.01-0.04-0.02-0.1-0.04-0.1c-0.75-0.05-1.5-0.36-2.23,0.13c-0.25,0.17-0.56,0.18-0.86-0.02
			c-0.11-0.07-0.28-0.1-0.38-0.17c-0.42-0.26-0.76-0.13-1.08,0.16c-0.28,0.25-0.54,0.54-0.83,0.78c-0.2,0.17-0.44,0.28-0.71,0.29
			c-0.37,0.02-0.73,0.09-1.11,0.08c-0.67-0.03-1.18,0.37-1.69,0.74c-0.73,0.55-1.55,0.93-2.47,0.85c-0.97-0.08-1.81,0.2-2.62,0.66
			c-0.62,0.35-1.24,0.65-1.97,0.64"/>
		<path class="st0" d="M24.1,5.61c-0.19,1.2-0.09,2.41-0.07,3.62c0,0.02-0.01,0.05,0,0.07c0.26,0.45,0.16,0.96,0.16,1.44
			c0,0.32,0.1,0.57,0.24,0.82c0.12,0.22,0.26,0.42,0.39,0.63c0.31,0.53,0.07,1.05-0.61,1.49"/>
		<path class="st0" d="M16.18,22.32c-0.1-0.05-0.2-0.09-0.29,0.03c-0.02,0.03-0.07,0.06-0.11,0.07c-0.41,0.14-0.74,0.39-1.08,0.63
			c-0.53,0.36-1.12,0.62-1.67,0.95c-0.34,0.21-0.67,0.42-1.08,0.46c-0.15,0.02-0.32,0.03-0.43,0.11c-0.39,0.29-0.8,0.19-1.23,0.15
			c-0.58-0.06-1.17-0.06-1.76-0.08c-0.12,0-0.24,0.04-0.36,0.07"/>
		<path class="st0" d="M16.57,10.81c0.26,0.12,0.53,0.19,0.83,0.11c0.49-0.13,0.9,0.03,1.21,0.4c0.4,0.47,0.87,0.81,1.44,1.04
			c0.4,0.16,0.82,0.26,1.23,0.4c0.39,0.14,0.53,0.41,0.71,0.7c0.25,0.41,0.29,0.91,0.57,1.29c0.24,0.33,0.3,0.71,0.33,1.11
			c0.03,0.46,0.15,0.91,0.26,1.37c0.19,0.75,0.47,1.45,0.86,2.12c0.15,0.26,0.17,0.61,0.19,0.92c0.04,0.86,0.06,1.72,0.14,2.58
			c0.02,0.18-0.11,0.38-0.17,0.57"/>
		<path class="st0" d="M43.19,26.27c0.6,0.1,1.18,0.29,1.76,0.49c0.27,0.09,0.58,0.09,0.86-0.06c0.48-0.25,1-0.25,1.51-0.2
			c0.24,0.02,0.46,0.01,0.68-0.05"/>
		<path class="st0" d="M33.93,22.86c-0.37-0.04-0.75-0.03-1.11-0.15c-0.27-0.09-0.43,0.01-0.54,0.25c-0.12,0.27-0.24,0.54-0.4,0.79
			c-0.28,0.44-0.66,0.52-1.11,0.25c-0.2-0.12-0.38-0.27-0.58-0.39c-0.15-0.09-0.31-0.13-0.43,0.07c-0.13,0.22-0.35,0.39-0.43,0.65"
			/>
		<path class="st0" d="M28.12,12.46c0.11,0.41,0.02,0.73-0.36,0.97c-0.5,0.32-0.78,0.78-0.76,1.39c0.01,0.3,0.14,0.57,0.29,0.82
			c0.25,0.46,0.29,0.87-0.18,1.22"/>
		<path class="st0" d="M30.78,25.55c-0.48,0.36-0.78,0.82-0.79,1.43c0,0.13-0.06,0.23-0.15,0.32c-0.54,0.56-1.21,0.97-1.83,1.44
			c-0.22,0.17-0.48,0.31-0.68,0.51c-0.43,0.43-0.94,0.43-1.47,0.34c-0.09-0.01-0.17-0.01-0.26-0.03c0.05-0.29,0.28-0.47,0.42-0.7
			c0.4-0.7,0.56-1.47,0.78-2.23c0.14-0.48,0.25-0.97,0.18-1.47c-0.01-0.04-0.02-0.09,0-0.11c0.36-0.37,0.41-0.86,0.49-1.33
			c0.08-0.46,0.17-0.92,0.32-1.37c0.05-0.14-0.07-0.33-0.06-0.5c0.07-0.84-0.09-1.67-0.12-2.51c-0.04-0.87,0.16-1.68,0.48-2.47
			c0.22-0.54,0.33-1.13,0.74-1.59c0.1-0.11,0.02-0.36,0.09-0.53c0.4-0.94,0.59-1.97,1.25-2.8"/>
		<path class="st0" d="M9.79,28.13C9.42,28.2,9.1,28.02,8.87,27.8c-0.49-0.46-1.03-0.5-1.63-0.38c-0.52,0.11-1.03,0.09-1.55-0.09
			c-0.22-0.08-0.5-0.01-0.75-0.01"/>
		<path class="st0" d="M16.43,30.97c0.2,0.04,0.31-0.04,0.29-0.25c-0.04-0.42,0.1-0.75,0.43-1.01c0.12-0.09,0.22-0.21,0.25-0.36
			c0.06-0.24,0.16-0.42,0.43-0.47c0.35-0.06,0.7-0.24,1.04,0.04c0.33,0.26,0.75,0.31,1.15,0.36c0.36,0.04,0.72,0.08,1.04,0.26
			c0.22,0.13,0.46,0.02,0.69,0.1c0.57,0.18,1.05,0.52,1.53,0.84c0.63,0.43,1.31,0.6,2.05,0.6"/>
		<path class="st0" d="M36.55,37.68c0.11,0.44,0.41,0.69,0.83,0.79c0.36,0.09,0.61,0.28,0.79,0.61c0.18,0.32,0.49,0.44,0.85,0.44
			c0.44,0,0.86-0.13,1.29-0.15"/>
		<path class="st0" d="M9.9,28.24c0.35,0.56,0.83,1,1.44,1.25c0.5,0.21,0.86,0.55,1.24,0.92c0.33,0.32,0.86,0.38,1.34,0.41
			c0.8,0.05,1.55,0.2,2.27,0.6c0.34,0.19,0.65,0.42,0.97,0.65c0.31,0.22,0.72,0.31,0.97,0.65c0.05,0.07,0.21,0.08,0.31,0.07
			c0.41-0.03,0.75,0.15,1.11,0.29c0.55,0.21,1.08,0.5,1.65,0.63c0.62,0.13,1.13,0.37,1.58,0.81c0.49,0.48,1.03,0.89,1.68,1.11
			c0.3,0.1,0.62,0.15,0.93,0.22"/>
		<path class="st0" d="M25.39,37.82c-0.57-0.12-1.13-0.3-1.61-0.65c-0.26-0.19-0.56-0.27-0.86-0.28c-1.35-0.02-2.68-0.24-4.02-0.3
			c-0.57-0.02-1.12-0.06-1.69-0.14c-0.22-0.03-0.44-0.03-0.64-0.11c-0.23-0.09-0.46-0.09-0.64,0.08c-0.14,0.12-0.32,0.19-0.47,0.2
			c-0.46,0.03-0.75,0.32-0.95,0.67c-0.17,0.29-0.39,0.34-0.66,0.31c-0.12-0.01-0.23-0.04-0.32,0.04c-0.39,0.33-0.91,0.5-1.2,0.91
			c-0.18,0.25-0.21,0.62-0.2,0.96"/>
		<path class="st0" d="M48.14,20.35c-0.03,0.26-0.12,0.49-0.24,0.72c-0.14,0.26-0.31,0.4-0.62,0.4c-0.35,0-0.64,0.14-0.86,0.42
			c-0.45,0.56-1.01,1.01-1.57,1.44"/>
		<path class="st0" d="M10.18,30.97c-0.65-0.09-1.3-0.14-1.9-0.43c-0.1-0.05-0.21-0.08-0.32-0.11c-0.39-0.08-0.65-0.29-0.8-0.68
			c-0.17-0.46-0.42-0.59-0.92-0.5c-0.31,0.06-0.62,0.05-0.93,0.06"/>
		<path class="st0" d="M38.99,36.06c-0.06,0.26-0.24,0.45-0.4,0.64c-0.28,0.36-0.64,0.42-1.07,0.22c-0.23-0.11-0.45-0.26-0.65-0.42
			c-0.25-0.21-0.5-0.16-0.71,0.1c-0.17,0.22-0.31,0.45-0.47,0.68"/>
		<path class="st0" d="M42.97,37.14c-0.4,0.13-0.78,0.25-0.91,0.75c-0.09,0.36-0.34,0.38-0.67,0.15c-0.12-0.08-0.17-0.2-0.25-0.29
			c-0.45-0.48-1.5-0.81-2.11-0.29c-0.28,0.24-0.63,0.18-0.93,0.13c-0.35-0.06-0.69-0.15-1.04-0.16c-0.07,0-0.17-0.02-0.21,0.02
			c-0.35,0.3-0.66,0.07-0.97-0.06c-0.12-0.05-0.23-0.06-0.36-0.04c-0.45,0.04-0.91,0.1-1.36,0.02c-0.2-0.04-0.32-0.12-0.39-0.29"/>
		<path class="st0" d="M25.54,8.98c0.37,0.21,0.63,0.59,1.02,0.68c0.36,0.69,0.07,1.42,0.22,2.12c0.2,0.99-0.28,1.75-1.02,2.36
			c-0.24,0.19-0.47,0.39-0.64,0.65c-0.12,0.18-0.29,0.26-0.5,0.25"/>
		<path class="st0" d="M29.27,31.94c-0.45,0.18-0.69,0.6-1.03,0.91c-0.44,0.39-0.82,0.85-1.23,1.28c-0.32,0.34-0.74,0.45-1.18,0.47"
			/>
		<path class="st0" d="M13.49,27.02c0.4-0.06,0.69,0.22,0.96,0.41c0.81,0.57,1.71,0.93,2.59,1.35c0.15,0.07,0.29,0.17,0.43,0.25"/>
		<path class="st0" d="M39.53,12.89c-0.16-0.18-0.31-0.36-0.47-0.54c-0.12-0.14-0.28-0.22-0.47-0.22c-0.38,0.01-0.76,0.04-1.11,0.21
			c-0.34,0.17-0.71,0.27-1.04,0.46c-0.34,0.19-0.73,0.17-1.07,0.03c-0.62-0.26-1.07-0.09-1.43,0.41c-0.05,0.06-0.11,0.09-0.15,0.14"
			/>
		<path class="st0" d="M10.29,30.97c0.14,0.01,0.29,0.04,0.43,0.03c0.45-0.03,0.85,0.07,1.22,0.33c0.27,0.19,0.59,0.23,0.9,0.17
			c0.66-0.11,1.25,0.11,1.83,0.37c0.75,0.34,1.51,0.46,2.3,0.17"/>
		<path class="st0" d="M42.58,36.03c-0.57-0.36-1.2-0.53-1.87-0.57c-0.37-0.02-0.75,0.02-1.11-0.08c-0.32-0.09-0.37,0.22-0.54,0.36"
			/>
		<path class="st0" d="M18.36,22.07c0.54-0.04,0.97,0.23,1.35,0.55c0.45,0.37,0.96,0.65,1.39,1.02c0.51,0.43,1.05,0.65,1.67,0.77
			c0.35,0.07,0.58,0.28,0.72,0.61c0.05,0.11,0.13,0.21,0.18,0.32c0.17,0.41,0.46,0.58,0.9,0.5"/>
		<path class="st0" d="M18.11,32.83c-0.36,0.5-0.89,0.72-1.47,0.87c-0.58,0.15-1.12,0.43-1.72,0.54c-0.28,0.05-0.57,0.01-0.83,0.17"
			/>
		<path class="st0" d="M20.3,24.83c0.11,0.15,0.29,0.21,0.43,0.32c0.38,0.32,0.54,0.76,0.68,1.22c0.02,0.08,0.03,0.18,0.11,0.21
			c0.74,0.3,1.23,0.95,1.9,1.33c0.42,0.24,0.8,0.56,1.33,0.5"/>
		<path class="st0" d="M13.18,15.65c-0.13-0.3-0.09-0.62-0.13-0.93c-0.04-0.32-0.15-0.54-0.45-0.64c-0.33-0.12-0.47-0.32-0.44-0.68
			c0.03-0.35-0.08-0.47-0.42-0.53c-0.12-0.02-0.22-0.12-0.36-0.08"/>
		<path class="st0" d="M29.41,2.77c0.11,0.66,0.39,1.28,0.56,1.93c0.11,0.42,0.16,0.88,0.41,1.26"/>
		<path class="st0" d="M29.2,3.56c0.12,0.33,0.04,0.63-0.1,0.94c-0.06,0.12-0.06,0.29-0.04,0.43c0.03,0.15,0.03,0.29,0.03,0.43
			c0,0.44-0.14,0.68-0.43,0.75c-0.36,0.09-0.77-0.11-0.97-0.43c-0.34-0.54-0.49-1.14-0.57-1.76c-0.01-0.04-0.05-0.07-0.07-0.11"/>
		<path class="st0" d="M20.48,34.13c-0.14,0.26-0.1,0.45,0.17,0.62c0.25,0.16,0.52,0.3,0.63,0.63c0.06,0.17,0.25,0.3,0.45,0.36
			c0.45,0.15,0.6,0.48,0.54,0.93c-0.01,0.06,0,0.12,0,0.18"/>
		<path class="st0" d="M13.84,17.98c0.38,0.03,0.71,0.24,1.07,0.33c0.73,0.19,1.27,0.66,1.65,1.29c0.27,0.45,0.71,0.48,1.12,0.45
			c0.69-0.05,1.19,0.31,1.68,0.67c0.44,0.32,0.92,0.58,1.39,0.82c0.45,0.22,0.85,0.5,1.23,0.8c0.6,0.47,1.28,0.75,1.96,1.04
			c0.21,0.09,0.3,0.19,0.39,0.37c0.26,0.51,0.24,1.07,0.28,1.62c0.05,0.83,0.27,1.64,0.22,2.47c0,0.04,0.04,0.08,0.03,0.11
			c-0.21,0.67,0.25,1.04,0.64,1.44c0.02,0.02,0.02,0.07,0.08,0.07"/>
		<path class="st0" d="M28.05,2.27c0.38,0.66,0.22,1.32-0.03,1.97c-0.14,0.37-0.07,0.82-0.36,1.15"/>
		<path class="st0" d="M4.45,21.93c-0.1,0.63,0.26,1.19,0.3,1.8c0.04,0.54,0.34,0.73,0.77,0.86c0.37,0.11,0.6,0.43,0.9,0.65"/>
		<path class="st0" d="M10.33,35.56c0.46,0.01,0.9,0.11,1.36,0.08c0.17-0.01,0.38,0.05,0.46,0.21c0.32,0.62,0.9,0.69,1.48,0.66
			c0.46-0.02,0.81,0.16,1.18,0.34"/>
		<path class="st0" d="M36.73,20.57c-0.17,0.08-0.29-0.01-0.43-0.1c-0.56-0.38-1.08-0.24-1.43,0.35c-0.2,0.33-0.26,0.73-0.6,0.98
			c-0.07,0.05-0.16,0.01-0.19,0.09"/>
		<path class="st0" d="M19.73,4.06c0.03,0.12,0.22,0.17,0.11,0.36c-0.24,0.41-0.22,0.61,0.11,0.96c0.34,0.37,0.56,0.79,0.72,1.26
			c0.03,0.1,0.01,0.19,0.03,0.29"/>
		<path class="st0" d="M22.78,6.25c0.27,0.28,0.37,0.65,0.57,0.97c0.09,0.13,0.14,0.31,0.03,0.42c-0.41,0.43-0.67,0.99-1.11,1.4"/>
		<path class="st0" d="M13.84,22.9c-0.21-0.08-0.36-0.23-0.5-0.4c-0.24-0.29-0.36-0.32-0.65-0.14c-0.17,0.11-0.35,0.2-0.5,0.33
			c-0.24,0.2-0.44,0.32-0.69,0c-0.11-0.14-0.3-0.09-0.39,0.1"/>
		<path class="st0" d="M34.43,6.79c-0.39,0.34-0.8,0.48-1.33,0.3c-0.61-0.21-1.16,0.06-1.43,0.64c-0.06,0.14-0.12,0.3-0.23,0.38
			C30.96,8.48,30.76,9,30.6,9.55"/>
		<path class="st0" d="M23.89,19.31c-0.47,0.1-0.96,0-1.44,0.16c-0.37,0.13-0.71,0.28-1.03,0.48c-0.38,0.25-0.8,0.37-1.26,0.39"/>
		<path class="st0" d="M16.89,15.33c0.39,0.09,0.76-0.04,1.11-0.18c0.55-0.21,0.84-0.14,1.18,0.32c0.42,0.57,0.54,0.65,1.23,0.78
			c0.1,0.27,0.19,0.53,0.28,0.79"/>
		<path class="st0" d="M38.52,24.69c0.26,0.52,0.73,0.75,1.26,0.9c0.46,0.13,0.93,0.05,1.4,0.07"/>
		<path class="st0" d="M8.18,15.04C8.47,15.01,8.73,15.13,9,15.2c0.16,0.04,0.3,0.18,0.33,0.38c0.1,0.75,0.75,1.08,1.23,1.53
			c0.11,0.1,0.35,0.08,0.53,0.08c1.02-0.03,2.04,0.13,3.05,0.23c0.4,0.04,0.81,0.18,1.19,0.35c0.47,0.21,0.47,0.25,0.11,0.65"/>
		<path class="st0" d="M13.74,34.09c0.24-0.3,0.04-0.77-0.39-0.8c-0.58-0.04-1.15,0.08-1.72,0.04"/>
		<path class="st0" d="M21.41,26.59c-0.71,0.27-1.39,0.61-2.01,1.07c-0.35,0.26-0.74,0.13-1.11,0.04"/>
		<path class="st0" d="M37.73,22.54c0.68,0.15,1.23,0.55,1.82,0.88c0.19-0.06,0.28-0.28,0.51-0.27c0.14,0.13,0.31,0.26,0.33,0.5"/>
		<path class="st0" d="M38.67,14.65c0.11,0.41,0.04,0.83-0.13,1.17c-0.18,0.37-0.34,0.76-0.55,1.12c-0.07,0.12-0.12,0.25-0.04,0.39"
			/>
		<path class="st0" d="M32.75,37.07c-0.34-0.75-0.72-1.47-1.58-1.76c-0.45-0.15-0.87-0.15-1.26,0.18c-0.24,0.21-0.51,0.37-0.86,0.29
			"/>
		<path class="st0" d="M17.14,9.45c0.07,0.06,0.14,0.13,0.22,0.18c0.52,0.3,0.68,0.6,1.29-0.07c0.3-0.33,0.65-0.17,0.97-0.16
			c0.47,0.02,0.69,0.33,0.84,0.77c0.21,0.66,0.38,1.33,0.87,1.89c0.15,0.17,0.28,0.48,0.23,0.77"/>
		<path class="st0" d="M41.97,13.18c-0.32,0-0.64-0.05-0.9,0.21c-0.11,0.11-0.25,0.09-0.39,0.04c-0.49-0.17-0.88,0.02-1.3,0.27
			c-0.43,0.26-0.59,0.71-0.88,1.06c-0.24,0.3-0.41,0.5-0.84,0.4c-0.34-0.08-0.7-0.03-0.93,0.31c-0.07,0.1-0.18,0.18-0.28,0.25
			c-0.27,0.18-0.44,0.42-0.46,0.76"/>
		<path class="st0" d="M27.76,5.89c-0.21,0.58-0.58,1.07-0.86,1.62c-0.12,0.24-0.38,0.33-0.58,0.46c-0.65,0.4-1.04,0.95-1.18,1.69
			c-0.1,0.52-0.28,0.98-0.89,1.04"/>
		<path class="st0" d="M31.71,5.14c-0.21,0.43-0.51,0.73-1,0.79c-0.31,0.04-0.5,0.23-0.46,0.54c0.11,0.77,0.1,1.55,0.35,2.3
			c0.03,0.1,0.06,0.18,0.15,0.23"/>
		<path class="st0" d="M42.61,24.66c-0.16,0.1-0.38,0.12-0.47,0.32c-0.02,0.05-0.08,0.07-0.14,0.08c-0.8,0.1-1.59,0.13-2.36-0.13
			c-0.16-0.06-0.33,0.02-0.47-0.09"/>
		<path class="st0" d="M11.57,10.29c-0.01,0.65,0.08,1.25,0.78,1.55c0.19,0.08,0.37,0.28,0.43,0.49c0.09,0.35,0.3,0.37,0.58,0.28"/>
		<path class="st0" d="M42.54,22.65c-0.07-0.35-0.3-0.58-0.57-0.79c-0.22-0.17-0.47-0.31-0.62-0.57c-0.19-0.33-0.53-0.46-0.89-0.54"
			/>
		<path class="st0" d="M21.95,9.59c-0.35,0.64-0.42,1.34-0.5,2.05c-0.02,0.13-0.06,0.25-0.11,0.36"/>
		<path class="st0" d="M31.17,20.1c-0.49,0.6-0.56,0.62-1.29,0.32c-0.27-0.11-0.42,0.09-0.63,0.21c-0.4-0.54-0.87-0.94-1.6-0.82"/>
		<path class="st0" d="M40.75,18.56c-0.5,0.15-0.98,0.07-1.47-0.06c-0.3-0.07-0.62-0.01-0.89,0.17"/>
		<path class="st0" d="M9.29,28.13c-0.67,0.45-1.37,0.55-2.11,0.21c-0.08-0.04-0.15-0.01-0.22-0.03"/>
		<path class="st0" d="M29.56,15.97c-0.25,0.38-0.44,0.74-0.2,1.23c0.12,0.25-0.08,0.58-0.07,0.89c0,0.07,0.04,0.14,0.02,0.21"/>
		<path class="st0" d="M19.08,7.01c0.1,0,0.2,0.02,0.31-0.09c0.21,0.83,0.32,1.66,0.73,2.38"/>
		<path class="st0" d="M29.63,9.62c0.31,0.64,0.51,1.31,0.53,2.01c0.01,0.27,0.13,0.35,0.34,0.39c0.24,0.05,0.47,0.09,0.72,0.08
			c0.33-0.02,0.65,0.07,0.93,0.25c0.44,0.27,0.65,0.26,1-0.11c0.53-0.56,1.21-0.96,1.72-1.54"/>
		<path class="st0" d="M19.55,21.03c-0.25,0.44-0.71,0.52-1.15,0.61c-0.38,0.08-0.77,0.1-1.15,0.19c-0.6,0.14-1.07,0.5-1.44,1
			c-0.08,0.11-0.17,0.22-0.25,0.32"/>
		<path class="st0" d="M40.1,29.18c0,0.14,0,0.25-0.14,0.37c-0.42,0.37-0.78,0.77-0.77,1.39c0.01,0.33-0.24,0.53-0.53,0.64
			c-0.19,0.08-0.4,0.13-0.39,0.4"/>
		<path class="st0" d="M20.34,30.86c0,0.22,0.02,0.44,0.11,0.65c0.17,0.42-0.05,0.81-0.09,1.22c-0.01,0.12,0,0.28-0.09,0.4"/>
		<path class="st0" d="M37.84,32.12c0.24,0.59,0.51,1.16,0.97,1.61c0.43,0.41,1.07,0.29,1.6,0.56c0.13-0.15,0.27-0.3,0.4-0.45"/>
		<path class="st0" d="M28.91,15.22c0.35,0.05,0.64-0.17,0.97-0.21c0.64-0.08,1.29-0.02,1.94-0.03c0.43,0,0.83,0.17,1.26,0.17"/>
		<path class="st0" d="M12.66,31.54c-0.03,0.31-0.23,0.5-0.54,0.58c-0.4,0.1-0.77-0.03-1.15-0.12c-0.1-0.02-0.19-0.01-0.29-0.03"/>
		<path class="st0" d="M16.75,21.82c-0.07-0.11-0.13-0.23-0.22-0.32c-0.17-0.19-0.47-0.2-0.68-0.04c-0.09,0.07-0.19,0.13-0.29,0.2
			c-0.22-0.17-0.18-0.67-0.64-0.53"/>
		<path class="st0" d="M6.99,23.18c0.63,0.64,1.08,1.4,1.45,2.22c0.27,0.59,0.63,1.15,1.04,1.67c0.22,0.29,0.36,0.69,0.38,1.1"/>
		<path class="st0" d="M31.71,13.53c-0.22-0.17-0.44-0.09-0.64,0c-0.56,0.25-1.13,0.47-1.76,0.43"/>
		<path class="st0" d="M35.73,30.54c0.19,0.25,0.12,0.55,0.15,0.82c0.05,0.43,0.14,0.86,0.21,1.29"/>
		<path class="st0" d="M14.38,24.87c-0.17,0.33-0.27,0.67-0.33,1.04c-0.06,0.37-0.2,0.72-0.31,1.08"/>
		<path class="st0" d="M29.2,30.83c-0.01,0.2,0.04,0.4,0.01,0.61c-0.05,0.37,0.15,0.67,0.53,0.7c0.5,0.04,0.88,0.28,1.25,0.56
			c0.47,0.36,0.48,0.32,1.04,0.01c0.32-0.18,0.58-0.26,0.94-0.18c0.25,0.06,0.36,0.2,0.43,0.41"/>
		<path class="st0" d="M37.38,12.49c0.24,0.41,0.28,0.86,0.26,1.33c-0.02,0.3,0.19,0.46,0.46,0.54"/>
		<path class="st0" d="M40.32,37.35c0.23,0.39,0.3,0.83,0.4,1.25c0.09,0.37,0.22,0.45,0.61,0.47"/>
		<path class="st0" d="M13.38,37.68c-0.12-0.34-0.38-0.45-0.72-0.47c-0.4-0.03-0.79,0.11-1.18,0.08"/>
		<path class="st0" d="M36.73,22.07c0.01,0.32-0.02,0.62-0.1,0.93c-0.07,0.29,0.03,0.57,0.32,0.71c0.51,0.26,0.9,0.72,1.47,0.86
			c0.29,0.07,0.56,0.32,0.9,0.08c0.09-0.06,0.27-0.04,0.39,0c0.43,0.13,0.65-0.11,0.83-0.44"/>
		<path class="st0" d="M37.73,24.4c-0.34,0.13-0.69,0.04-1.04,0.05c-0.53,0.01-1.09-0.16-1.57,0.15c-0.35,0.23-0.64,0.54-1.12,0.5
			c-0.12-0.01-0.27,0.14-0.39,0.24c-0.37,0.3-0.78,0.55-1.19,0.78c-0.16,0.09-0.24,0.16-0.21,0.33"/>
		<path class="st0" d="M26.4,2.84c-0.05,0.96-0.1,1.91-0.14,2.87c-0.01,0.19,0.1,0.35,0.12,0.54c0.05,0.45,0.07,0.91,0.06,1.36
			c0,0.07,0.01,0.14,0.07,0.18"/>
		<path class="st0" d="M40.17,10.74c0.12,0.41,0.14,0.79-0.21,1.12c-0.26,0.25-0.09,0.57-0.08,0.86"/>
		<path class="st0" d="M17.57,25.73c-0.02,0.12,0.03,0.24-0.03,0.36c-0.11,0.2-0.03,0.39,0.11,0.53c0.36,0.36,0.51,0.82,0.65,1.29
			c0.08,0.26,0.27,0.49,0.14,0.79"/>
		<path class="st0" d="M38.95,14.36c0.16,0.08,0.32,0.16,0.46,0.25c0.49,0.33,0.98,0.33,1.47,0"/>
		<path class="st0" d="M36.66,21.07c-0.3,0.12-0.47,0.33-0.54,0.65c-0.09,0.43-0.38,0.77-0.5,1.18"/>
		<path class="st0" d="M25.65,51.16"/>
		<path class="st0" d="M18.18,36.71c-0.06,0.22-0.06,0.46-0.14,0.68c-0.17,0.47-0.49,0.68-0.98,0.68c-0.18,0-0.36,0.03-0.54-0.01
			c-0.2-0.04-0.36-0.03-0.54,0.07c-0.21,0.12-0.47,0.1-0.71,0.13c-0.55,0.07-0.57,0.12-0.9,0.81"/>
		<path class="st0" d="M38.09,18.34c0.19,0.39,0.45,0.74,0.62,1.14c0.13,0.29,0.6,0.23,0.78-0.07c0.04-0.07,0.07-0.14,0.11-0.21"/>
		<path class="st0" d="M25.83,51.31"/>
		<path class="st0" d="M31.64,6.58c-0.71,0.45-0.65,1.13-0.57,1.83"/>
		<path class="st0" d="M30.92,16.4c-0.07,0.25-0.16,0.5-0.21,0.75c-0.04,0.19-0.15,0.38-0.29,0.41c-0.39,0.09-0.52,0.44-0.79,0.66
			c-0.11,0.09-0.16,0.2-0.07,0.29c0.4,0.38,0.51,0.99,1,1.3"/>
		<path class="st0" d="M9.29,26.92c-0.43,0.08-0.62-0.23-0.82-0.5c-0.01-0.01,0-0.02,0-0.04c-0.25-0.72-0.68-1.14-1.51-1.01
			c-0.15,0.02-0.31-0.1-0.46-0.09c-0.31,0.01-0.59,0.18-0.67,0.46c-0.29,1.09-1.23,1.21-2.09,1.47c-0.46,0.14-0.93,0.24-1.36,0.45
			c-0.23,0.11-0.44,0.06-0.65,0.09"/>
		<path class="st0" d="M32,9.66c-0.02,0.58-0.46,1.01-0.56,1.57c-0.05,0.28-0.12,0.55-0.12,0.83"/>
		<path class="st0" d="M8.89,18.2c0.29,0.4,0.72,0.55,1.18,0.57c0.25,0.01,0.45,0.07,0.61,0.26"/>
		<path class="st0" d="M22.02,22.75c-0.33,0.26-0.69,0.37-1.11,0.22c-0.22-0.08-0.45-0.14-0.68,0"/>
		<path class="st0" d="M34.33,19.45c-0.22,0.02-0.45-0.04-0.64-0.1c-0.41-0.12-0.51,0.07-0.63,0.38c-0.05,0.13-0.06,0.28-0.13,0.4"
			/>
		<path class="st0" d="M45.99,20.49c-0.09,0.45-0.14,0.92-0.29,1.36c-0.05,0.14-0.1,0.29-0.25,0.32c-0.62,0.1-0.62,0.62-0.65,1.05
			c-0.02,0.19-0.07,0.32-0.17,0.42c-0.37,0.4-0.52,0.91-0.78,1.37c-0.42,0.73-0.82,1.48-1.43,2.09c-0.23,0.23-0.4,0.53-0.69,0.71"/>
		<path class="st0" d="M18.22,17.88c-0.18,0.1-0.4,0.05-0.53-0.02c-0.18-0.09-0.34-0.1-0.51-0.08c-0.49,0.04-0.99,0.07-1.47,0.21"/>
		<path class="st0" d="M19.73,30.72c-0.31,0.47-0.39,0.95-0.11,1.47c0.13,0.24,0.35,0.47,0.22,0.79"/>
		<path class="st0" d="M46.63,22.57c0.25,0.47,0.19,0.63-0.32,0.71c-0.26,0.04-0.45,0.16-0.65,0.32c-0.28,0.24-0.61,0.31-0.96,0.15"
			/>
		<path class="st0" d="M11.48,20.71c0.15,0.07,0.29,0.13,0.46,0.15c0.73,0.11,1.3,0.49,1.76,1.07c0.04,0.05,0.07,0.1,0.11,0.14
			c0.29,0.38,0.62,0.7,1.15,0.66"/>
		<path class="st0" d="M34.76,16.15c0.01-0.1,0.06-0.21,0.03-0.28c-0.16-0.36-0.53-0.5-0.82-0.72c-0.19-0.14-0.38-0.04-0.57,0"/>
		<path class="st0" d="M34.72,23.44c-0.34,0.17-0.68,0.36-1.08,0.4c-0.14,0.01-0.29,0.09-0.35,0.21c-0.09,0.16-0.16,0.22-0.37,0.19
			c-0.24-0.03-0.49,0.04-0.72,0.16c-0.34,0.18-0.68,0.24-1.08,0.13c-0.3-0.08-0.64-0.02-0.96-0.02c-0.18,0-0.37,0.03-0.54-0.07
			c-0.34-0.2-0.67,0.09-1,0.04"/>
		<path class="st0" d="M25.83,19.02c-0.06,0.02-0.13,0.04-0.18,0.07c-0.48,0.38-1.04,0.27-1.58,0.29"/>
		<path class="st0" d="M34.97,29.03c-0.09-0.6-0.55-0.91-0.97-1.25c-0.17-0.14-0.43-0.01-0.61,0.28c-0.11,0.19-0.21,0.38-0.32,0.57
			c-0.35,0.58-0.8,0.78-1.51,0.65c-0.66-0.12-1.43,0.25-1.72,0.86c-0.05,0.11-0.09,0.26-0.04,0.39"/>
		<path class="st0" d="M22.45,4.5c0.56,0.27,1.12,0.53,1.54,1c0.03,0.03,0.08,0.1,0.14,0.04"/>
		<path class="st0" d="M29.59,32.26c-0.14,0.42,0.03,0.77,0.33,1.03c0.22,0.2,0.32,0.41,0.28,0.69"/>
		<path class="st0" d="M16.82,22.04c0.08,0.18-0.09,0.27-0.15,0.39c-0.23,0.46-0.49,0.91-0.74,1.37"/>
		<path class="st0" d="M26.18,14.4c0.08,0.77,0.19,1.53,0.71,2.16c0.06,0.07,0.08,0.19,0.11,0.28"/>
		<path class="st0" d="M14.27,22.68c-0.29,0.3-0.6,0.49-1.05,0.26c-0.16-0.08-0.4-0.01-0.6-0.01"/>
		<path class="st0" d="M12.34,17.3c-0.36,0.32-0.79,0.4-1.26,0.39c-0.13,0-0.26,0-0.39,0"/>
		<path class="st0" d="M10.18,18.13c0.41,0.19,0.57,0.47,0.56,0.97c-0.01,0.54,0.28,1.04,0.62,1.47c0.04,0.05,0.07,0.1,0.11,0.14"/>
		<path class="st0" d="M20.12,12.49c0,0.19-0.17,0.11-0.25,0.13c-0.51,0.17-0.93,0.51-1.4,0.76"/>
		<path class="st0" d="M46.99,31.97c0.14,0.4,0.04,0.81,0.04,1.22c0,0.01,0,0.03,0,0.04c-0.35,0.49-0.35,1.21-0.94,1.53
			c-0.25,0.13-0.46,0.28-0.64,0.48c-0.18,0.2-0.22,0.45-0.18,0.72"/>
		<path class="st0" d="M35.94,16.55c0.01,0.24,0.04,0.48,0.03,0.72c-0.01,0.2-0.02,0.41-0.17,0.58c-0.09,0.09-0.09,0.21-0.04,0.32"
			/>
		<path class="st0" d="M29.48,18.34c-0.33-0.1-0.63,0.1-0.93,0.17c-0.3,0.07-0.6,0.12-0.9,0.12"/>
		<path class="st0" d="M13.2,15.69c0.17,0.52,0.23,1.06,0.22,1.61"/>
		<path class="st0" d="M26.29,3.74c-0.08-0.18-0.22-0.29-0.41-0.36c-0.13,0.03-0.2,0.21-0.38,0.18c-0.31-0.05-0.52,0.1-0.68,0.36"/>
		<path class="st0" d="M39.46,16.69c-0.34-0.1-0.63-0.02-0.86,0.25c-0.18,0.22-0.4,0.34-0.67,0.46c-0.47,0.22-0.98,0.36-1.45,0.57
			c-0.28,0.12-0.58,0.18-0.86,0.3c-0.46,0.2-0.72,0.64-1.08,0.96"/>
		<path class="st0" d="M28.69,27.52c-0.17,0.09-0.33,0.18-0.44-0.11c-0.13-0.35-0.47-0.42-0.78-0.5c-0.14-0.04-0.29-0.05-0.43-0.07"
			/>
		<path class="st0" d="M33.79,8.01c-0.01,0.18,0.07,0.38-0.14,0.5c-0.14,0.08-0.07,0.24-0.07,0.36c0.02,0.76-0.46,1.1-0.94,1.17
			c-0.25,0.04-0.44,0.29-0.72,0.19"/>
		<path class="st0" d="M21.2,23.97c-0.51-0.35-1.02-0.25-1.54-0.04"/>
		<path class="st0" d="M14.38,30.11c-0.52-0.23-1.03-0.09-1.54,0.04"/>
		<path class="st0" d="M22.27,24.48c-0.12,0.3-0.26,0.59-0.35,0.9c-0.08,0.26-0.21,0.46-0.44,0.61"/>
		<path class="st0" d="M32.14,26.31c-0.44,0.17-0.75,0.43-0.68,0.97c0.02,0.16-0.08,0.28-0.18,0.39"/>
		<path class="st0" d="M17.5,8.66c0.2,0.27,0.5,0.31,0.79,0.35c0.25,0.03,0.44,0.15,0.61,0.33"/>
		<path class="st0" d="M11.19,29.64c-0.08,0.1-0.22,0.14-0.32,0.14c-0.7-0.02-1.05,0.5-1.47,0.91c-0.02,0.02,0,0.09,0,0.14"/>
		<path class="st0" d="M43.58,27.87c-0.49-0.09-0.98-0.1-1.47-0.04c-0.09,0.01-0.19,0.02-0.25-0.07"/>
		<path class="st0" d="M27.01,16.98c-0.44,0.44-0.88,0.88-1.43,1.18"/>
		<path class="st0" d="M21.59,8.19c-0.32,0.55-0.89,0.8-1.4,1.11c-0.06,0.04-0.12,0.07-0.14,0.15"/>
		<path class="st0" d="M23.67,18.84c-0.55,0.06-1.02-0.18-1.51-0.36"/>
		<path class="st0" d="M11.55,22c-0.5,0.05-1,0.1-1.51,0.07"/>
		<path class="st0" d="M34.47,8.8c-0.13,0.26-0.35,0.41-0.58,0.56c0.14,0.39,0.28,0.76,0.76,0.84c0.06,0.01,0.14,0.08,0.16,0.21
			c0.01,0.11,0.06,0.28,0.24,0.29"/>
		<path class="st0" d="M41.47,22.43c-0.4,0.23-0.8,0.12-1.22,0.04c-0.45-0.08-0.81-0.29-1.11-0.61c-0.05-0.05-0.14-0.1-0.21-0.11
			c-0.39-0.05-0.42-0.27-0.29-0.58c0.11-0.26-0.06-0.57,0.11-0.82"/>
		<path class="st0" d="M43.4,17.55c-0.08-0.18-0.25-0.3-0.37-0.46c-0.19-0.26-0.51-0.18-0.78-0.14c-0.21,0.04-0.36,0.04-0.55-0.11
			c-0.16-0.13-0.4-0.18-0.6-0.26"/>
		<path class="st0" d="M36.55,9.55c0.28,0.05,0.53,0.14,0.65,0.43c0.15,0.36,0.45,0.16,0.6,0.09c0.34-0.15,0.67-0.11,1.01-0.13"/>
		<path class="st0" d="M24.17,14.04c-0.36,0.15-0.57,0.48-0.85,0.73c-0.15,0.13-0.29,0.26-0.44,0.38"/>
		<path class="st0" d="M20.23,24.83c-0.4-0.13-0.79,0.05-1.18,0.08c-0.31,0.03-0.54,0.27-0.83,0.39"/>
		<path class="st0" d="M33.07,24.3c-0.05,0.25-0.18,0.47-0.32,0.68c-0.2,0.3-0.5,0.34-0.79,0.28c-0.39-0.09-0.68,0.05-0.97,0.26"/>
		<path class="st0" d="M15.03,18.41c-0.42,0.37-0.92,0.48-1.47,0.43"/>
		<path class="st0" d="M37.41,17.44c-0.49-0.75-1.28-0.97-2.08-1.1c-0.49-0.08-0.9-0.3-1.28-0.57c-0.25-0.17-0.56-0.25-0.76-0.49"/>
		<path class="st0" d="M20.16,19.13c-0.29,0.14-0.55,0.3-0.87,0.02c-0.12-0.11-0.39-0.04-0.6-0.05"/>
		<path class="st0" d="M39.96,32.76c-0.11,0.42-0.39,0.64-0.82,0.68c-0.16,0.02-0.31,0.05-0.47,0.07"/>
		<path class="st0" d="M41.36,31.61c0.2,0.4,0.51,0.6,0.97,0.61c0.27,0.01,0.5,0.16,0.72,0.32"/>
		<path class="st0" d="M46.92,35.63c-0.26,0.07-0.52,0.11-0.75,0.25c-0.22,0.13-0.45,0.03-0.68,0.03"/>
		<path class="st0" d="M2.72,32.91c0.04,0.29,0.23,0.52,0.34,0.78c0.09,0.2,0.28,0.43,0.59,0.37c0.08-0.01,0.19,0.02,0.25,0.07
			c0.38,0.4,0.85,0.31,1.29,0.24c0.28-0.05,0.5,0.12,0.76,0.12"/>
		<path class="st0" d="M44.5,32.35c-0.49,0.01-0.99-0.07-1.43,0.22"/>
		<path class="st0" d="M35.87,14.68c-0.13-0.14-0.26-0.3-0.4-0.43c-0.1-0.09-0.21-0.15-0.36-0.15c-0.73,0.03-1.43,0.14-1.87,0.83"/>
		<path class="st0" d="M14.58,12.28c0.19,0.2,0.39,0.4,0.57,0.61c0.2,0.22,0.32,0.48,0.25,0.79"/>
		<path class="st0" d="M32.1,35.92c0.19-0.58-0.03-1.02-0.61-1.22"/>
		<path class="st0" d="M20.66,17.05c-0.28,0.09-0.58,0.03-0.86,0.13c-0.24,0.09-0.48,0.17-0.68,0.33c-0.24,0.2-0.51,0.33-0.83,0.36"
			/>
		<path class="st0" d="M28.34,7.22c0.07,0.32,0.11,0.64,0.07,0.97C28.4,8.24,28.4,8.3,28.37,8.33c-0.27,0.36-0.29,0.81-0.34,1.22
			c-0.08,0.69-0.57,1.16-0.81,1.75c-0.02,0.05-0.02,0.1-0.03,0.15"/>
		<path class="st0" d="M19.98,29.32c-0.02,0.26,0.02,0.5,0.18,0.72c0.15,0.2,0.12,0.46,0.22,0.68"/>
		<path class="st0" d="M36.51,8.37c0.15,0.38,0.12,0.77-0.01,1.14c-0.08,0.24-0.33,0.36-0.53,0.5c-0.28,0.21-0.6,0.37-0.86,0.61"/>
		<path class="st0" d="M12.66,21.14c-0.36,0.48-0.93,0.72-1.34,1.17c-0.25,0.27-0.67,0.31-1.06,0.26"/>
		<path class="st0" d="M13.66,11.69c0.02,0.15,0.17,0.14,0.25,0.21c0.35,0.32,0.42,0.62,0.22,1.07c-0.13,0.07-0.2-0.1-0.33-0.07"/>
		<path class="st0" d="M33.07,19.1c-0.1-0.05-0.18-0.11-0.29,0c-0.22,0.23-0.47,0.44-0.67,0.69c-0.11,0.12-0.14,0.34-0.33,0.34
			c-0.19,0.01-0.41-0.02-0.56-0.11c-0.11-0.07-0.26-0.05-0.33-0.16"/>
		<path class="st0" d="M41.18,12.46c-0.3,0.17-0.59,0.35-0.9,0.49c-0.12,0.06-0.29,0.06-0.43,0.04c-0.4-0.07-0.5-0.04-0.64,0.33
			c-0.07,0.18-0.15,0.37-0.11,0.57"/>
		<path class="st0" d="M33.68,13.57c-0.44,0.2-0.88,0.41-1.33,0.61"/>
		<path class="st0" d="M35.22,26.88c-0.05,0.31-0.29,0.47-0.54,0.53c-0.27,0.06-0.46,0.19-0.64,0.37"/>
		<path class="st0" d="M12.12,18.41c0.05,0.5,0.07,0.97-0.27,1.41c-0.12,0.16-0.05,0.49,0.02,0.74c0.02,0.08,0.03,0.17,0.04,0.25"/>
		<path class="st0" d="M19.12,21.5c0.13,0.33,0.05,0.62-0.1,0.94c-0.18,0.38-0.28,0.81-0.4,1.22c-0.03,0.11,0.01,0.23,0.14,0.25
			c0.41,0.05,0.69,0.35,1.04,0.52c0.13,0.06,0.33,0.03,0.4,0.21"/>
		<path class="st0" d="M4.09,33.55c0.29,0.24,0.55,0.51,0.97,0.52c0.08,0,0.3,0.07,0.25,0.27"/>
		<path class="st0" d="M25.47,4.35c-0.3,0.32-0.61,0.64-0.89,0.97c-0.12,0.15-0.28,0.17-0.44,0.21"/>
		<path class="st0" d="M19.19,17.62c0.06,0.06,0.11,0.13,0.18,0.18c0.49,0.37,0.52,0.49,0.29,1.04"/>
		<path class="st0" d="M28.69,23.15c-0.07,0.18-0.12,0.37-0.22,0.53c-0.09,0.15,0.04,0.22,0.05,0.33c0.01,0.15,0.16,0.27,0.14,0.43"
			/>
		<path class="st0" d="M34.51,30.75c-0.17,0.27-0.23,0.57-0.13,0.86c0.09,0.29,0.05,0.53-0.07,0.79c-0.05,0.09-0.03,0.21-0.04,0.32"
			/>
		<path class="st0" d="M40.03,31.51c0.14-0.86,0.81-1.57,1.69-1.52c0.37,0.02,0.7,0.12,0.96,0.34c0.28,0.24,0.51,0.26,0.8,0.06"/>
		<path class="st0" d="M9.61,27.13c0.71,0.08,1.42,0.02,2.12,0.24c0.59,0.19,1.15-0.05,1.68-0.31"/>
		<path class="st0" d="M17.86,16.55c0.13,0.44,0.26,0.88,0.39,1.33"/>
		<path class="st0" d="M26.83,0.98c-0.12,0.21-0.29,0.34-0.54,0.36c-0.13,0.01-0.19,0.11-0.25,0.21c-0.22,0.37-0.55,0.42-0.93,0.32"
			/>
		<path class="st0" d="M9.66,33.66c0.04,0.1,0.11,0.18,0.22,0.21c0.37,0.1,0.69,0.21,0.85,0.64c0.06,0.18,0.46,0.12,0.59,0.37"/>
		<path class="st0" d="M34.04,37.39c0.05,0.33,0.2,0.65,0.11,1.01c-0.05,0.19,0.14,0.07,0.21,0.11"/>
		<path class="st0" d="M42.11,15.72c-0.35,0.23-0.7,0.46-1,0.75c-0.27,0.26-0.62,0.19-0.93,0.2c-0.21,0.01-0.43-0.01-0.65-0.02"/>
		<path class="st0" d="M22.81,32.19c-0.33,0.44-0.44,0.93-0.39,1.47c0.01,0.1-0.07,0.14-0.08,0.22"/>
		<path class="st0" d="M24.25,3.49c0.58,0.18,0.7,0.56,0.4,1.08c-0.17,0.3-0.46,0.54-0.47,0.93"/>
		<path class="st0" d="M21.05,26.81c0.07,0.52-0.12,0.92-0.54,1.22"/>
		<path class="st0" d="M30.02,27.17c0.47,0.08,0.88,0.28,1.26,0.57"/>
		<path class="st0" d="M27.33,2.41c0.21,0.66-0.12,1.13-0.54,1.58c-0.14,0.15-0.26,0.31-0.4,0.47"/>
		<path class="st0" d="M34.97,29.1c0.01,0.55,0.2,0.77,0.75,0.86"/>
		<path class="st0" d="M38.6,21.64c-0.45,0.44-0.92,0.87-1.36,1.33c-0.16,0.17-0.35,0.28-0.55,0.39"/>
		<path class="st0" d="M44.26,15.04c-0.25,0.37-0.71,0.4-1.04,0.65c-0.04,0.03-0.07,0.07-0.11,0.11"/>
		<path class="st0" d="M38.95,8.94c-0.35-0.05-0.67,0.05-0.97,0.22c-0.31,0.18-0.62,0.36-0.97,0.46"/>
		<path class="st0" d="M22.09,31.4c0.31,0.33,0.44,0.74,0.47,1.18"/>
		<path class="st0" d="M12.93,11.44c0.12,0.58,0.26,1.15,0.86,1.43"/>
		<path class="st0" d="M18.94,34.77c0.61,0.35,1.31,0.44,1.97,0.64c0.1,0.03,0.21,0.03,0.32,0.04"/>
		<path class="st0" d="M45.34,34.13c-0.16,0.38-0.3,0.76-0.04,1.15"/>
		<path class="st0" d="M27.87,9.98c-0.39-0.27-0.65-0.63-0.72-1.11c-0.02-0.14-0.09-0.16-0.22-0.18c-0.3-0.06-0.6-0.07-0.9-0.07
			c-0.1,0-0.21,0.02-0.29-0.07"/>
		<path class="st0" d="M44.34,23.9c-0.2-0.16-0.33-0.03-0.47,0.11c-0.24,0.24-0.38,0.56-0.64,0.79c-0.31,0.28-0.64,0.42-1.04,0.25"
			/>
		<path class="st0" d="M15.85,14.04c0.38,0.25,0.45,0.72,0.79,1.01c0.23,0.2,0.24,0.52,0.36,0.78"/>
		<path class="st0" d="M40.53,29.5c-0.17,0.35-0.36,0.7-0.18,1.11"/>
		<path class="st0" d="M10.83,29.82c-0.01,0.01-0.02,0.02-0.04,0.04c-0.38,0.32-0.56,0.74-0.61,1.22c-0.02,0.19-0.11,0.33-0.22,0.47
			"/>
		<path class="st0" d="M39.46,19.56c0.37,0.37,0.4,0.79,0.18,1.26c-0.07,0.15-0.08,0.33-0.11,0.5"/>
		<path class="st0" d="M29.91,24.58c0.02,0.37,0.33,0.53,0.58,0.67c0.52,0.28,0.87,0.74,1.32,1.09"/>
		<path class="st0" d="M7.82,15.62c0.17,0.19,0.36,0.34,0.65,0.29c0.16-0.03,0.27,0.11,0.39,0.18"/>
		<path class="st0" d="M39.89,15.62c-0.46,0.16-0.27,0.6-0.39,0.9c-0.03,0.08-0.03,0.17-0.04,0.25"/>
		<path class="st0" d="M35.3,7.8c0,0.11-0.13,0.13-0.15,0.25c-0.06,0.38-0.31,0.61-0.67,0.72c-0.08-0.26-0.17-0.51,0.04-0.76"/>
		<path class="st0" d="M7.8,34.02c-0.01,0.07,0.06,0.11,0.08,0.18c0.11,0.46,0.45,0.68,0.89,0.53c0.2-0.07,0.35-0.04,0.54,0
			c0.48,0.1,0.97,0.18,1.4-0.17"/>
		<path class="st0" d="M34.04,15.83c-0.08,0.36-0.02,0.72-0.04,1.08"/>
		<path class="st0" d="M25.18,0.76c0.07,0.36,0.14,0.72-0.04,1.08"/>
		<path class="st0" d="M23.6,2.77c0.1,0.1,0.09,0.24,0.07,0.36c-0.04,0.24,0.13,0.3,0.29,0.36c0.18,0.06,0.26-0.09,0.36-0.21
			c0.34-0.43,0.45-0.98,0.79-1.4"/>
		<path class="st0" d="M4.37,26.23c0.33,0.23,0.71,0.17,1.08,0.18"/>
		<path class="st0" d="M33.65,30.68c-0.09,0.17-0.11,0.35-0.11,0.54c0.01,0.48-0.11,0.93-0.32,1.36"/>
		<path class="st0" d="M32.32,12.67c-0.12,0.13-0.28,0.19-0.43,0.24c-0.25,0.08-0.38,0.25-0.46,0.47"/>
		<path class="st0" d="M9.54,16.26c-0.1,0-0.19,0-0.29-0.03c-0.16-0.04-0.32-0.04-0.51,0.01c-0.44,0.13-0.91,0.11-1.36-0.05"/>
		<path class="st0" d="M40.46,34.36c0.36,0.31,0.83,0.3,1.26,0.39c0.28,0.06,0.51-0.13,0.75-0.24"/>
		<path class="st0" d="M38.45,25.66c0.27,0.42,0.07,0.74-0.22,1.04"/>
		<path class="st0" d="M32.86,31.4c-0.16,0.34-0.29,0.68-0.32,1.06"/>
		<path class="st0" d="M14.53,38.57c-0.23,0.01-0.45,0.09-0.68,0c-0.16-0.06-0.24,0.09-0.36,0.14"/>
		<path class="st0" d="M14.35,39.29c0.12-0.27-0.11-0.17-0.18-0.14c-0.24,0.11-0.46,0.09-0.68-0.01"/>
		<path class="st0" d="M40.89,26.52c0.57-0.13,0.97,0.27,1.43,0.47"/>
		<path class="st0" d="M21.41,23.97c-0.4,0.14-0.73,0.37-0.97,0.72"/>
		<path class="st0" d="M18,18.56c0.4,0.13,0.65,0.39,0.72,0.82c0.05,0.28,0.01,0.52-0.11,0.75"/>
		<path class="st0" d="M40.82,19.63c-0.12,0.34-0.14,0.72-0.39,1"/>
		<path class="st0" d="M43.26,14.68c-0.25,0.01-0.53-0.07-0.75,0.08c-0.32,0.22-0.41,0.55-0.35,0.9c0.12,0.13,0.21-0.03,0.31,0.02"
			/>
		<path class="st0" d="M21.09,20.21c-0.06,0.29-0.04,0.57,0,0.86c0.02,0.18-0.02,0.36-0.07,0.54"/>
		<path class="st0" d="M24.57,17.52c0.62,0.26,1.08,0.68,1.36,1.29"/>
		<path class="st0" d="M27.4,9.48c0.44-0.33,0.53-0.52,1.07-0.06c0.4,0.34,0.87,0.25,1.18,0.1c0.51-0.24,0.82-0.06,1.16,0.21
			c0.06,0.04,0.11,0.08,0.18,0.07"/>
		<path class="st0" d="M33.11,24.44c0.28,0.09,0.4,0.31,0.42,0.57c0.01,0.12,0.05,0.2,0.11,0.29"/>
		<path class="st0" d="M8.18,29.82c0.34,0.2,0.67,0.39,0.65,0.86"/>
		<path class="st0" d="M31.56,28.31c-0.13,0.24-0.31,0.43-0.5,0.61c-0.1,0.1-0.24,0.18-0.22,0.36"/>
		<path class="st0" d="M19.66,25.62c0.02,0.33-0.03,0.66-0.14,0.97"/>
		<path class="st0" d="M16.5,34.27c0.44,0,0.88-0.12,1.33-0.04c0.19,0.03,1.07,0.54,1.24,0.62"/>
		<path class="st0" d="M21.31,32.48c-0.38,0.11-0.7,0.28-0.75,0.72"/>
		<path class="st0" d="M18.94,14.25c0.37,0.42,0.37,0.42,0.11,0.93"/>
		<path class="st0" d="M26.61,8.69c-0.1,0.08-0.02,0.19,0.01,0.25c0.11,0.24,0.06,0.46-0.04,0.68"/>
		<path class="st0" d="M31.21,4.64c0.13,0.3,0.04,0.64,0.18,0.93"/>
		<path class="st0" d="M12.05,26.31c0.13,0.05,0.26,0.13,0.4,0.14c0.37,0.03,0.67,0.18,0.9,0.47"/>
		<path class="st0" d="M43.47,15.18c-0.33,0.11-0.64,0.28-0.93,0.47"/>
		<path class="st0" d="M6.49,15.72c0.13,0.25,0.33,0.35,0.61,0.32c0.1-0.01,0.2,0,0.25,0.11"/>
		<path class="st0" d="M19.62,31.11c0.11,0.05,0.23-0.03,0.28-0.08c0.48-0.42,1.02-0.27,1.55-0.21"/>
		<path class="st0" d="M39.46,7.51c-0.01,0.2-0.31,0.33-0.13,0.6c0.17-0.07,0.38,0.04,0.56-0.09"/>
		<path class="st0" d="M14.15,13c0.57,0.34,1.18,0.6,1.69,1.04"/>
		<path class="st0" d="M44.12,15.62c-0.3,0.21-0.62,0.38-1,0.25"/>
		<path class="st0" d="M41.64,28.06c0,0.18-0.18,0.1-0.26,0.17c-0.18,0.15-0.29,0.31-0.28,0.55c0.03,0.59-0.03,0.65-0.61,0.65
			c-0.13,0-0.26,0-0.39,0"/>
		<path class="st0" d="M36.44,26.09c0.31,0.31,0.79,0.37,1.08,0.72"/>
		<path class="st0" d="M30.52,14.04c0.22,0.26,0.29,0.57,0.29,0.9"/>
		<path class="st0" d="M16,23.76c0.26,0.17,0.64,0,0.86,0.29"/>
		<path class="st0" d="M31.78,13.57c0.35,0.44,0.77,0.81,1.14,1.22c0.18,0.19,0.24,0.44,0.23,0.71c-0.01,0.2-0.06,0.42,0.07,0.61"/>
		<path class="st0" d="M29.23,19.78c0.39-0.11,0.76,0.1,1.15,0.08c0.3-0.02,0.56-0.05,0.75-0.3"/>
		<path class="st0" d="M12.16,38.82c-0.32,0.18-0.4,0.48-0.39,0.83"/>
		<path class="st0" d="M8.37,33.8c0.27,0.23,0.43,0.55,0.65,0.83"/>
		<path class="st0" d="M14.63,38.39c-0.28-0.09-0.55-0.23-0.86-0.18"/>
		<path class="st0" d="M17.14,20.85c0.35,0.16,0.58,0.47,0.83,0.75"/>
		<path class="st0" d="M47.06,22.22c0.07,0.28-0.06,0.58,0.04,0.86"/>
		<path class="st0" d="M38.67,13.53c-0.03,0.23-0.06,0.44-0.32,0.59c-0.38,0.22-0.38,0.41-0.15,0.96"/>
		<path class="st0" d="M16.57,13.41c-0.05,0.23-0.11,0.45-0.14,0.68c-0.02,0.14-0.07,0.3,0.07,0.43c0.16,0.15,0.12,0.36,0.18,0.54"
			/>
		<path class="st0" d="M26.83,2.77c0.07,0.28,0.14,0.55,0.22,0.83"/>
		<path class="st0" d="M16.93,32.69c0.39,0.09,0.38,0.44,0.47,0.72"/>
		<path class="st0" d="M39.53,29.18c0.07,0.28-0.16,0.54-0.04,0.83"/>
		<path class="st0" d="M40.39,20.71c-0.14,0.13-0.29,0.26-0.43,0.4c-0.19,0.2-0.39,0.29-0.69,0.22c-0.19-0.04-0.38,0.08-0.54,0.2"/>
		<path class="st0" d="M37.16,25.8c0.01,0.29,0.27,0.52,0.22,0.83"/>
		<path class="st0" d="M45.45,28.21c-0.28,0-0.55,0-0.83,0"/>
		<path class="st0" d="M24.1,1.55c0.02,0.3,0.15,0.59,0.04,0.9"/>
		<path class="st0" d="M24.32,1.27c0.2,0.26,0.41,0.52,0.75,0.61"/>
		<path class="st0" d="M37.3,17.77c0.06,0.2,0.1,0.41,0.18,0.61c0.15,0.34,0.31,0.4,0.68,0.29"/>
		<path class="st0" d="M18.87,25.84c-0.21,0.45-0.13,0.93-0.14,1.4"/>
		<path class="st0" d="M33.79,8.48c0.06,0.26,0.12,0.53,0.18,0.79"/>
		<path class="st0" d="M1.58,27.02c0.25,0.2,0.5,0.41,0.75,0.61"/>
		<path class="st0" d="M5.66,33.7c0.11,0.35,0.3,0.67,0.47,1"/>
		<path class="st0" d="M9.9,25.37c0.01,0.08,0.09,0.12,0.08,0.22c-0.04,0.27,0.09,0.48,0.28,0.64c0.28,0.24,0.42,0.55,0.5,0.9"/>
		<path class="st0" d="M10.04,26.05c-0.28,0.02-0.52-0.14-0.79-0.18"/>
		<path class="st0" d="M17.14,27.49c0.2,0.18,0.4,0.32,0.69,0.15c0.08-0.05,0.21-0.01,0.32-0.01"/>
		<path class="st0" d="M20.19,24.98c-0.26,0.61-0.81,0.7-1.36,0.79c-0.09,0.01-0.17,0.07-0.25,0.1"/>
		<path class="st0" d="M43.19,23.79c-0.06,0.01-0.14,0.03-0.1,0.11c0.13,0.25,0.13,0.53,0.21,0.79"/>
		<path class="st0" d="M38.2,26.81c0.23,0.26,0.48,0.29,0.75,0.07"/>
		<path class="st0" d="M38.17,26.74c-0.11,0-0.22,0-0.32,0c-0.3,0.01-0.39,0.1-0.32,0.39c0.04,0.16,0,0.33,0.1,0.47"/>
		<path class="st0" d="M33,26.23c-0.26,0.02-0.47,0.26-0.75,0.14"/>
		<path class="st0" d="M31.06,19.27c-0.2,0.2-0.47,0.2-0.72,0.25"/>
		<path class="st0" d="M7.15,34.38c0.23,0.13,0.47,0.14,0.72,0.04"/>
		<path class="st0" d="M20.09,28.53c0.07,0.23,0.13,0.47,0.11,0.72"/>
		<path class="st0" d="M34.15,6.65c-0.37-0.06-0.43,0.19-0.47,0.47"/>
		<path class="st0" d="M11.69,18.34c0.09,0.23,0.21,0.46,0.11,0.72"/>
		<path class="st0" d="M15.14,29.86c-0.06,0.02-0.12,0.07-0.18,0.07c-0.57,0.01-0.65,0.44-0.75,0.86"/>
		<path class="st0" d="M18.87,16.69c0.2,0.2,0.21,0.49,0.36,0.72"/>
		<path class="st0" d="M38.81,18.2c-0.26-0.04-0.49,0.15-0.75,0.07"/>
		<path class="st0" d="M15.14,21.93c0.24,0.11,0.48,0.22,0.72,0.32"/>
		<path class="st0" d="M43.55,35.74c-0.21,0.16-0.43,0.31-0.72,0.29"/>
		<path class="st0" d="M32.6,12.6c0.01,0.28,0.22,0.44,0.36,0.65c0.06,0.09,0.18,0.09,0.25,0.07c0.23-0.07,0.41,0.01,0.58,0.15"/>
		<path class="st0" d="M39.67,8.66c-0.23-0.02-0.44,0.17-0.68,0.07"/>
		<path class="st0" d="M46.49,33.55c0.02,0.23-0.04,0.46,0.04,0.68"/>
		<path class="st0" d="M12.27,38.54c-0.28-0.1-0.43,0.23-0.68,0.22"/>
		<path class="st0" d="M29.13,35.06c0.16,0.2,0.13,0.47,0.25,0.68"/>
		<path class="st0" d="M28.16,6.15c0.08,0.3,0.31,0.47,0.54,0.65"/>
		<path class="st0" d="M11.69,19.1c0.24,0.17,0.08,0.44,0.18,0.65"/>
		<path class="st0" d="M18.65,14.25c0.12,0.24,0.43,0.34,0.47,0.65"/>
		<path class="st0" d="M8.25,23.79c-0.04,0.22-0.07,0.43-0.11,0.65"/>
		<path class="st0" d="M25.68,12.96c0.09,0.27,0.28,0.5,0.32,0.79"/>
		<path class="st0" d="M33.57,31.76c0.16-0.07,0.3-0.03,0.39,0.11c0.11,0.15,0.27,0.17,0.43,0.21"/>
		<path class="st0" d="M15.06,24.66c-0.46,0.25-0.47,0.26-0.86-0.11c-0.13-0.12-0.24-0.11-0.36-0.06c-0.12,0.04-0.22,0.13-0.36,0.1"
			/>
		<path class="st0" d="M28.98,26.66c-0.12,0.16-0.32,0.08-0.47,0.12c-0.19,0.06-0.33,0.14-0.46,0.27"/>
		<path class="st0" d="M47.64,23.58c-0.21-0.02-0.43,0.05-0.65-0.04"/>
		<path class="st0" d="M9.54,24.01c0.12,0.24,0.26,0.46,0.47,0.65"/>
		<path class="st0" d="M28.34,7.65c-0.2,0.13-0.43,0.05-0.65,0.07"/>
		<path class="st0" d="M44.94,27.92c-0.5,0-1.01,0.03-1.51-0.07"/>
		<path class="st0" d="M47.35,32.04c0.02,0.24-0.02,0.45-0.22,0.61"/>
		<path class="st0" d="M37.09,23.33c0.31,0.12,0.55,0.41,0.93,0.32"/>
		<path class="st0" d="M12.05,35.06c0,0.21,0.02,0.41-0.07,0.61"/>
		<path class="st0" d="M28.55,9.55c-0.2,0.16-0.31,0.43-0.61,0.47"/>
		<path class="st0" d="M43.04,23.9c-0.22,0.14-0.18,0.41-0.29,0.61"/>
		<path class="st0" d="M27.04,16.91c-0.01,0.28,0.15,0.5,0.23,0.75c0.05,0.17,0.27,0.15,0.42,0.18"/>
		<path class="st0" d="M17.25,27.45c0.19-0.1,0.09-0.25,0.03-0.36c-0.09-0.15-0.25-0.28-0.42-0.21c-0.22,0.08-0.43,0.05-0.65,0.06"
			/>
		<path class="st0" d="M21.02,33.73c0.01,0.2-0.04,0.42,0.07,0.61"/>
		<path class="st0" d="M34.97,16.33c-0.13,0.2,0.01,0.38,0.04,0.57"/>
		<path class="st0" d="M43.22,24.87c0.05,0.19,0.1,0.38,0.14,0.57"/>
		<path class="st0" d="M3.08,26.74c0.1,0.24,0.35,0.3,0.54,0.43"/>
		<path class="st0" d="M13.66,30.93c-0.1,0.17-0.39,0.19-0.36,0.47"/>
		<path class="st0" d="M10.54,25.73c-0.13,0.17-0.09,0.38-0.14,0.57"/>
		<path class="st0" d="M31.64,7.01c0.02,0.19-0.04,0.39,0.04,0.57"/>
		<path class="st0" d="M19.62,25.48c-0.19-0.14-0.38-0.29-0.57-0.43"/>
		<path class="st0" d="M26.65,17.44c0.17,0.13,0.36,0.18,0.57,0.18"/>
		<path class="st0" d="M29.41,19.2c-0.07,0.38-0.31,0.67-0.54,0.97"/>
		<path class="st0" d="M34.65,20.42c0.02,0.19-0.04,0.39,0.04,0.57"/>
		<path class="st0" d="M27.19,8.08c-0.12,0.22-0.34,0.29-0.54,0.39"/>
		<path class="st0" d="M26.4,7.97c0.06,0.19,0.12,0.38,0.18,0.57"/>
		<path class="st0" d="M14.63,24.22c-0.06,0.18-0.12,0.36-0.18,0.54"/>
		<path class="st0" d="M45.91,34.34c-0.06,0.18-0.16,0.34-0.14,0.54"/>
		<path class="st0" d="M39.28,8.15c-0.21,0.21-0.2,0.57-0.5,0.72"/>
		<path class="st0" d="M41.61,15.4c0.05,0.18,0.1,0.36,0.14,0.54"/>
		<path class="st0" d="M33.57,19.99c-0.16,0.12-0.31,0.27-0.54,0.22"/>
		<path class="st0" d="M34.43,13.39c-0.12,0.18-0.25,0.35-0.5,0.18"/>
		<path class="st0" d="M27.98,6.11c-0.14,0.16-0.04,0.36-0.07,0.54"/>
		<path class="st0" d="M39.24,7.15c0.01,0.18-0.03,0.37,0.07,0.54"/>
		<path class="st0" d="M45.41,21.64c-0.01,0.17-0.02,0.33-0.04,0.5"/>
		<path class="st0" d="M43.04,15.83c-0.16-0.08-0.35,0.02-0.5-0.11"/>
		<path class="st0" d="M18.58,23.61c-0.13-0.17-0.28-0.28-0.5-0.18"/>
		<path class="st0" d="M22.81,29.53c0.11,0.16,0.08,0.33,0.04,0.5"/>
		<path class="st0" d="M14.92,37.71c0.09,0.2,0.33,0.28,0.39,0.5"/>
		<path class="st0" d="M6.06,15.53c0.1,0.2,0.28,0.2,0.48,0.18c-0.09-0.16-0.18-0.31-0.27-0.47"/>
		<path class="st0" d="M38.2,14.32c0.17,0.02,0.33,0.05,0.5,0.07"/>
		<path class="st0" d="M28.59,24.51c-0.4-0.05-0.8-0.07-1.18-0.18"/>
		<path class="st0" d="M36.66,20.06c-0.12,0.15-0.06,0.33-0.07,0.5"/>
		<path class="st0" d="M27.91,24.51c0,0.18,0.18,0.31,0.14,0.5"/>
		<path class="st0" d="M12.41,25.87c0.01,0.17,0.19,0.35-0.04,0.5"/>
		<path class="st0" d="M18.83,22.75c-0.15,0.07-0.31,0.02-0.47,0.04"/>
		<path class="st0" d="M11.4,38.65c0.08,0.07,0.16,0.13,0.22,0.18c-0.05,0.23-0.27,0.14-0.37,0.25"/>
		<path class="st0" d="M24.21,2.52c0.15,0.12,0.09,0.32,0.18,0.47"/>
		<path class="st0" d="M17.93,23.72c0.17,0.04,0.13,0.27,0.29,0.32c0.14-0.06,0.32-0.01,0.43-0.14"/>
		<path class="st0" d="M33.93,20.35c-0.16,0.13-0.31,0.26-0.47,0.39"/>
		<path class="st0" d="M17.14,26.52c0.15,0.13,0.21,0.27,0.04,0.43"/>
		<path class="st0" d="M19.8,28.74c-0.02,0.15,0.05,0.32-0.04,0.47"/>
		<path class="st0" d="M43.12,30.04c0.03,0.17-0.09,0.31-0.11,0.47"/>
		<path class="st0" d="M15.78,37.64c0.19,0.07,0.21,0.26,0.32,0.39"/>
		<path class="st0" d="M31.49,5.57c0.14,0.1,0.29-0.01,0.43,0"/>
		<path class="st0" d="M8.07,25.01C8,25.16,7.92,25.3,7.85,25.44"/>
		<path class="st0" d="M11.51,35.06c0.14,0.14,0.29,0.29,0.43,0.43"/>
		<path class="st0" d="M38.02,11.74c0.05,0.19-0.25,0.23-0.18,0.43"/>
		<path class="st0" d="M30.06,19.45c-0.1,0.15-0.32,0.12-0.43,0.25"/>
		<path class="st0" d="M40.1,21.86c-0.19,0.06-0.21,0.29-0.36,0.39"/>
		<path class="st0" d="M35.94,24.15c-0.13,0.07-0.28,0.11-0.36,0.25"/>
		<path class="st0" d="M35.8,14.11c-0.01,0.13,0.02,0.27-0.04,0.39"/>
		<path class="st0" d="M29.99,8.94c0.1,0.11,0.13,0.25,0.11,0.39"/>
		<path class="st0" d="M39.82,13.03c-0.02,0.13-0.05,0.26-0.07,0.39"/>
		<path class="st0" d="M34.65,13.75c-0.15,0.08-0.25,0.2-0.32,0.36"/>
		<path class="st0" d="M37.77,17.84c0.12,0.11,0.21,0.23,0.25,0.39"/>
		<path class="st0" d="M25.83,5.5c0.13,0.1,0.26,0.19,0.39,0.29"/>
		<path class="st0" d="M38.17,7.87c0.16,0.33,0.06,0.67,0.04,1c0,0.05-0.02,0.11,0.03,0.14"/>
		<path class="st0" d="M27.4,16.66c0.15,0.08,0.14,0.3,0.32,0.36"/>
		<path class="st0" d="M12.19,37.86c0.08,0.15,0.2,0.25,0.36,0.32"/>
		<path class="st0" d="M32.5,23.87c0,0.13,0,0.26,0,0.39"/>
		<path class="st0" d="M40.07,20.28c0.1,0.12,0.1,0.3,0.25,0.39"/>
		<path class="st0" d="M22.95,16.17c0.01,0.14-2.15,0.76-2.21,0.88"/>
		<path class="st0" d="M30.2,6.5c-0.12,0-0.24,0-0.36,0"/>
		<path class="st0" d="M3.01,33.66c-0.13,0.11-0.23-0.08-0.36-0.04"/>
		<path class="st0" d="M19.76,24.69c-0.08-0.11-0.18-0.18-0.32-0.18"/>
		<path class="st0" d="M33.29,24.26c0.12,0.06,0.24,0.12,0.36,0.18"/>
		<path class="st0" d="M44.26,27.99c0.09,0.13,0.34,0.13,0.32,0.36"/>
		<path class="st0" d="M26.9,11.71c0.15-0.24,0.39-0.28,0.65-0.25"/>
		<path class="st0" d="M11.48,19.7c0.1,0.11,0.19,0.22,0.29,0.32"/>
		<path class="st0" d="M35.26,22.97c0.01,0.11,0.02,0.22,0.04,0.32"/>
		<path class="st0" d="M33.86,9.41c-0.11,0.02-0.22,0.05-0.32,0.07"/>
		<path class="st0" d="M19.91,22.86c-0.11,0-0.22,0-0.32,0"/>
		<path class="st0" d="M10.83,23.08c-0.23,0.09-0.46,0.19-0.43,0.5"/>
		<path class="st0" d="M40.25,12.6c-0.21,0.02-0.37,0.13-0.5,0.29"/>
		<path class="st0" d="M12.43,12.3c0.14,0.13,0.18,0.4,0.47,0.32"/>
		<path class="st0" d="M19.51,30.39c0.04,0.1,0.07,0.19,0.11,0.29"/>
		<path class="st0" d="M31.85,13.43c0.13-0.16,0.29,0.02,0.43-0.04"/>
		<path class="st0" d="M18.29,14.83c0.09,0.04,0.17,0.09,0.22,0.18"/>
		<path class="st0" d="M46.52,23.29c0.08,0.06,0.17,0.12,0.25,0.18"/>
		<path class="st0" d="M32.75,29.14c0.12,0.07,0.29,0.02,0.39,0.14"/>
		<path class="st0" d="M8.03,14.9c0.14,0.1,0.02,0.28,0.11,0.39"/>
		<path class="st0" d="M16.35,13.27c0.14,0.16,0.29,0.07,0.43,0"/>
		<path class="st0" d="M33.47,12.17c0.13,0.12,0.26,0.24,0.39,0.36"/>
		<path class="st1" d="M27.29,38.39c0,1.71,0,3.41,0,5.12c0,0.48,0,0.96,0.05,1.43c0.17,1.75,0.98,3.47,0.68,5.2"/>
		<path class="st1" d="M24.03,37.46c0.2,2.04,0.05,4.1-0.09,6.15c-0.07,0.97-0.14,1.95-0.2,2.92c-0.1,1.37-0.24,2.86-1.2,3.84"/>
		<path class="st1" d="M25.96,34.54c-0.24,0.36-0.38,0.78-0.43,1.21"/>
		<path class="st1" d="M25.73,36.57c-0.15,0.54-0.24,1.1-0.27,1.66"/>
		<path class="st0" d="M25.67,29.63c-0.04,0.15-0.07,0.29-0.11,0.44c-0.14,0.58-0.05,4.9-0.19,5.48"/>
		<path class="st0" d="M25.42,35.72c-0.4-0.04-0.73-0.37-0.89-0.75c-0.16-0.37-0.2-0.78-0.26-1.18c-0.17-1.15-0.53-2.28-1.08-3.31"
			/>
		<path class="st0" d="M25.8,34.35c0.98-0.7,1.71-1.73,2.05-2.89"/>
		<path class="st0" d="M26.77,27.05c-0.33,0.12-0.6-0.28-0.72-0.61c-0.36-1-0.6-2.04-0.74-3.1"/>
	</g>
</g>
</svg>
