<?xml version="1.0" encoding="utf-8"?>
<!-- Generator: Adobe Illustrator 28.1.0, SVG Export Plug-In . SVG Version: 6.00 Build 0)  -->
<svg version="1.1" xmlns="http://www.w3.org/2000/svg" xmlns:xlink="http://www.w3.org/1999/xlink" x="0px" y="0px"
	 viewBox="0 0 50 50" style="enable-background:new 0 0 50 50;" xml:space="preserve">
<style type="text/css">
	.st0{fill:#FBF8F3;}
	.st1{fill:none;stroke:#000000;stroke-width:0.7488;stroke-linecap:round;stroke-linejoin:round;stroke-miterlimit:10;}
</style>
<g id="Layer_437">
</g>
<g id="Layer_436">
</g>
<g id="Layer_435">
</g>
<g id="Layer_434">
</g>
<g id="Layer_433">
</g>
<g id="Layer_432">
</g>
<g id="Layer_431">
</g>
<g id="Layer_430">
</g>
<g id="Layer_429">
</g>
<g id="Layer_428">
</g>
<g id="Layer_427">
</g>
<g id="Layer_426">
</g>
<g id="Layer_425">
</g>
<g id="Layer_424">
</g>
<g id="Layer_423">
</g>
<g id="Layer_422">
</g>
<g id="Layer_421">
</g>
<g id="Layer_420">
</g>
<g id="Layer_419">
</g>
<g id="Layer_418">
</g>
<g id="Layer_417">
</g>
<g id="Layer_416">
</g>
<g id="Layer_415">
</g>
<g id="Layer_414">
</g>
<g id="Layer_413">
</g>
<g id="Layer_412">
</g>
<g id="Layer_411">
</g>
<g id="Layer_410">
</g>
<g id="Layer_409">
</g>
<g id="Layer_408">
</g>
<g id="Layer_407">
</g>
<g id="Layer_406">
</g>
<g id="Layer_405">
</g>
<g id="Layer_404">
</g>
<g id="Layer_403">
</g>
<g id="Layer_402">
</g>
<g id="Layer_401">
</g>
<g id="Layer_400">
</g>
<g id="Layer_399">
</g>
<g id="Layer_398">
</g>
<g id="Layer_397">
</g>
<g id="Layer_396">
</g>
<g id="Layer_395">
</g>
<g id="Layer_394">
</g>
<g id="Layer_393">
</g>
<g id="Layer_392">
</g>
<g id="Layer_391">
</g>
<g id="Layer_390">
</g>
<g id="Layer_389">
</g>
<g id="Layer_388">
</g>
<g id="Layer_387">
</g>
<g id="Layer_386">
</g>
<g id="Layer_385">
</g>
<g id="Layer_384">
</g>
<g id="Layer_383">
</g>
<g id="Layer_382">
</g>
<g id="Layer_381">
</g>
<g id="Layer_380">
</g>
<g id="Layer_379">
</g>
<g id="Layer_378">
</g>
<g id="Layer_377">
</g>
<g id="Layer_376">
</g>
<g id="Layer_375">
</g>
<g id="Layer_374">
</g>
<g id="Layer_373">
</g>
<g id="Layer_372">
</g>
<g id="Layer_371">
</g>
<g id="Layer_370">
</g>
<g id="Layer_369">
</g>
<g id="Layer_368">
</g>
<g id="Layer_367">
</g>
<g id="Layer_366">
</g>
<g id="Layer_365">
</g>
<g id="Layer_364">
</g>
<g id="Layer_363">
</g>
<g id="Layer_362">
</g>
<g id="Layer_361">
</g>
<g id="Layer_360">
</g>
<g id="Layer_359">
</g>
<g id="Layer_358">
</g>
<g id="Layer_357">
</g>
<g id="Layer_356">
</g>
<g id="Layer_355">
</g>
<g id="Layer_354">
</g>
<g id="Layer_353">
</g>
<g id="Layer_352">
</g>
<g id="Layer_351">
</g>
<g id="Layer_350">
</g>
<g id="Layer_349">
</g>
<g id="Layer_348">
</g>
<g id="Layer_347">
</g>
<g id="Layer_346">
</g>
<g id="Layer_345">
</g>
<g id="Layer_344">
</g>
<g id="Layer_343">
</g>
<g id="Layer_342">
</g>
<g id="Layer_341">
</g>
<g id="Layer_340">
</g>
<g id="Layer_339">
</g>
<g id="Layer_338">
</g>
<g id="Layer_337">
</g>
<g id="Layer_336">
</g>
<g id="Layer_335">
</g>
<g id="Layer_334">
</g>
<g id="Layer_333">
</g>
<g id="Layer_332">
</g>
<g id="Layer_331">
</g>
<g id="Layer_330">
</g>
<g id="Layer_329">
</g>
<g id="Layer_328">
</g>
<g id="Layer_327">
</g>
<g id="Layer_326">
</g>
<g id="Layer_325">
</g>
<g id="Layer_324">
</g>
<g id="Layer_323">
</g>
<g id="Layer_322">
</g>
<g id="Layer_321">
</g>
<g id="Layer_320">
</g>
<g id="Layer_319">
</g>
<g id="Layer_318">
</g>
<g id="Layer_317">
</g>
<g id="Layer_316">
</g>
<g id="Layer_315">
</g>
<g id="Layer_314">
</g>
<g id="Layer_313">
</g>
<g id="Layer_312">
</g>
<g id="Layer_311">
</g>
<g id="Layer_310">
</g>
<g id="Layer_309">
</g>
<g id="Layer_308">
</g>
<g id="Layer_307">
</g>
<g id="Layer_306">
</g>
<g id="Layer_305">
</g>
<g id="Layer_304">
</g>
<g id="Layer_303">
</g>
<g id="Layer_302">
</g>
<g id="Layer_301">
</g>
<g id="Layer_300">
</g>
<g id="Layer_299">
</g>
<g id="Layer_298">
</g>
<g id="Layer_297">
</g>
<g id="Layer_296">
</g>
<g id="Layer_295">
</g>
<g id="Layer_294">
</g>
<g id="Layer_293">
</g>
<g id="Layer_292">
</g>
<g id="Layer_291">
</g>
<g id="Layer_290">
</g>
<g id="Layer_289">
</g>
<g id="Layer_288">
</g>
<g id="Layer_287">
</g>
<g id="Layer_286">
</g>
<g id="Layer_285">
</g>
<g id="Layer_284">
</g>
<g id="Layer_283">
</g>
<g id="Layer_282">
</g>
<g id="Layer_281">
</g>
<g id="Layer_280">
</g>
<g id="Layer_279">
</g>
<g id="Layer_278">
</g>
<g id="Layer_277">
</g>
<g id="Layer_276">
</g>
<g id="Layer_275">
</g>
<g id="Layer_274">
</g>
<g id="Layer_273">
</g>
<g id="Layer_272">
</g>
<g id="Layer_271">
</g>
<g id="Layer_270">
</g>
<g id="Layer_269">
</g>
<g id="Layer_268">
</g>
<g id="Layer_267">
</g>
<g id="Layer_266">
</g>
<g id="Layer_265">
</g>
<g id="Layer_264">
</g>
<g id="Layer_263">
</g>
<g id="Layer_262">
</g>
<g id="Layer_261">
</g>
<g id="Layer_260">
</g>
<g id="Layer_259">
</g>
<g id="Layer_258">
</g>
<g id="Layer_257">
</g>
<g id="Layer_256">
</g>
<g id="Layer_255">
</g>
<g id="Layer_254">
</g>
<g id="Layer_253">
</g>
<g id="Layer_252">
</g>
<g id="Layer_251">
</g>
<g id="Layer_250">
</g>
<g id="Layer_249">
</g>
<g id="Layer_248">
</g>
<g id="Layer_247">
</g>
<g id="Layer_246">
</g>
<g id="Layer_245">
</g>
<g id="Layer_244">
</g>
<g id="Layer_243">
</g>
<g id="Layer_242">
</g>
<g id="Layer_241">
</g>
<g id="Layer_240">
</g>
<g id="Layer_239">
</g>
<g id="Layer_238">
</g>
<g id="Layer_237">
</g>
<g id="Layer_236">
</g>
<g id="Layer_235">
</g>
<g id="Layer_234">
</g>
<g id="Layer_233">
</g>
<g id="Layer_232">
</g>
<g id="Layer_231">
</g>
<g id="Layer_230">
</g>
<g id="Layer_229">
</g>
<g id="Layer_228">
</g>
<g id="Layer_227">
</g>
<g id="Layer_226">
</g>
<g id="Layer_225">
</g>
<g id="Layer_224">
</g>
<g id="Layer_223">
</g>
<g id="Layer_222">
</g>
<g id="Layer_221">
</g>
<g id="Layer_220">
</g>
<g id="Layer_219">
</g>
<g id="Layer_218">
</g>
<g id="Layer_217">
</g>
<g id="Layer_216">
</g>
<g id="Layer_215">
</g>
<g id="Layer_214">
</g>
<g id="Layer_213">
</g>
<g id="Layer_212">
</g>
<g id="Layer_211">
</g>
<g id="Layer_210">
</g>
<g id="Layer_209">
</g>
<g id="Layer_208">
</g>
<g id="Layer_207">
</g>
<g id="Layer_206">
</g>
<g id="Layer_205">
</g>
<g id="Layer_204">
</g>
<g id="Layer_203">
</g>
<g id="Layer_202">
</g>
<g id="Layer_201">
</g>
<g id="Layer_200">
</g>
<g id="Layer_199">
</g>
<g id="Layer_198">
</g>
<g id="Layer_197">
</g>
<g id="Layer_196">
</g>
<g id="Layer_195">
</g>
<g id="Layer_194">
</g>
<g id="Layer_193">
</g>
<g id="Layer_192">
</g>
<g id="Layer_191">
</g>
<g id="Layer_190">
</g>
<g id="Layer_189">
</g>
<g id="Layer_188">
</g>
<g id="Layer_187">
</g>
<g id="Layer_186">
</g>
<g id="Layer_185">
</g>
<g id="Layer_184">
</g>
<g id="Layer_183">
</g>
<g id="Layer_182">
</g>
<g id="Layer_181">
</g>
<g id="Layer_180">
</g>
<g id="Layer_179">
</g>
<g id="Layer_178">
</g>
<g id="Layer_177">
</g>
<g id="Layer_176">
</g>
<g id="Layer_175">
</g>
<g id="Layer_174">
</g>
<g id="Layer_173">
</g>
<g id="Layer_172">
</g>
<g id="Layer_171">
</g>
<g id="Layer_170">
</g>
<g id="Layer_169">
</g>
<g id="Layer_168">
</g>
<g id="Layer_167">
</g>
<g id="Layer_166">
</g>
<g id="Layer_165">
</g>
<g id="Layer_164">
</g>
<g id="Layer_163">
</g>
<g id="Layer_162">
</g>
<g id="Layer_161">
</g>
<g id="Layer_160">
</g>
<g id="Layer_159">
</g>
<g id="Layer_158">
</g>
<g id="Layer_157">
</g>
<g id="Layer_156">
</g>
<g id="Layer_155">
</g>
<g id="Layer_154">
</g>
<g id="Layer_153">
</g>
<g id="Layer_152">
</g>
<g id="Layer_151">
</g>
<g id="Layer_150">
</g>
<g id="Layer_149">
</g>
<g id="Layer_148">
</g>
<g id="Layer_147">
</g>
<g id="Layer_146">
</g>
<g id="Layer_145">
</g>
<g id="Layer_144">
</g>
<g id="Layer_143">
</g>
<g id="Layer_142">
</g>
<g id="Layer_141">
</g>
<g id="Layer_140">
</g>
<g id="Layer_139">
</g>
<g id="Layer_138">
</g>
<g id="Layer_137">
</g>
<g id="Layer_136">
</g>
<g id="Layer_135">
</g>
<g id="Layer_134">
</g>
<g id="Layer_133">
</g>
<g id="Layer_132">
</g>
<g id="Layer_131">
</g>
<g id="Layer_130">
</g>
<g id="Layer_129">
</g>
<g id="Layer_128">
</g>
<g id="Layer_127">
</g>
<g id="Layer_126">
</g>
<g id="Layer_125">
</g>
<g id="Layer_124">
</g>
<g id="Layer_123">
</g>
<g id="Layer_122">
</g>
<g id="Layer_121">
</g>
<g id="Layer_120">
</g>
<g id="Layer_119">
</g>
<g id="Layer_118">
</g>
<g id="Layer_117">
</g>
<g id="Layer_116">
</g>
<g id="Layer_115">
</g>
<g id="Layer_114">
</g>
<g id="Layer_113">
</g>
<g id="Layer_112">
</g>
<g id="Layer_111">
</g>
<g id="Layer_110">
</g>
<g id="Layer_109">
</g>
<g id="Layer_108">
</g>
<g id="Layer_107">
</g>
<g id="Layer_106">
</g>
<g id="Layer_105">
</g>
<g id="Layer_104">
</g>
<g id="Layer_103">
</g>
<g id="Layer_102">
</g>
<g id="Layer_101">
</g>
<g id="Layer_100">
</g>
<g id="Layer_99">
</g>
<g id="Layer_98">
</g>
<g id="Layer_97">
</g>
<g id="Layer_96">
</g>
<g id="Layer_95">
</g>
<g id="Layer_94">
</g>
<g id="Layer_93">
</g>
<g id="Layer_92">
</g>
<g id="Layer_91">
</g>
<g id="Layer_90">
</g>
<g id="Layer_89">
</g>
<g id="Layer_88">
</g>
<g id="Layer_87">
</g>
<g id="Layer_86">
</g>
<g id="Layer_85">
</g>
<g id="Layer_84">
</g>
<g id="Layer_83">
</g>
<g id="Layer_82">
</g>
<g id="Layer_81">
</g>
<g id="Layer_80">
</g>
<g id="Layer_79">
</g>
<g id="Layer_78">
</g>
<g id="Layer_77">
</g>
<g id="Layer_76">
</g>
<g id="Layer_75">
</g>
<g id="Layer_74">
</g>
<g id="Layer_73">
</g>
<g id="Layer_72">
</g>
<g id="Layer_71">
</g>
<g id="Layer_70">
</g>
<g id="Layer_69">
</g>
<g id="Layer_68">
</g>
<g id="Layer_67">
</g>
<g id="Layer_66">
</g>
<g id="Layer_65">
</g>
<g id="Layer_64">
</g>
<g id="Layer_63">
</g>
<g id="Layer_62">
</g>
<g id="Layer_61">
</g>
<g id="Layer_60">
</g>
<g id="Layer_59">
</g>
<g id="Layer_58">
</g>
<g id="Layer_57">
</g>
<g id="Layer_56">
</g>
<g id="Layer_55">
</g>
<g id="Layer_54">
</g>
<g id="Layer_53">
</g>
<g id="Layer_52">
</g>
<g id="Layer_51">
</g>
<g id="Layer_50">
</g>
<g id="Layer_49">
</g>
<g id="Layer_48">
</g>
<g id="Layer_47">
</g>
<g id="Layer_46">
</g>
<g id="Layer_45">
</g>
<g id="Layer_44">
</g>
<g id="Layer_43">
</g>
<g id="Layer_42">
</g>
<g id="Layer_41">
</g>
<g id="Layer_40">
</g>
<g id="Layer_39">
</g>
<g id="Layer_38">
</g>
<g id="Layer_37">
</g>
<g id="Layer_36">
</g>
<g id="Layer_35">
</g>
<g id="Layer_34">
</g>
<g id="Layer_33">
</g>
<g id="Layer_32">
</g>
<g id="Layer_31">
</g>
<g id="Layer_30">
</g>
<g id="Layer_29">
</g>
<g id="Layer_28">
</g>
<g id="Layer_27">
</g>
<g id="Layer_26">
</g>
<g id="Layer_25">
</g>
<g id="Layer_24">
</g>
<g id="Layer_23">
</g>
<g id="Layer_22">
</g>
<g id="Layer_21">
</g>
<g id="Layer_20">
</g>
<g id="Layer_19">
</g>
<g id="Layer_18">
</g>
<g id="Layer_17">
</g>
<g id="Layer_16">
</g>
<g id="Layer_15">
</g>
<g id="Layer_14">
</g>
<g id="Layer_13">
</g>
<g id="Layer_12">
</g>
<g id="Layer_11">
</g>
<g id="Layer_10">
</g>
<g id="Layer_9">
</g>
<g id="Layer_8">
</g>
<g id="Layer_7">
</g>
<g id="Layer_6">
</g>
<g id="Layer_5">
</g>
<g id="Layer_4">
</g>
<g id="Layer_3">
</g>
<g id="Layer_2">
	<path class="st0" d="M35.25,50.05H14.38c-8.04,0-14.56-6.52-14.56-14.56V14.62c0-8.04,6.52-14.56,14.56-14.56h20.87
		c8.04,0,14.56,6.52,14.56,14.56v20.87C49.82,43.53,43.3,50.05,35.25,50.05z"/>
	<g>
		<path class="st1" d="M11.37,17.51c-1.34,2.14-2.28,4.44-2.74,6.93c-0.43,2.35-0.45,4.7-0.02,7.04c0.39,2.13,1.09,4.14,2.18,6.02
			c0.16,0.28,0.4,0.48,0.66,0.65"/>
		<path class="st1" d="M33.05,38.53c-0.35,0-0.71,0-1.05,0c-0.1-0.28-0.32-0.48-0.56-0.61c-2.12-1.15-4.35-1.95-6.75-2.28
			c-1.21-0.17-2.43-0.27-3.65-0.2c-1.47,0.08-2.93,0.28-4.34,0.72c-0.41,0.13-0.85,0.19-1.24,0.38c-0.71,0.34-1.39,0.29-2.09,0.03"
			/>
		<path class="st1" d="M20.35,12.11c-0.09,0.27-0.02,0.5,0.22,0.66c0.17,0.11,0.27,0.27,0.36,0.44c1.05,1.89,1.66,3.92,1.89,6.06
			c0.22,2.06,0.03,4.1-0.57,6.09c-0.16,0.53-0.37,1.06-0.23,1.64"/>
		<path class="st1" d="M21.19,28.75c-0.24,0.22-0.41,0.49-0.52,0.81c0.35,0.54,0.91,0.79,1.47,1.04c1.23,0.57,2.5,0.99,3.83,1.25
			c2.31,0.46,4.61,0.39,6.9-0.16c1.4-0.34,2.75-0.83,3.98-1.59c0.21-0.13,0.37-0.29,0.48-0.51c-0.14-0.33-0.41-0.51-0.7-0.66
			c-1.65-0.88-3.41-1.48-5.26-1.74c-1.22-0.18-2.45-0.21-3.69-0.1c-1.35,0.13-2.66,0.39-3.94,0.85c-0.41,0.15-0.83,0.01-1.24-0.1
			c-0.1-0.03-0.19-0.07-0.29-0.11"/>
		<path class="st1" d="M32.02,38.57c-0.42,0.62-1.09,0.86-1.72,1.16c-1.3,0.63-2.67,1.11-4.09,1.42c-0.96,0.21-1.93,0.36-2.92,0.43
			c-0.65,0.04-1.29,0.06-1.94,0.05c-1.53-0.03-3.04-0.27-4.52-0.65c-0.42-0.11-0.83-0.26-1.24-0.4c-0.12-0.04-0.24-0.09-0.37-0.05"
			/>
		<path class="st1" d="M13.16,20.69c-0.03,0.2,0.04,0.37,0.11,0.55c0.64,1.65,1,3.36,1.16,5.11c0.27,2.88-0.16,5.67-1.13,8.39
			c-0.13,0.37-0.16,0.72-0.1,1.1"/>
		<path class="st1" d="M12.28,37.66c-0.23,0.16-0.45,0.34-0.7,0.46c-0.09,0.04-0.15,0.09-0.17,0.16c-0.15,0.41-0.47,0.69-0.77,0.98
			c-1.25,1.25-2.51,2.5-3.75,3.77c-0.14,0.14-0.26,0.05-0.37,0.12"/>
		<path class="st1" d="M43.48,6.86c-0.04,0-0.07,0-0.11,0c-0.43-0.05-0.55,0.55-0.99,0.48c-0.49-0.08-0.91,0.13-1.35,0.28
			c-0.47,0.16-0.91,0.37-1.34,0.6c-1.68,0.89-3.1,2.11-4.23,3.64c-0.73,0.98-1.3,2.06-1.71,3.21c-0.06,0.18-0.12,0.36-0.16,0.54
			c-0.14,0.67-0.43,1.23-0.97,1.69c-0.68,0.59-1.3,1.25-1.94,1.89"/>
		<path class="st1" d="M28.56,8.21c-0.56,0.35-0.78,0.94-1.01,1.5c-0.48,1.13-0.79,2.32-0.91,3.54c-0.16,1.64-0.03,3.26,0.46,4.85
			c0.2,0.65,0.44,1.28,0.73,1.9c0.19,0.41,0.44,0.76,0.84,0.98"/>
		<path class="st1" d="M20.31,12.62c-0.29,0.13-0.48,0.37-0.61,0.62c-0.95,1.8-1.6,3.7-1.82,5.73c-0.22,2.04-0.13,4.07,0.43,6.06
			c0.01,0.02,0.02,0.04,0.04,0.05"/>
		<path class="st1" d="M42.68,21.34c-0.17,0-0.34,0-0.51,0c-0.26,0-0.47,0-0.68-0.28c-0.26-0.37-0.74-0.48-1.15-0.67
			c-1.86-0.84-3.82-1.12-5.84-1.02c-0.86,0.04-1.72,0.2-2.55,0.44c-0.59,0.17-1.12,0.07-1.65-0.19"/>
		<path class="st1" d="M28.59,7.44c-0.01,0.16-0.03,0.32-0.04,0.47c-0.01,0.13-0.03,0.28,0.11,0.36c0.51,0.3,0.65,0.84,0.87,1.32
			c0.49,1.07,0.79,2.2,0.94,3.36c0.12,0.93,0.14,1.87,0.03,2.81c-0.09,0.77-0.23,1.52-0.42,2.26c-0.11,0.45-0.05,0.87,0.12,1.28
			c0.09,0.23,0.09,0.39-0.11,0.55c-0.43,0.35-0.75,0.82-1.28,1.06c-0.26,0.12-0.23,0.41-0.26,0.65"/>
		<path class="st1" d="M41.69,21.38c-0.16,0.29-0.4,0.48-0.69,0.62c-1.29,0.65-2.65,1.08-4.09,1.25c-0.51,0.06-1.03,0.13-1.53,0.11
			c-1.05-0.04-2.12-0.09-3.14-0.41c-0.15-0.05-0.32-0.07-0.47-0.11c-0.01-0.16-0.02-0.32-0.03-0.48"/>
		<path class="st1" d="M20.64,29.59c-0.36,0.1-0.65,0.32-0.91,0.58c-1.97,1.96-3.94,3.92-5.91,5.88"/>
		<path class="st1" d="M42.57,7.4c0.16,0.49-0.01,0.94-0.18,1.39c-0.68,1.82-1.72,3.39-3.14,4.71c-0.09,0.08-0.17,0.17-0.26,0.25"/>
		<path class="st1" d="M26.4,23.53c-0.79,0.78-1.58,1.56-2.37,2.34c-0.46,0.45-0.92,0.9-1.39,1.35"/>
	</g>
</g>
</svg>
