<?xml version="1.0" encoding="utf-8"?>
<!-- Generator: Adobe Illustrator 28.1.0, SVG Export Plug-In . SVG Version: 6.00 Build 0)  -->
<svg version="1.1" xmlns="http://www.w3.org/2000/svg" xmlns:xlink="http://www.w3.org/1999/xlink" x="0px" y="0px"
	 viewBox="0 0 50 50" style="enable-background:new 0 0 50 50;" xml:space="preserve">
<style type="text/css">
	.st0{fill:#F4ECDF;}
	.st1{fill:none;stroke:#000000;stroke-width:0.5;stroke-miterlimit:10;}
</style>
<g id="Layer_437">
</g>
<g id="Layer_436">
</g>
<g id="Layer_435">
</g>
<g id="Layer_434">
</g>
<g id="Layer_433">
</g>
<g id="Layer_432">
</g>
<g id="Layer_431">
</g>
<g id="Layer_430">
</g>
<g id="Layer_429">
</g>
<g id="Layer_428">
</g>
<g id="Layer_427">
</g>
<g id="Layer_426">
</g>
<g id="Layer_425">
</g>
<g id="Layer_424">
</g>
<g id="Layer_423">
</g>
<g id="Layer_422">
</g>
<g id="Layer_421">
</g>
<g id="Layer_420">
</g>
<g id="Layer_419">
</g>
<g id="Layer_418">
</g>
<g id="Layer_417">
</g>
<g id="Layer_416">
</g>
<g id="Layer_415">
</g>
<g id="Layer_414">
</g>
<g id="Layer_413">
</g>
<g id="Layer_412">
</g>
<g id="Layer_411">
</g>
<g id="Layer_410">
</g>
<g id="Layer_409">
</g>
<g id="Layer_408">
</g>
<g id="Layer_407">
</g>
<g id="Layer_406">
</g>
<g id="Layer_405">
</g>
<g id="Layer_404">
</g>
<g id="Layer_403">
</g>
<g id="Layer_402">
</g>
<g id="Layer_401">
</g>
<g id="Layer_400">
</g>
<g id="Layer_399">
</g>
<g id="Layer_398">
</g>
<g id="Layer_397">
</g>
<g id="Layer_396">
</g>
<g id="Layer_395">
</g>
<g id="Layer_394">
</g>
<g id="Layer_393">
</g>
<g id="Layer_392">
</g>
<g id="Layer_391">
</g>
<g id="Layer_390">
</g>
<g id="Layer_389">
</g>
<g id="Layer_388">
</g>
<g id="Layer_387">
</g>
<g id="Layer_386">
</g>
<g id="Layer_385">
</g>
<g id="Layer_384">
</g>
<g id="Layer_383">
</g>
<g id="Layer_382">
</g>
<g id="Layer_381">
</g>
<g id="Layer_380">
</g>
<g id="Layer_379">
</g>
<g id="Layer_378">
</g>
<g id="Layer_377">
</g>
<g id="Layer_376">
</g>
<g id="Layer_375">
</g>
<g id="Layer_374">
</g>
<g id="Layer_373">
</g>
<g id="Layer_372">
</g>
<g id="Layer_371">
</g>
<g id="Layer_370">
</g>
<g id="Layer_369">
</g>
<g id="Layer_368">
</g>
<g id="Layer_367">
</g>
<g id="Layer_366">
</g>
<g id="Layer_365">
</g>
<g id="Layer_364">
</g>
<g id="Layer_363">
</g>
<g id="Layer_362">
</g>
<g id="Layer_361">
</g>
<g id="Layer_360">
</g>
<g id="Layer_359">
</g>
<g id="Layer_358">
</g>
<g id="Layer_357">
</g>
<g id="Layer_356">
</g>
<g id="Layer_355">
</g>
<g id="Layer_354">
</g>
<g id="Layer_353">
</g>
<g id="Layer_352">
</g>
<g id="Layer_351">
</g>
<g id="Layer_350">
</g>
<g id="Layer_349">
</g>
<g id="Layer_348">
</g>
<g id="Layer_347">
</g>
<g id="Layer_346">
</g>
<g id="Layer_345">
</g>
<g id="Layer_344">
</g>
<g id="Layer_343">
</g>
<g id="Layer_342">
</g>
<g id="Layer_341">
</g>
<g id="Layer_340">
</g>
<g id="Layer_339">
</g>
<g id="Layer_338">
</g>
<g id="Layer_337">
</g>
<g id="Layer_336">
</g>
<g id="Layer_335">
</g>
<g id="Layer_334">
</g>
<g id="Layer_333">
</g>
<g id="Layer_332">
</g>
<g id="Layer_331">
</g>
<g id="Layer_330">
</g>
<g id="Layer_329">
</g>
<g id="Layer_328">
</g>
<g id="Layer_327">
</g>
<g id="Layer_326">
</g>
<g id="Layer_325">
</g>
<g id="Layer_324">
</g>
<g id="Layer_323">
</g>
<g id="Layer_322">
</g>
<g id="Layer_321">
</g>
<g id="Layer_320">
</g>
<g id="Layer_319">
</g>
<g id="Layer_318">
</g>
<g id="Layer_317">
</g>
<g id="Layer_316">
</g>
<g id="Layer_315">
</g>
<g id="Layer_314">
</g>
<g id="Layer_313">
</g>
<g id="Layer_312">
</g>
<g id="Layer_311">
</g>
<g id="Layer_310">
</g>
<g id="Layer_309">
</g>
<g id="Layer_308">
</g>
<g id="Layer_307">
</g>
<g id="Layer_306">
</g>
<g id="Layer_305">
</g>
<g id="Layer_304">
</g>
<g id="Layer_303">
</g>
<g id="Layer_302">
</g>
<g id="Layer_301">
</g>
<g id="Layer_300">
</g>
<g id="Layer_299">
</g>
<g id="Layer_298">
</g>
<g id="Layer_297">
</g>
<g id="Layer_296">
</g>
<g id="Layer_295">
</g>
<g id="Layer_294">
</g>
<g id="Layer_293">
</g>
<g id="Layer_292">
</g>
<g id="Layer_291">
</g>
<g id="Layer_290">
</g>
<g id="Layer_289">
</g>
<g id="Layer_288">
</g>
<g id="Layer_287">
</g>
<g id="Layer_286">
</g>
<g id="Layer_285">
</g>
<g id="Layer_284">
</g>
<g id="Layer_283">
</g>
<g id="Layer_282">
</g>
<g id="Layer_281">
</g>
<g id="Layer_280">
</g>
<g id="Layer_279">
</g>
<g id="Layer_278">
</g>
<g id="Layer_277">
</g>
<g id="Layer_276">
</g>
<g id="Layer_275">
</g>
<g id="Layer_274">
</g>
<g id="Layer_273">
</g>
<g id="Layer_272">
</g>
<g id="Layer_271">
</g>
<g id="Layer_270">
</g>
<g id="Layer_269">
</g>
<g id="Layer_268">
</g>
<g id="Layer_267">
</g>
<g id="Layer_266">
</g>
<g id="Layer_265">
</g>
<g id="Layer_264">
</g>
<g id="Layer_263">
</g>
<g id="Layer_262">
</g>
<g id="Layer_261">
</g>
<g id="Layer_260">
</g>
<g id="Layer_259">
</g>
<g id="Layer_258">
</g>
<g id="Layer_257">
</g>
<g id="Layer_256">
</g>
<g id="Layer_255">
</g>
<g id="Layer_254">
</g>
<g id="Layer_253">
</g>
<g id="Layer_252">
</g>
<g id="Layer_251">
</g>
<g id="Layer_250">
</g>
<g id="Layer_249">
</g>
<g id="Layer_248">
</g>
<g id="Layer_247">
</g>
<g id="Layer_246">
</g>
<g id="Layer_245">
</g>
<g id="Layer_244">
</g>
<g id="Layer_243">
</g>
<g id="Layer_242">
</g>
<g id="Layer_241">
</g>
<g id="Layer_240">
</g>
<g id="Layer_239">
</g>
<g id="Layer_238">
</g>
<g id="Layer_237">
</g>
<g id="Layer_236">
</g>
<g id="Layer_235">
</g>
<g id="Layer_234">
</g>
<g id="Layer_233">
</g>
<g id="Layer_232">
</g>
<g id="Layer_231">
</g>
<g id="Layer_230">
</g>
<g id="Layer_229">
</g>
<g id="Layer_228">
</g>
<g id="Layer_227">
</g>
<g id="Layer_226">
</g>
<g id="Layer_225">
</g>
<g id="Layer_224">
</g>
<g id="Layer_223">
</g>
<g id="Layer_222">
</g>
<g id="Layer_221">
</g>
<g id="Layer_220">
</g>
<g id="Layer_219">
</g>
<g id="Layer_218">
</g>
<g id="Layer_217">
</g>
<g id="Layer_216">
</g>
<g id="Layer_215">
</g>
<g id="Layer_214">
</g>
<g id="Layer_213">
</g>
<g id="Layer_212">
</g>
<g id="Layer_211">
</g>
<g id="Layer_210">
</g>
<g id="Layer_209">
</g>
<g id="Layer_208">
</g>
<g id="Layer_207">
</g>
<g id="Layer_206">
</g>
<g id="Layer_205">
</g>
<g id="Layer_204">
</g>
<g id="Layer_203">
</g>
<g id="Layer_202">
</g>
<g id="Layer_201">
</g>
<g id="Layer_200">
</g>
<g id="Layer_199">
</g>
<g id="Layer_198">
</g>
<g id="Layer_197">
</g>
<g id="Layer_196">
</g>
<g id="Layer_195">
</g>
<g id="Layer_194">
</g>
<g id="Layer_193">
</g>
<g id="Layer_192">
</g>
<g id="Layer_191">
</g>
<g id="Layer_190">
</g>
<g id="Layer_189">
</g>
<g id="Layer_188">
</g>
<g id="Layer_187">
</g>
<g id="Layer_186">
</g>
<g id="Layer_185">
</g>
<g id="Layer_184">
</g>
<g id="Layer_183">
</g>
<g id="Layer_182">
</g>
<g id="Layer_181">
</g>
<g id="Layer_180">
</g>
<g id="Layer_179">
</g>
<g id="Layer_178">
</g>
<g id="Layer_177">
</g>
<g id="Layer_176">
</g>
<g id="Layer_175">
</g>
<g id="Layer_174">
</g>
<g id="Layer_173">
</g>
<g id="Layer_172">
</g>
<g id="Layer_171">
</g>
<g id="Layer_170">
</g>
<g id="Layer_169">
</g>
<g id="Layer_168">
</g>
<g id="Layer_167">
</g>
<g id="Layer_166">
</g>
<g id="Layer_165">
</g>
<g id="Layer_164">
</g>
<g id="Layer_163">
</g>
<g id="Layer_162">
</g>
<g id="Layer_161">
</g>
<g id="Layer_160">
</g>
<g id="Layer_159">
</g>
<g id="Layer_158">
</g>
<g id="Layer_157">
</g>
<g id="Layer_156">
</g>
<g id="Layer_155">
</g>
<g id="Layer_154">
</g>
<g id="Layer_153">
</g>
<g id="Layer_152">
</g>
<g id="Layer_151">
</g>
<g id="Layer_150">
</g>
<g id="Layer_149">
</g>
<g id="Layer_148">
</g>
<g id="Layer_147">
</g>
<g id="Layer_146">
</g>
<g id="Layer_145">
</g>
<g id="Layer_144">
</g>
<g id="Layer_143">
</g>
<g id="Layer_142">
</g>
<g id="Layer_141">
</g>
<g id="Layer_140">
</g>
<g id="Layer_139">
</g>
<g id="Layer_138">
</g>
<g id="Layer_137">
</g>
<g id="Layer_136">
</g>
<g id="Layer_135">
</g>
<g id="Layer_134">
</g>
<g id="Layer_133">
</g>
<g id="Layer_132">
</g>
<g id="Layer_131">
</g>
<g id="Layer_130">
</g>
<g id="Layer_129">
</g>
<g id="Layer_128">
</g>
<g id="Layer_127">
</g>
<g id="Layer_126">
</g>
<g id="Layer_125">
</g>
<g id="Layer_124">
</g>
<g id="Layer_123">
</g>
<g id="Layer_122">
</g>
<g id="Layer_121">
</g>
<g id="Layer_120">
</g>
<g id="Layer_119">
</g>
<g id="Layer_118">
</g>
<g id="Layer_117">
</g>
<g id="Layer_116">
</g>
<g id="Layer_115">
</g>
<g id="Layer_114">
</g>
<g id="Layer_113">
</g>
<g id="Layer_112">
</g>
<g id="Layer_111">
</g>
<g id="Layer_110">
</g>
<g id="Layer_109">
</g>
<g id="Layer_108">
</g>
<g id="Layer_107">
</g>
<g id="Layer_106">
</g>
<g id="Layer_105">
</g>
<g id="Layer_104">
</g>
<g id="Layer_103">
</g>
<g id="Layer_102">
</g>
<g id="Layer_101">
</g>
<g id="Layer_100">
</g>
<g id="Layer_99">
</g>
<g id="Layer_98">
</g>
<g id="Layer_97">
</g>
<g id="Layer_96">
</g>
<g id="Layer_95">
</g>
<g id="Layer_94">
</g>
<g id="Layer_93">
</g>
<g id="Layer_92">
</g>
<g id="Layer_91">
</g>
<g id="Layer_90">
</g>
<g id="Layer_89">
</g>
<g id="Layer_88">
</g>
<g id="Layer_87">
</g>
<g id="Layer_86">
</g>
<g id="Layer_85">
</g>
<g id="Layer_84">
</g>
<g id="Layer_83">
</g>
<g id="Layer_82">
</g>
<g id="Layer_81">
</g>
<g id="Layer_80">
</g>
<g id="Layer_79">
</g>
<g id="Layer_78">
</g>
<g id="Layer_77">
</g>
<g id="Layer_76">
</g>
<g id="Layer_75">
</g>
<g id="Layer_74">
</g>
<g id="Layer_73">
</g>
<g id="Layer_72">
</g>
<g id="Layer_71">
</g>
<g id="Layer_70">
</g>
<g id="Layer_69">
</g>
<g id="Layer_68">
</g>
<g id="Layer_67">
</g>
<g id="Layer_66">
</g>
<g id="Layer_65">
</g>
<g id="Layer_64">
</g>
<g id="Layer_63">
</g>
<g id="Layer_62">
</g>
<g id="Layer_61">
</g>
<g id="Layer_60">
</g>
<g id="Layer_59">
</g>
<g id="Layer_58">
</g>
<g id="Layer_57">
</g>
<g id="Layer_56">
</g>
<g id="Layer_55">
</g>
<g id="Layer_54">
</g>
<g id="Layer_53">
</g>
<g id="Layer_52">
</g>
<g id="Layer_51">
</g>
<g id="Layer_50">
</g>
<g id="Layer_49">
</g>
<g id="Layer_48">
</g>
<g id="Layer_47">
</g>
<g id="Layer_46">
</g>
<g id="Layer_45">
</g>
<g id="Layer_44">
</g>
<g id="Layer_43">
</g>
<g id="Layer_42">
</g>
<g id="Layer_41">
</g>
<g id="Layer_40">
</g>
<g id="Layer_39">
</g>
<g id="Layer_38">
</g>
<g id="Layer_37">
</g>
<g id="Layer_36">
</g>
<g id="Layer_35">
</g>
<g id="Layer_34">
</g>
<g id="Layer_33">
</g>
<g id="Layer_32">
</g>
<g id="Layer_31">
</g>
<g id="Layer_30">
</g>
<g id="Layer_29">
</g>
<g id="Layer_28">
</g>
<g id="Layer_27">
</g>
<g id="Layer_26">
</g>
<g id="Layer_25">
</g>
<g id="Layer_24">
</g>
<g id="Layer_23">
</g>
<g id="Layer_22">
</g>
<g id="Layer_21">
</g>
<g id="Layer_20">
</g>
<g id="Layer_19">
</g>
<g id="Layer_18">
</g>
<g id="Layer_17">
</g>
<g id="Layer_16">
</g>
<g id="Layer_15">
</g>
<g id="Layer_14">
</g>
<g id="Layer_13">
</g>
<g id="Layer_12">
</g>
<g id="Layer_11">
</g>
<g id="Layer_10">
</g>
<g id="Layer_9">
</g>
<g id="Layer_8">
</g>
<g id="Layer_7">
</g>
<g id="Layer_6">
</g>
<g id="Layer_5">
</g>
<g id="Layer_4">
</g>
<g id="Layer_3">
</g>
<g id="Layer_2">
	<path class="st0" d="M35.25,50.05H14.38c-8.04,0-14.56-6.52-14.56-14.56V14.62c0-8.04,6.52-14.56,14.56-14.56h20.87
		c8.04,0,14.56,6.52,14.56,14.56v20.87C49.82,43.53,43.3,50.05,35.25,50.05z"/>
	<path class="st1" d="M18.31,24.39c-0.24-0.98-0.84-1.86-1.66-2.44c-0.21-0.15-0.45-0.28-0.7-0.28c-0.29,0-0.54,0.18-0.81,0.27
		c-0.71,0.23-1.47-0.13-2.1-0.52c-1.87-1.18-3.47-2.76-4.84-4.49c-1.44-1.83-2.64-3.84-3.56-5.98c-0.22-0.5-0.42-1.03-0.41-1.57
		c0.01-0.55,0.29-1.12,0.8-1.32c0.49-0.2,1.04-0.01,1.54,0.18c2.04,0.77,4.12,1.55,5.89,2.83c1.76,1.27,3.14,2.99,4.48,4.7
		c0.5,0.65,1.02,1.33,1.22,2.12c0.18,0.72,0.1,1.48,0.14,2.23c0.1,1.73,0.91,3.32,1.69,4.86c-1.02-2.92-1.43-6.06-1.2-9.14
		c0.08-1.13,0.26-2.27,0.65-3.33c1.09-2.93,3.72-5,6.35-6.69c0.56-0.36,1.3-0.72,1.86-0.35c0.31,0.21,0.46,0.58,0.58,0.94
		c1.04,3.32,0.42,7.11-1.62,9.93c-1.02,1.41-2.35,2.56-3.47,3.9s-2.06,2.95-2.04,4.69c1.24-1.48,2.51-2.96,4.04-4.13
		c1.54-1.17,3.37-2.03,5.3-2.09c1.28-0.04,2.54,0.26,3.78,0.56c0.66,0.16,1.33,0.32,1.99,0.48c0.61,0.15,1.24,0.31,1.71,0.73
		c0.46,0.42,0.68,1.19,0.3,1.68c-0.44,0.57-1.31,0.45-2.02,0.37c-1.14-0.13-2.31-0.02-3.41,0.31c-1.33,0.4-2.66,1.13-4.02,0.86
		c-0.44-0.09-0.85-0.28-1.28-0.4c-1.96-0.58-4.26,0.33-5.29,2.09c-0.32-0.12-0.72,0.02-0.9,0.31c0.43,1.11,1.87,1.51,3.03,1.25
		c1.16-0.26,2.16-0.98,3.23-1.5c1.07-0.53,2.37-0.85,3.43-0.3c0.56,0.29,0.99,0.81,1.56,1.08c0.43,0.2,0.92,0.25,1.39,0.33
		c2.84,0.47,5.44,2.24,6.92,4.7c0.15,0.24,0.29,0.5,0.33,0.78c0.14,0.97-0.9,1.67-1.83,1.97c-3.14,0.99-6.53,0.18-9.72-0.62
		c-0.77-0.19-1.55-0.39-2.25-0.76c-1.32-0.7-2.28-2.02-2.55-3.48c-0.06-0.34-0.11-0.71-0.37-0.93c-0.16-0.14-0.38-0.18-0.59-0.22
		c-0.15-0.03-0.29-0.06-0.44-0.08c-1.13-0.22-2.36-0.49-3.1-1.38c0.69,1.92,2.17,3.55,4.03,4.4c0.5,0.23,1.04,0.42,1.48,0.75
		c0.5,0.38,0.85,0.94,1.31,1.36c1.11,1.01,2.72,1.18,4.22,1.3c2.39,0.19,4.78,0.38,7.17,0.57c0.68,0.05,1.36,0.11,2,0.36
		c0.86,0.33,1.55,0.99,2.19,1.65c0.81,0.83,1.58,1.7,2.32,2.59c0.58,0.7,1.09,1.86,0.35,2.39c-0.33,0.24-0.78,0.21-1.19,0.16
		c-3.8-0.42-7.56-1.17-11.23-2.25c-2.36-0.69-4.94-1.76-5.84-4.04c-0.18-0.44-0.28-0.92-0.49-1.34c-0.95-1.89-3.56-2.11-5.25-3.38
		c-1.25-0.94-1.97-2.55-1.85-4.11c-1.7,1.4-0.91,4.23-1.97,6.16c-0.57,1.04-1.61,1.71-2.62,2.34c-2.04,1.28-4.2,2.59-6.6,2.75
		c-0.49,0.03-1.02,0-1.42-0.29c-0.42-0.31-0.61-0.84-0.74-1.35c-0.47-1.75-0.56-3.77,0.51-5.23c0.42-0.57,0.99-1.01,1.55-1.45
		c1.73-1.34,3.85-2.75,5.94-2.1c0.86,0.27,1.66,0.88,2.55,0.75c1.05-0.15,1.69-1.3,1.73-2.36c0.04-1.06-0.33-2.09-0.51-3.13
		c-0.07-0.44-0.11-0.9-0.23-1.33c-0.47-1.62-2.06-2.59-3.46-3.54c-2.66-1.82-5-4.08-6.91-6.68C7.04,11,6.54,10.48,6.03,10.7
		c1.43,1,2.86,2,4.29,3c-0.05-0.75-0.09-1.5-0.14-2.26c-0.39,1.71-0.03,3.58,0.97,5.03c-0.66-0.07-1.33,0.05-1.92,0.35
		c2.56-0.63,5.46,0.56,6.84,2.8c-0.5-0.69-0.48-1.71,0.05-2.38c-0.17,1.33,0.63,2.72,1.87,3.24c-0.29,0.41-0.12,0.99,0.18,1.38
		c0.31,0.39,0.73,0.67,1.05,1.05c0.53,0.62,0.72,1.51,0.51,2.3c0.8-1.3,0.17-3,0.42-4.51c0.18-1.09,0.81-2.04,1.11-3.1
		c0.42-1.48,0.16-3.08,0.52-4.58c0.59-2.48,2.73-4.25,4.73-5.83c-1.18,1.1-2.36,2.19-3.53,3.29c1-0.03,2,0.01,2.99,0.13
		c-1.36-0.32-2.78,0.56-3.51,1.75s-0.94,2.62-1.12,4.01c-0.07-0.82-0.46-1.61-1.09-2.16c-0.45,0.76,0.55,1.53,0.87,2.36
		c0.19,0.48,0.12,1.02,0.06,1.53c-0.31,2.5-0.63,5-0.94,7.5c1.07,0.29,1.98-0.73,2.76-1.5c1.62-1.62,3.86-2.6,6.15-2.71
		c0.78-0.04,1.57,0.02,2.33-0.14c0.76-0.17,1.52-0.62,1.78-1.35c-0.34,0.57-0.82,1.05-1.39,1.38c1.14-0.02,2.28-0.03,3.42-0.05
		c-0.4,0.03-0.81,0.07-1.21,0.1c1.1-0.11,2.23,0.57,2.65,1.59c-1.71-0.59-3.62-0.62-5.35-0.08c-0.69,0.21-1.35,0.51-2.05,0.65
		c-1.33,0.28-2.72,0.01-4.07,0.13c-0.8,0.07-1.58,0.27-2.31,0.6c-0.58,0.26-1.15,0.63-1.48,1.18s-0.34,1.32,0.1,1.78
		c0.36,0.38,0.92,0.47,1.44,0.52c0.86,0.08,1.73,0.09,2.59,0.04c0.72-0.04,1.47-0.13,2.13,0.16c0.44,0.19,0.8,0.54,1.23,0.77
		c1.12,0.62,2.66,0.3,3.45-0.71c-0.83,0.21-1.63,0.56-2.35,1.04c1.85,0.31,3.15,2.46,2.56,4.24c0.25-1.02,0.33-2.08,0.22-3.12
		c0.93,0.39,1.87,0.78,2.8,1.18c0.65,0.27,1.31,0.55,2.01,0.59c0.7,0.04,1.46-0.18,1.88-0.75c-0.5,0.49-1.14,0.85-1.83,1
		c0.66-0.22,1.43-0.06,1.93,0.42c0.5,0.48,0.69,1.27,0.43,1.91c-0.42,1.05-1.73,1.38-2.85,1.54c-1.45,0.2-2.99,0.33-4.31-0.28
		c1.23,0.83,3.13,0.61,3.97,1.82c0.59,0.85,0.36,1.99,0.11,2.99c0.46-1.01,0.58-2.18,0.34-3.27c1.13,1.04,2.82,1.43,4.3,0.99
		c-1.01,0.57-1.46,1.97-0.97,3.02c-4.03-0.15-8.01-1.33-11.47-3.4c-0.87-0.52-1.73-1.12-2.31-1.95c-0.47-0.67-0.75-1.47-1.3-2.06
		c-1.42-1.53-4.1-1.23-5.52-2.76c-0.45-0.48-0.72-1.1-1.2-1.55c-1.04-1-2.77-0.89-4.01-0.17s-2.1,1.94-2.94,3.11
		c-0.84,1.17-1.73,2.37-3,3.04c1.23-0.79,2.32-1.8,3.19-2.97c-0.04,1.28-0.08,2.55-0.13,3.83c-0.11-2.16-0.07-4.67,1.6-6.04
		c-1.06-0.37-2.22-0.47-3.33-0.28"/>
</g>
</svg>
