<?xml version="1.0" encoding="utf-8"?>
<!-- Generator: Adobe Illustrator 28.1.0, SVG Export Plug-In . SVG Version: 6.00 Build 0)  -->
<svg version="1.1" id="Layer_1" xmlns="http://www.w3.org/2000/svg" xmlns:xlink="http://www.w3.org/1999/xlink" x="0px" y="0px"
	 viewBox="0 0 1909.3 187.9" style="enable-background:new 0 0 1909.3 187.9;" xml:space="preserve">
<style type="text/css">
	.st0{fill:#D4B89D;}
</style>
<path class="st0" d="M1916.2,892.3c-27.6,37-72.9,86.5-141.4,118.5c-217.9,101.7-374.3-112.9-698.1-118.5
	c-298.4-5.1-358.5,174-662.3,152.2C232,1031.4,87.6,954.9-5.9,892.3c0-288,0-576,0-864c28,1.4,74.1,6.3,126.1,26.5
	c61,23.7,99.8,56.6,108.3,63.3c142.6,113.3,723.1,12.3,723.1,12.3C1332.5,64.1,1452,3.8,1740,14c74.7,2.6,135.9,9.2,176.2,14.3
	C1916.2,316.3,1916.2,604.3,1916.2,892.3z"/>
</svg>
