<?xml version="1.0" standalone="no"?>
<svg xmlns:xlink="http://www.w3.org/1999/xlink" id="wave" style="transform:rotate(180deg); transition: 0.3s" viewBox="0 0 1440 490" version="1.1" xmlns="http://www.w3.org/2000/svg"><defs><linearGradient id="sw-gradient-0" x1="0" x2="0" y1="1" y2="0"><stop stop-color="rgba(255, 255, 255, 1)" offset="0%"/><stop stop-color="rgba(255, 255, 255, 1)" offset="100%"/></linearGradient></defs><path style="transform:translate(0, 0px); opacity:1" fill="url(#sw-gradient-0)" d="M0,294L60,277.7C120,261,240,229,360,228.7C480,229,600,261,720,253.2C840,245,960,196,1080,204.2C1200,212,1320,278,1440,310.3C1560,343,1680,343,1800,302.2C1920,261,2040,180,2160,122.5C2280,65,2400,33,2520,65.3C2640,98,2760,196,2880,245C3000,294,3120,294,3240,277.7C3360,261,3480,229,3600,245C3720,261,3840,327,3960,318.5C4080,310,4200,229,4320,171.5C4440,114,4560,82,4680,89.8C4800,98,4920,147,5040,171.5C5160,196,5280,196,5400,212.3C5520,229,5640,261,5760,253.2C5880,245,6000,196,6120,179.7C6240,163,6360,180,6480,220.5C6600,261,6720,327,6840,310.3C6960,294,7080,196,7200,138.8C7320,82,7440,65,7560,57.2C7680,49,7800,49,7920,114.3C8040,180,8160,310,8280,334.8C8400,359,8520,278,8580,236.8L8640,196L8640,490L8580,490C8520,490,8400,490,8280,490C8160,490,8040,490,7920,490C7800,490,7680,490,7560,490C7440,490,7320,490,7200,490C7080,490,6960,490,6840,490C6720,490,6600,490,6480,490C6360,490,6240,490,6120,490C6000,490,5880,490,5760,490C5640,490,5520,490,5400,490C5280,490,5160,490,5040,490C4920,490,4800,490,4680,490C4560,490,4440,490,4320,490C4200,490,4080,490,3960,490C3840,490,3720,490,3600,490C3480,490,3360,490,3240,490C3120,490,3000,490,2880,490C2760,490,2640,490,2520,490C2400,490,2280,490,2160,490C2040,490,1920,490,1800,490C1680,490,1560,490,1440,490C1320,490,1200,490,1080,490C960,490,840,490,720,490C600,490,480,490,360,490C240,490,120,490,60,490L0,490Z"/></svg>