<?xml version="1.0" encoding="utf-8"?>
<!-- Generator: Adobe Illustrator 28.1.0, SVG Export Plug-In . SVG Version: 6.00 Build 0)  -->
<svg version="1.1" id="wave" xmlns="http://www.w3.org/2000/svg" xmlns:xlink="http://www.w3.org/1999/xlink" x="0px" y="0px"
	 viewBox="0 0 1440 206.5" style="enable-background:new 0 0 1440 206.5;" xml:space="preserve">
<style type="text/css">
	.st0{fill:#FFFFFF;}
</style>
<path class="st0" d="M0,180l80-16.3C160,147,320,115,480,82S800,17,960,8.5S1280,17,1440,33s320,33,480,40.8
	c160,8.2,320,8.2,480,40.9c160,32.3,320,98.3,480,73.5C3040,164,3200,49,3360,8.5S3680,0,3840-16s320-82,480-65.3
	C4480-65,4640,33,4800,90.2c160,56.8,320,73.8,480,73.5c160,0.3,320-16.7,480-24.5c160-8.2,320-8.2,480-16.4
	c160-7.8,320-24.8,480-8.1c160,16.3,320,65.3,480,81.6c160,16.7,320-0.3,480,0c160-0.3,320,16.7,480,0C8320,180,8480,131,8640,82
	s320-98,480-106.2c160-7.8,320,24.2,480,49c160,24.2,320,41.2,480,16.4c160-24.2,320-90.2,480-65.4C10720,0,10880,115,11040,131
	s320-65,400-106.2l80-40.8v343h-80c-80,0-240,0-400,0s-320,0-480,0s-320,0-480,0s-320,0-480,0s-320,0-480,0s-320,0-480,0
	s-320,0-480,0s-320,0-480,0s-320,0-480,0s-320,0-480,0s-320,0-480,0s-320,0-480,0s-320,0-480,0s-320,0-480,0s-320,0-480,0
	s-320,0-480,0s-320,0-480,0s-320,0-480,0s-320,0-480,0s-320,0-480,0s-320,0-480,0s-320,0-480,0s-320,0-480,0s-320,0-400,0H0V180z"/>
</svg>
