<?xml version="1.0" encoding="UTF-8"?>
<svg id="Layer_1" data-name="Layer 1" xmlns="http://www.w3.org/2000/svg" xmlns:xlink="http://www.w3.org/1999/xlink" viewBox="0 0 1374 913">
  <defs>
    <style>
      .cls-1 {
        stroke-width: 2.71px;
      }

      .cls-1, .cls-2, .cls-3, .cls-4, .cls-5, .cls-6, .cls-7, .cls-8, .cls-9, .cls-10, .cls-11 {
        fill: none;
      }

      .cls-1, .cls-2, .cls-4, .cls-5, .cls-6, .cls-7, .cls-8, .cls-9, .cls-10, .cls-11 {
        stroke: #d4b89d;
        stroke-miterlimit: 10;
      }

      .cls-2 {
        stroke-width: 4.09px;
      }

      .cls-3 {
        stroke-width: 0px;
      }

      .cls-4 {
        stroke-width: 1.52px;
      }

      .cls-12 {
        clip-path: url(#clippath-1);
      }

      .cls-5 {
        stroke-width: 2.92px;
      }

      .cls-6 {
        stroke-width: 3.71px;
      }

      .cls-7 {
        stroke-width: 2.61px;
      }

      .cls-8 {
        stroke-width: 2.08px;
      }

      .cls-13 {
        clip-path: url(#clippath);
      }

      .cls-9 {
        stroke-width: 2.89px;
      }

      .cls-10 {
        stroke-width: 1.76px;
      }

      .cls-11 {
        stroke-width: 2.72px;
      }
    </style>
    <clipPath id="clippath">
      <rect class="cls-3" x="23" y="93" width="1344.37" height="744.65"/>
    </clipPath>
    <clipPath id="clippath-1">
      <rect class="cls-3" x="-608.5" y="139.81" width="2017.6" height="650.01"/>
    </clipPath>
  </defs>
  <g class="cls-13">
    <g class="cls-12">
      <g>
        <g>
          <path class="cls-2" d="M403.94,352.34c5.76-23.15,12.08-46.17,19-69.01.82-2.75,1.72-5.6,3.35-7.91,5.16-7.2,15.39-7.15,23.98-6.4,5.76.49,12.12,1.29,16.03,5.73,5.72,6.49,3.05,16.71,0,24.93-7.05,18.97-14.36,37.81-22.05,56.47-4.51,11.02-15.13,41.55-30.3,39.63-18.96-2.44-13.11-30.97-10.02-43.46Z"/>
          <path class="cls-2" d="M398.44,349.67c-9.93-12.26-19.9-24.57-29.83-36.84-2.92-3.64-6.06-7.38-10.27-9.15-6.79-2.8-14.92.49-19.6,6.31s-6.49,13.55-7.09,21.11c-1.46,19.2,4.34,38.83,15.99,53.9,8.08,10.49,19.17,19.37,22.57,32.3-33.4-10.18-69.93-5.42-102.26,8-1.85.76-3.78,1.64-5.07,3.2-3.74,4.44-.56,11.42,3.44,15.64,14.27,15.06,37.01,18.62,56.95,14.26,19.94-4.35,37.82-15.42,55.28-26.26"/>
          <path class="cls-2" d="M331.04,473.86c-27.98,2.44-55.36,12.49-78.57,28.84-5.29,3.73-10.83,8.71-10.87,15.33,0,3.55,1.68,6.93,3.83,9.78,11.65,15.37,34.82,15.46,52.14,7.64,17.32-7.82,31.46-21.64,48.14-30.84,8.64-4.8,18.96-9.51,21.62-19.24"/>
          <path class="cls-2" d="M372.95,527.71c-10.66,15.51-16.38,34.52-16.12,53.54.04,2.58.26,5.42,2.06,7.24,4.47,4.58,11.43-2.04,13.88-8.04,5.29-12.89,8.21-26.79,8.55-40.79"/>
          <path class="cls-2" d="M374.97,600.94c-10.62,33.41-12.38,69.8-4.94,104.11,1.25,5.82,2.84,11.73,6.36,16.48,7.35,9.95,20.76,12,32.8,13.29,1.72.18,3.61.31,5.03-.67,1.72-1.2,2.15-3.55,2.45-5.69,4.9-35.99,7.35-72.34,7.44-108.68,0-14.35-.43-29.15-6.23-42.17-2.71-6.09-6.58-11.86-7.22-18.48-.26-2.67,0-5.47-1.12-7.86-1.12-2.4-4.51-3.91-6.32-2"/>
          <path class="cls-2" d="M438.37,608.01c4.99,8.18,12.34,14.84,20.89,18.8,2.06.93,4.51,1.73,6.45.53,1.46-.93,2.15-2.75,2.71-4.44,4.6-13.82,9.28-28.35,7.22-42.79-2.06-14.35-11.09-27.46-23.6-34.08"/>
          <path class="cls-2" d="M479.12,635.78c7.87,11.6,12.94,25.19,14.61,39.28,1.03,8.49.64,17.82-4.34,24.66-4.99,6.84-15.73,9.64-21.66,3.64-1.81-1.82-3.01-4.22-4.13-6.58-8.81-18.04-17.84-37.19-16.68-57.36"/>
          <path class="cls-2" d="M495.97,608.98c6.66,11.11,11.13,23.64,13.02,36.57,1.63,11.33,3.01,25.42,13.32,29.55,6.02,2.4,13.02-.04,17.84-4.49,4.81-4.44,7.74-10.58,10.32-16.71,1.81-4.27,3.48-8.8,3.35-13.46-.43-13.42-14.66-21.11-26.95-25.42-10.23-3.6-20.59-6.84-31.08-9.73"/>
          <path class="cls-2" d="M483.12,477.19c22.27,8.49,44.83,17.02,68.43,19.82,10.57,1.24,21.23,1.33,31.81,2.53,17.79,2.04,35.29,7.29,51.36,15.46,9.97,5.07,20.76,13.86,19.34,25.24-1.2,9.6-11.18,15.86-20.55,16.08-9.37.22-18.22-3.95-26.82-7.82-34.64-15.51-71.14-26.62-108.4-33.01,6.92,5.47,13.8,10.98,20.72,16.44,6.66,5.29,13.32,10.58,19.99,15.86,4.99,3.95,9.93,7.91,14.66,12.17,11.13,10.09,20.76,21.95,28.41,35.06,6.02,10.26,10.92,22.53,7.57,33.99-3.35,11.46-18.7,19.02-27.12,10.8-1.72-20.39-19.86-34.44-36.36-45.72-10.53-7.2-21.06-14.44-31.59-21.64-7.69-5.29-16.38-15.2-10.87-22.88"/>
          <path class="cls-2" d="M478.47,318.43c4.08-8.58,9.84-16.62,17.88-21.33,6.83-3.95,15.9-6.31,18.4-14,9.89,13.6,8.04,32.53,4.9,49.23-3.09,16.35-6.96,32.53-11.65,48.43-5.33,18.22-13.28,41.81-31.25,49.85-11.99-30.26-12.59-82.2,1.72-112.19Z"/>
          <path class="cls-2" d="M446.62,251.34c2.92-14.97,9.07-29.24,17.88-41.46,4.38-6.04,9.54-11.77,16.16-15.02,6.62-3.24,14.87-3.64,20.98.49,7.35,24.79-14.4,48.48-17.71,74.2"/>
          <path class="cls-2" d="M410.13,292.35c-14.61-11.37-27.51-25.15-38.08-40.57-3.57-5.2-6.96-10.71-12.04-14.35-3.65-2.62-7.95-4.13-12.34-5.02-6.62-1.38-13.97-1.29-19.6,2.58s-8.55,12.4-4.73,18.17c15.86,6.27,28.63,20.31,33.78,37.01"/>
          <path class="cls-2" d="M317.67,307.1c-26.95,5.64-56.65-8.53-69.98-33.37-7.09,5.87-8.77,16.8-6.02,25.77,2.75,8.93,9.11,16.22,15.9,22.48,23.51,21.64,54.67,35.06,72.43,61.94"/>
          <path class="cls-2" d="M252.21,345c-6.23.53-9.54,8.84-7.44,14.93s7.61,10.18,13.07,13.42c16.98,10.13,36.15,16.4,55.66,18.08"/>
          <path class="cls-2" d="M225.73,356.87c-11.78.44-23.6.84-35.37,1.29-4.81.18-10.44.84-12.85,5.11-2.97,5.2.95,11.64,5.07,15.86,18.91,19.28,47.8,27.46,73.59,20.84"/>
          <path class="cls-2" d="M537.4,349.18c8.3-1.47,16.59-2.98,24.89-4.44,1.5-.27,3.09-.53,4.43.18,1.2.62,1.93,1.87,2.54,3.11,4.6,9.91,1.72,22.13-4.51,31.01-6.19,8.89-15.22,15.2-24.07,21.28-11.05,7.64-22.14,15.29-33.18,22.93"/>
          <path class="cls-2" d="M519.78,479.1c17.24-4.84,33.83,8.26,50.89,13.82,29.87,9.69,61.59-4.4,89.92-18.17,12.12-5.91,24.72-12.13,33.14-22.97,8.42-10.8,11.3-27.55,2.84-38.35-36.54-46.57-162.86,30.17-203.44,36.92"/>
          <path class="cls-2" d="M589.97,357.58c16.85-3.29,33.74-6.58,50.59-9.82,8.94-1.73,18.65-3.38,26.78.84,8.12,4.22,12.38,17.02,5.54,23.19-2.45,2.18-5.72,3.11-8.85,3.95-20.93,5.6-41.91,11.15-62.84,16.75"/>
          <path class="cls-2" d="M546.86,327.85c15.99-31.59,30.99-63.72,44.96-96.33,18.53,6.09,27.21,29.59,23.81,49.41-3.35,19.82-15.52,36.61-27.34,52.56"/>
          <path class="cls-2" d="M168.44,391.35c-10.1,2.44-20.2,4.84-30.3,7.29-7.05,1.69-15.22,4.35-17.58,11.46-2.49,7.46,3.14,15.24,9.37,19.86,13.97,10.4,32.97,13.11,49.17,7.06,18.35-6.84,34.3-24.26,53.64-21.64"/>
          <path class="cls-2" d="M189.8,452.27c20.12,16.88,47.67,23.91,73.11,18.62"/>
          <path class="cls-2" d="M214.52,488.66c-22.05,4.58-43.97,9.6-65.81,15.15-3.78.98-7.74,2-10.66,4.67-2.92,2.67-4.47,7.46-2.36,10.84,2.32,3.73,7.48,3.95,11.78,3.73,21.66-1.07,43.33-2.13,64.99-3.2"/>
          <path class="cls-2" d="M219.59,547.4c-18.83,2.71-35.89,15.91-43.67,33.81,15.52,3.11,31.03,6.27,46.59,9.38,3.65.76,7.52,1.47,11.09.22,3.78-1.33,6.53-4.71,9.28-7.78,10.01-11.06,22.95-19.24,37.05-23.42-12.68,20.97-41.44,27.68-52.35,49.68-3.61,7.33-4.86,15.73-4.94,23.95-.09,6.53.77,13.6,5.16,18.26,6.06,6.49,16.98,5.6,23.98.13,6.96-5.42,10.79-14.13,13.45-22.75,4.47-14.35,6.75-29.55,13.2-43.06,6.45-13.51,18.61-25.59,33.18-25.95-17.41,29.15-24.37,64.34-22.14,98.55.73,10.89,2.54,22.22,8.85,30.93,6.32,8.75,18.31,13.91,27.81,9.15,12.29-6.13,13.58-23.51,12.08-37.55-2.36-22.17-7.44-44.08-8.55-66.34-1.12-22.31,2.15-45.77,14.74-63.9"/>
          <path class="cls-2" d="M386.06,516.07c10.53,6.22,22.69,8.66,34.6,11.02,8.77,1.73,18.87,3.07,25.62-2.93,8.34-7.46,6.23-21.11,3.44-32.13,10.4,1.24,24.16.27,26.99-10.13,2.11-7.73-3.91-15.33-10.4-19.73-6.49-4.4-14.18-7.6-18.57-14.22-2.28-3.47-3.48-7.64-5.89-11.02-4.38-6.09-11.91-8.53-19-10.35-12.47-3.15-25.66-6.13-38.34-6,5.46,34.35-44.92,67.98,1.55,95.49Z"/>
        </g>
        <g>
          <path class="cls-11" d="M-23.39,384.15c5.54-2.71,11.78-4.44,17.84-3.47,5.16.84,10.79,3.51,15.17.58-.3,11.33-8.85,20.39-17.15,27.73-8.17,7.2-16.63,13.95-25.45,20.22-10.1,7.2-23.64,16.08-36.23,12.62,5.89-20.88,26.35-48.21,45.82-57.67Z"/>
          <path class="cls-11" d="M-13.12,335.58c7.52-6.53,16.42-11.33,25.92-13.95,4.69-1.29,9.67-2.04,14.4-.89,4.73,1.16,9.2,4.44,10.7,9.24-6.1,16.04-26.91,19.06-38.94,31.06"/>
          <path class="cls-11" d="M-5,425.34c4.9,2.8,9.84,5.55,14.74,8.35.86.49,1.81,1.07,2.24,2,.39.84.26,1.82.04,2.71-1.55,7.11-7.95,12.26-14.74,14.22-6.79,2-14.01,1.38-21.06.8-8.81-.76-17.62-1.51-26.43-2.27"/>
          <path class="cls-11" d="M-66.21,485.46c10.92,4.84,14.31,18.8,20.98,28.97,11.69,17.82,33.83,24.04,54.07,29.01,8.68,2.13,17.71,4.27,26.43,2.22,8.73-2.04,16.89-9.51,16.81-18.75-.39-39.86-96.84-53.99-120.7-67.81"/>
          <path class="cls-11" d="M18.99,452.22c10.1,5.51,20.2,11.02,30.26,16.53,5.37,2.93,11.05,6.22,13.58,11.91,2.54,5.69-.39,14.17-6.4,14.44-2.15.09-4.21-.84-6.19-1.73-13.15-6.04-26.26-12.13-39.42-18.17"/>
          <path class="cls-11" d="M8.46,418.32c20.98-9.6,41.65-19.91,61.98-30.93,7.22,11.11,2.32,27.06-7.35,35.9-9.67,8.89-22.74,12.4-35.29,15.68"/>
        </g>
        <g>
          <path class="cls-5" d="M807.81,569.17c5.03-16.26,10.44-32.35,16.29-48.3.69-1.96,1.46-3.91,2.71-5.51,3.95-4.89,11.22-4.44,17.32-3.55,4.08.62,8.6,1.42,11.18,4.75,3.78,4.84,1.5,12.04-.99,17.73-5.76,13.2-11.73,26.3-17.97,39.28-3.65,7.64-12.42,28.93-23.17,26.93-13.41-2.53-8.08-22.57-5.37-31.33Z"/>
          <path class="cls-5" d="M803.98,567.04c-6.58-9.15-13.15-18.35-19.77-27.5-1.93-2.71-4-5.51-6.96-6.93-4.73-2.31-10.66-.27-14.23,3.64s-5.16,9.38-5.89,14.75c-1.81,13.6,1.55,27.86,9.2,39.06,5.33,7.82,12.85,14.62,14.79,23.95-23.38-8.66-49.6-6.84-73.16,1.29-1.33.49-2.75.98-3.74,2.04-2.84,3.02-.86,8.09,1.81,11.29,9.54,11.33,25.62,14.84,39.97,12.57,14.36-2.22,27.55-9.33,40.4-16.35"/>
          <path class="cls-5" d="M751.03,652.57c-20.03.53-39.89,6.53-57.08,17.2-3.91,2.4-8.08,5.73-8.34,10.44-.17,2.53.9,5.02,2.32,7.11,7.69,11.46,24.16,12.49,36.79,7.64,12.64-4.84,23.3-14.04,35.5-19.91,6.36-3.02,13.88-5.95,16.16-12.8"/>
          <path class="cls-5" d="M778.71,692.7c-8.21,10.58-13.02,23.86-13.63,37.41-.09,1.82,0,3.87,1.16,5.24,3.01,3.47,8.21-.98,10.23-5.15,4.3-8.93,6.92-18.75,7.74-28.7"/>
          <path class="cls-5" d="M777.2,744.9c-8.9,23.33-11.61,49.14-7.69,73.89.64,4.18,1.55,8.49,3.87,12,4.81,7.38,14.31,9.42,22.82,10.89,1.2.22,2.58.4,3.61-.27,1.25-.8,1.68-2.44,1.98-3.91,4.94-25.42,8.17-51.19,9.63-77.05.6-10.22.86-20.75-2.75-30.3-1.68-4.44-4.21-8.71-4.38-13.46-.09-1.91.21-3.91-.47-5.64s-3.05-2.98-4.43-1.69"/>
          <path class="cls-5" d="M822.08,752.64c3.22,6.04,8.21,11.06,14.14,14.26,1.42.76,3.14,1.42,4.56.67,1.07-.58,1.63-1.87,2.11-3.07,3.83-9.64,7.74-19.77,6.83-30.17-.9-10.31-6.79-20.04-15.43-25.28"/>
          <path class="cls-5" d="M849.93,774.19c5.11,8.58,8.21,18.48,8.85,28.57.39,6.09-.26,12.71-4.08,17.37-3.78,4.67-11.61,6.18-15.6,1.69-1.2-1.38-1.98-3.15-2.71-4.84-5.54-13.24-11.22-27.24-9.59-41.55"/>
          <path class="cls-5" d="M863,755.83c4.3,8.18,7.01,17.28,7.82,26.57.73,8.13,1.12,18.22,8.3,21.59,4.17,1.96,9.28.53,12.89-2.44,3.61-2.98,5.93-7.2,7.99-11.46,1.46-2.98,2.84-6.09,2.92-9.42.26-9.55-9.59-15.64-18.18-19.24-7.14-3.02-14.4-5.78-21.71-8.26"/>
          <path class="cls-5" d="M859.17,661.41c15.52,6.98,31.25,14.04,47.93,17.02,7.48,1.33,15.09,1.87,22.57,3.15,12.59,2.22,24.84,6.71,35.98,13.2,6.92,4.04,14.23,10.75,12.77,18.8-1.25,6.8-8.6,10.8-15.26,10.58-6.66-.22-12.81-3.6-18.78-6.71-24.07-12.53-49.6-21.99-75.86-28.13,4.69,4.18,9.37,8.4,14.1,12.57,4.51,4.04,9.07,8.09,13.58,12.13,3.4,3.02,6.75,6.04,9.93,9.29,7.52,7.64,13.88,16.53,18.83,26.17,3.87,7.55,6.88,16.53,4.04,24.53-2.84,8-14.06,12.75-19.77,6.53-.43-14.57-12.77-25.37-24.07-34.12-7.22-5.6-14.4-11.15-21.62-16.75-5.29-4.09-11.05-11.51-6.83-16.75"/>
          <path class="cls-5" d="M862.18,548.2c3.27-5.91,7.65-11.42,13.58-14.4,5.03-2.53,11.56-3.82,13.67-9.15,6.49,10.09,4.43,23.51,1.5,35.28-2.84,11.51-6.28,22.84-10.23,33.99-4.56,12.75-11.13,29.19-24.24,34.17-7.31-22.13-5.63-59.14,5.72-79.89Z"/>
          <path class="cls-5" d="M842.24,499.1c2.66-10.53,7.61-20.44,14.4-28.75,3.35-4.13,7.26-7.95,12.08-10,4.81-2.04,10.75-1.96,14.92,1.24,4.26,18-12.21,33.9-15.56,52.08"/>
          <path class="cls-5" d="M814.6,526.74c-9.93-8.75-18.57-19.06-25.49-30.53-2.32-3.87-4.56-7.91-7.99-10.71-2.49-2.04-5.5-3.29-8.6-4.09-4.64-1.24-9.89-1.51-14.06,1.02-4.17,2.49-6.58,8.44-4.13,12.75,11.05,5.15,19.6,15.68,22.57,27.82"/>
          <path class="cls-5" d="M748.19,533.27c-19.43,2.84-40.02-8.49-48.48-26.75-5.29,3.87-6.92,11.6-5.33,18.08,1.59,6.49,5.85,11.95,10.4,16.66,15.9,16.4,37.52,27.33,49.09,47.19"/>
          <path class="cls-5" d="M700.05,557.44c-4.47.09-7.14,5.91-5.89,10.31,1.25,4.44,5.03,7.55,8.77,10.09,11.69,7.95,25.06,13.2,38.9,15.24"/>
          <path class="cls-5" d="M680.75,564.73c-8.42-.18-16.81-.4-25.23-.58-3.44-.09-7.48.13-9.37,3.11-2.32,3.55.21,8.31,2.97,11.51,12.72,14.53,32.92,21.59,51.54,18"/>
          <path class="cls-5" d="M902.93,572.64c5.97-.71,11.95-1.42,17.92-2.09,1.07-.13,2.24-.22,3.14.31.82.49,1.29,1.42,1.68,2.31,2.88,7.24.34,15.82-4.43,21.91-4.77,6.09-11.43,10.18-17.97,14.13-8.17,4.98-16.38,9.95-24.54,14.89"/>
          <path class="cls-5" d="M885.18,664.35c12.47-2.71,23.77,7.33,35.68,12,20.89,8.18,44.01-.49,64.73-9.11,8.9-3.69,18.1-7.6,24.5-14.93,6.4-7.33,9.16-19.15,3.57-27.19-24.16-34.75-117.17,14.49-146.31,17.6"/>
          <path class="cls-5" d="M940.02,580.86c12.12-1.6,24.29-3.24,36.41-4.84,6.45-.84,13.41-1.6,19.04,1.78,5.63,3.38,8.12,12.66,3.01,16.75-1.81,1.47-4.17,1.96-6.45,2.44-15.13,3.07-30.26,6.13-45.43,9.24"/>
          <path class="cls-5" d="M910.54,557.84c12.64-21.82,24.63-44.03,35.89-66.65,12.94,5.11,18.18,22.26,15,36.21-3.18,13.95-12.51,25.42-21.58,36.26"/>
          <path class="cls-5" d="M638.54,586.85c-7.31,1.29-14.57,2.58-21.88,3.87-5.11.89-11,2.44-12.98,7.38-2.06,5.2,1.63,10.98,5.85,14.53,9.54,8,22.95,10.75,34.73,7.15,13.32-4.09,25.4-15.82,39.07-13.11"/>
          <path class="cls-5" d="M651.31,631.11c13.67,12.89,33.01,19.06,51.28,16.4"/>
          <path class="cls-5" d="M667.47,658.13c-15.86,2.31-31.68,4.98-47.45,7.95-2.75.53-5.59,1.11-7.78,2.89s-3.48,5.11-2.11,7.6c1.5,2.75,5.16,3.11,8.25,3.15,15.47.18,30.95.36,46.38.49"/>
          <path class="cls-5" d="M668.72,700.12c-13.5,1.11-26.18,9.78-32.45,22.22,10.92,2.89,21.88,5.78,32.8,8.66,2.58.67,5.33,1.38,7.87.62,2.75-.8,4.81-3.11,6.92-5.15,7.57-7.46,17.11-12.71,27.29-15.11-9.89,14.4-30.6,17.91-39.24,33.15-2.88,5.07-4.08,10.98-4.47,16.84-.3,4.62,0,9.69,2.92,13.24,4.08,4.89,11.86,4.71,17.06,1.11,5.2-3.55,8.25-9.6,10.49-15.6,3.78-10.04,5.97-20.75,11.13-30.08,5.16-9.33,14.27-17.42,24.67-17.06-13.54,20.04-19.94,44.79-19.69,69.23.09,7.78.9,15.91,5.07,22.39,4.13,6.49,12.47,10.71,19.43,7.73,8.98-3.82,10.62-16.17,10.1-26.22-.82-15.91-3.52-31.68-3.44-47.63.09-15.91,3.35-32.48,13.07-44.88"/>
          <path class="cls-5" d="M788.51,684.96c7.22,4.89,15.82,7.15,24.2,9.33,6.15,1.6,13.32,3.02,18.35-.98,6.23-4.93,5.29-14.75,3.74-22.71,7.35,1.33,17.19,1.24,19.6-6.04,1.81-5.42-2.19-11.06-6.62-14.49-4.47-3.42-9.8-6-12.64-10.93-1.5-2.58-2.15-5.6-3.78-8.09-2.88-4.49-8.12-6.58-13.11-8.18-8.77-2.8-18.01-5.47-27.08-5.91,2.58,24.62-34.64,46.39-2.66,67.98Z"/>
        </g>
        <g>
          <path class="cls-2" d="M47.74,793.69c5.76-23.15,12.08-46.17,19-69.01.82-2.75,1.72-5.6,3.35-7.91,5.16-7.2,15.39-7.15,23.98-6.4,5.76.49,12.12,1.29,16.03,5.73,5.72,6.49,3.05,16.71,0,24.93-7.05,18.97-14.36,37.81-22.05,56.47-4.51,11.02-15.13,41.55-30.3,39.63-19-2.44-13.11-31.01-10.02-43.46Z"/>
          <path class="cls-2" d="M42.2,791.03c-9.93-12.26-19.9-24.57-29.83-36.84-2.92-3.64-6.06-7.38-10.27-9.15-6.79-2.8-14.92.49-19.6,6.31-4.69,5.82-6.49,13.55-7.09,21.11-1.46,19.2,4.34,38.83,15.99,53.9,8.08,10.49,19.17,19.37,22.57,32.3-33.4-10.18-69.93-5.42-102.26,8-1.85.76-3.78,1.64-5.07,3.2-3.74,4.44-.56,11.42,3.44,15.64,14.27,15.06,37.01,18.62,56.95,14.26,19.94-4.35,37.82-15.42,55.28-26.26"/>
          <path class="cls-2" d="M122.23,759.79c4.08-8.58,9.84-16.62,17.88-21.33,6.83-3.95,15.9-6.31,18.4-14,9.89,13.6,8.04,32.53,4.9,49.23-3.09,16.35-6.96,32.53-11.65,48.43-5.33,18.22-13.28,41.81-31.25,49.85-11.99-30.26-12.59-82.2,1.72-112.19Z"/>
          <path class="cls-2" d="M90.38,692.7c2.92-14.97,9.07-29.24,17.88-41.46,4.38-6.04,9.54-11.77,16.16-15.02,6.62-3.24,14.87-3.64,20.98.49,7.35,24.79-14.4,48.48-17.71,74.2"/>
          <path class="cls-2" d="M53.89,733.71c-14.61-11.37-27.51-25.15-38.08-40.57-3.57-5.2-6.96-10.71-12.04-14.35-3.65-2.62-7.95-4.13-12.34-5.02-6.62-1.38-13.97-1.29-19.6,2.58-5.63,3.87-8.55,12.4-4.73,18.17,15.86,6.27,28.63,20.31,33.78,37.01"/>
          <path class="cls-2" d="M181.16,790.49c8.3-1.47,16.59-2.98,24.89-4.44,1.5-.27,3.09-.53,4.43.18,1.2.62,1.93,1.87,2.54,3.11,4.6,9.91,1.72,22.13-4.51,31.01-6.19,8.89-15.22,15.2-24.07,21.28-11.05,7.64-22.14,15.29-33.18,22.93"/>
          <path class="cls-2" d="M163.54,920.46c17.24-4.84,33.83,8.26,50.89,13.82,29.87,9.69,61.59-4.4,89.92-18.17,12.12-5.91,24.72-12.13,33.14-22.97,8.42-10.84,11.3-27.55,2.84-38.35-36.54-46.57-162.86,30.17-203.44,36.92"/>
          <path class="cls-2" d="M233.73,798.89c16.85-3.29,33.74-6.58,50.59-9.82,8.94-1.73,18.65-3.38,26.78.84,8.12,4.22,12.38,17.02,5.54,23.19-2.45,2.18-5.72,3.11-8.85,3.95-20.93,5.6-41.91,11.15-62.84,16.75"/>
          <path class="cls-2" d="M190.66,769.21c15.99-31.59,30.99-63.72,44.96-96.33,18.53,6.09,27.21,29.59,23.81,49.41-3.35,19.82-15.52,36.61-27.34,52.56"/>
          <path class="cls-2" d="M29.82,957.38c10.53,6.22,22.69,8.66,34.6,11.02,8.77,1.73,18.87,3.07,25.62-2.93,8.34-7.46,6.23-21.11,3.44-32.13,10.4,1.24,24.16.27,26.99-10.13,2.11-7.73-3.91-15.33-10.4-19.73s-14.18-7.6-18.57-14.22c-2.28-3.47-3.48-7.64-5.89-11.02-4.38-6.09-11.91-8.53-19-10.35-12.47-3.15-25.66-6.13-38.34-6,5.46,34.39-44.92,67.98,1.55,95.49Z"/>
        </g>
        <g>
          <path class="cls-1" d="M773.08,269.2c-13.97,6.62-28.07,12.84-42.34,18.66-1.72.71-3.48,1.42-5.37,1.51-5.72.27-9.97-5.2-13.2-10.09-2.15-3.29-4.43-7.02-3.83-10.93.86-5.73,7.05-8.62,12.42-10.4,12.38-4.18,24.84-8.13,37.35-11.82,7.39-2.18,27.04-9.29,32.41-.4,6.71,11.11-9.97,19.91-17.45,23.46Z"/>
          <path class="cls-1" d="M774.02,273.24c-1.98,10.44-3.95,20.84-5.93,31.28-.6,3.07-1.16,6.31-.26,9.29,1.42,4.8,6.49,7.73,11.35,7.82s9.46-2.18,13.5-5.02c10.19-7.2,17.54-18.53,20.2-30.97,1.85-8.66,1.68-18.31,6.66-25.5,8.85,22.04,26.48,39.55,46.64,51.14,1.16.67,2.36,1.33,3.7,1.38,3.78.13,5.93-4.49,6.36-8.35,1.55-13.86-6.15-27.46-16.63-36.3-10.49-8.8-23.47-13.73-36.19-18.48"/>
          <path class="cls-1" d="M864.07,257.34c12.89,13.91,29.31,24.26,47.15,29.81,4.04,1.24,8.85,2.13,12.16-.58,1.81-1.47,2.75-3.78,3.27-6.09,2.79-12.62-6.83-24.97-17.97-30.97-11.13-6-23.9-7.73-35.46-12.8-5.97-2.62-12.64-6.13-18.61-3.47"/>
          <path class="cls-1" d="M873.4,212.55c12.16-.8,24.03-5.69,33.4-13.73,1.29-1.11,2.58-2.4,2.75-4.13.39-4.31-5.8-5.24-9.8-4.04-8.64,2.53-16.81,6.8-23.9,12.49"/>
          <path class="cls-1" d="M909.08,180.91c21.1-8.26,39.93-22.53,53.94-40.79,2.36-3.11,4.64-6.4,5.54-10.26,1.89-8.04-2.66-16.08-7.05-23.02-.64-.98-1.33-2.04-2.45-2.4-1.29-.4-2.66.36-3.83,1.07-19.99,12.4-39.16,26.26-57.3,41.41-7.14,5.95-14.36,12.4-18.44,20.93-1.89,3.95-3.18,8.44-6.23,11.55-1.2,1.24-2.71,2.27-3.44,3.87s-.04,4.04,1.63,4.18"/>
          <path class="cls-1" d="M886.12,144.17c2.02-6.09,2.24-12.75.64-18.97-.39-1.47-1.03-3.11-2.41-3.64-1.07-.4-2.28,0-3.35.4-8.81,3.33-18.01,6.89-24.33,14.04-6.32,7.06-9.07,17.37-7.18,26.79"/>
          <path class="cls-1" d="M882.99,110.88c2.49-9.02,7.18-17.42,13.45-24.17,3.83-4.09,8.6-7.78,14.1-8,5.5-.22,11.39,4.35,10.87,10.04-.17,1.73-.86,3.38-1.55,4.93-5.33,12.22-11.09,25.02-21.62,32.84"/>
          <path class="cls-1" d="M862.61,113.11c2.75-8.18,7.14-15.82,12.81-22.22,4.94-5.6,11.43-12.22,9.16-19.42-1.33-4.22-5.46-6.93-9.67-7.64-4.21-.71-8.51.27-12.64,1.47-2.88.84-5.85,1.82-8.08,3.82-6.49,5.82-4.38,16.62-1.42,24.97,2.49,6.98,5.2,13.82,8.12,20.62"/>
          <path class="cls-1" d="M802.26,174.96c-5.07-15.42-10.23-30.97-18.65-44.7-3.78-6.18-8.21-11.86-12.04-18-6.4-10.35-11.09-21.82-13.75-33.81-1.63-7.42-1.76-16.84,4.51-20.84,5.29-3.38,12.55-.67,16.59,4.22,4.04,4.89,5.63,11.37,7.31,17.55,6.75,24.93,16.42,49.01,28.8,71.54-.13-5.95-.3-11.91-.43-17.91-.13-5.73-.3-11.51-.43-17.24-.09-4.31-.21-8.58-.04-12.89.39-10.13,2.28-20.22,5.63-29.77,2.62-7.46,6.66-15.24,13.8-18.22,7.14-2.98,17.28,2,16.72,9.95-9.46,9.42-8.85,24.97-7.61,38.43.82,8.62,1.59,17.24,2.41,25.86.6,6.31-.73,15.06-6.88,15.33"/>
          <path class="cls-1" d="M725.07,243.65c-5.97,1.38-12.38,1.69-18.1-.62-4.81-1.96-9.76-5.82-14.66-3.95,2.66-10.93,12.85-17.86,22.52-23.15,9.41-5.15,19.13-9.86,29.01-14,11.3-4.75,26.39-10.35,37.91-4.18-10.14,19.02-35.8,41.01-56.69,45.9Z"/>
          <path class="cls-1" d="M704.91,288.62c-8.68,4.71-18.35,7.38-28.11,7.78-4.86.22-9.84-.18-14.23-2.35-4.38-2.18-8.04-6.4-8.51-11.37,9.28-14.26,30.17-12.57,44.4-21.55"/>
          <path class="cls-1" d="M740.58,290.93c.43,12.53-1.03,25.15-4.34,37.24-1.12,4.04-2.41,8.18-2.11,12.4.21,3.07,1.25,5.95,2.62,8.66,2.11,4.09,5.2,7.95,9.46,9.33,4.26,1.38,9.76-.62,11.05-5.07-3.48-11.06-1.85-23.73,4.38-33.46"/>
          <path class="cls-1" d="M786.49,334.03c14.06,12,19.39,33.72,12.55,51.23,5.89,1.33,12.04-2.35,15.34-7.55,3.31-5.2,4.3-11.64,4.56-17.86.99-21.55-5.33-43.77.64-64.43"/>
          <path class="cls-1" d="M832.7,353.09c2.88,3.11,8.38,1.38,10.57-2.27,2.19-3.64,1.89-8.31,1.25-12.53-2.02-13.29-6.92-26.08-14.23-37.19"/>
          <path class="cls-1" d="M849.67,362.24c5.11,6.09,10.27,12.22,15.39,18.31,2.11,2.49,4.77,5.2,7.91,4.71,3.83-.58,5.42-5.33,5.76-9.33,1.72-18.13-6.28-36.92-20.29-47.9"/>
          <path class="cls-1" d="M715.78,199.44c-4.21-3.82-8.42-7.6-12.59-11.42-.73-.67-1.55-1.42-1.76-2.44-.17-.89.13-1.82.52-2.67,3.01-6.58,10.32-10.13,17.32-10.53,7.05-.4,13.93,1.78,20.67,3.91,8.42,2.71,16.85,5.42,25.27,8.13"/>
          <path class="cls-1" d="M787.91,154.61c-9.63-7.15-10.01-21.46-14.36-32.88-7.65-19.95-27.9-30.97-46.59-40.3-7.99-4-16.38-8.09-25.27-8.09-8.9.04-18.44,5.51-20.29,14.49-7.99,38.88,83,74.16,103.29,92.95"/>
          <path class="cls-1" d="M698.03,167.94c-8.68-7.6-17.37-15.24-26-22.84-4.6-4.04-9.46-8.53-10.75-14.62-1.29-6.09,3.31-13.69,9.28-12.62,2.11.4,3.91,1.73,5.63,3.07,11.52,8.84,23.04,17.68,34.56,26.48"/>
          <path class="cls-1" d="M701.21,203.26c-22.44,4.67-44.7,10.09-66.8,16.26-4.73-12.4,3.4-26.84,14.7-33.33,11.26-6.49,24.72-7.02,37.61-7.38"/>
          <path class="cls-1" d="M890.77,378.42c5.42,4.35,10.83,8.75,16.29,13.11,3.78,3.07,8.51,6.31,13.07,4.62,4.77-1.78,6.28-8.04,6.02-13.29-.64-11.77-7.22-23.06-16.98-29.15-11.09-6.93-26.43-8.13-33.18-19.55"/>
          <path class="cls-1" d="M912.21,341.58c.04-17.77-7.99-35.37-21.23-46.7"/>
          <path class="cls-1" d="M920.04,313.23c11.48,9.82,23.12,19.42,34.99,28.7,2.06,1.6,4.26,3.29,6.79,3.73,2.54.44,5.59-.71,6.4-3.29.9-2.8-1.16-5.64-3.05-7.82-9.59-11.11-19.13-22.17-28.71-33.28"/>
          <path class="cls-1" d="M947.2,286.04c9.2,8.89,22.91,12.49,35.07,9.15-4.9-9.6-9.84-19.15-14.74-28.75-1.16-2.27-2.41-4.62-4.51-6-2.28-1.47-5.07-1.51-7.74-1.69-9.67-.71-19.17-4.18-27.12-9.95,15.73-2,31.08,10.53,46.59,7.15,5.16-1.11,9.84-3.95,14.01-7.38,3.27-2.67,6.45-6.09,6.96-10.35.69-5.95-4.3-11.37-9.93-12.84-5.63-1.47-11.56.18-16.94,2.31-9.03,3.6-17.54,8.71-26.99,10.93-9.46,2.22-20.55.8-26.78-6.84,21.79-2.89,42.25-13.86,58.33-29.33,5.11-4.93,10.01-10.62,11.73-17.64,1.72-7.02-.69-15.55-7.05-18.66-8.17-4-17.41,2.58-23.77,9.2-10.06,10.53-18.87,22.35-29.49,32.26-10.66,9.91-23.73,17.95-38,18.8"/>
          <path class="cls-1" d="M862.14,210.42c-1.29-8.22-5.16-15.68-8.94-23.02-2.79-5.38-6.32-11.33-12.16-12.4-7.18-1.33-13.11,5.47-17.45,11.55-3.74-6.04-9.93-12.97-16.29-10.13-4.73,2.09-6.02,8.49-5.5,13.77.52,5.29,2.15,10.75.64,15.82-.77,2.67-2.36,5.07-3.05,7.73-1.2,4.84.73,9.91,2.79,14.44,3.61,7.95,7.65,16.22,13.02,22.93,14.83-17.28,52.61-4.49,46.94-40.7Z"/>
        </g>
        <g>
          <path class="cls-9" d="M72.72,83.25c4.04-16.35,8.51-32.57,13.37-48.65.6-1.96,1.2-3.95,2.36-5.6,3.61-5.07,10.83-5.02,16.89-4.53,4.08.36,8.55.89,11.3,4.04,4.04,4.58,2.15,11.77,0,17.55-4.94,13.37-10.14,26.66-15.52,39.81-3.18,7.78-10.66,29.28-21.36,27.95-13.37-1.64-9.24-21.77-7.05-30.57Z"/>
          <path class="cls-9" d="M68.85,81.38c-7.01-8.66-14.01-17.33-21.02-25.95-2.06-2.53-4.26-5.2-7.26-6.44-4.77-2-10.53.36-13.84,4.44s-4.6,9.55-4.99,14.89c-1.03,13.51,3.09,27.37,11.26,37.99,5.72,7.38,13.5,13.64,15.9,22.75-23.55-7.2-49.3-3.82-72.08,5.64-1.29.53-2.66,1.16-3.57,2.27-2.62,3.15-.39,8.04,2.41,11.02,10.06,10.62,26.09,13.11,40.15,10.04,14.06-3.07,26.65-10.84,38.99-18.53"/>
          <path class="cls-9" d="M21.31,168.91c-19.73,1.73-39.03,8.8-55.36,20.35-3.74,2.62-7.65,6.13-7.65,10.8,0,2.53,1.16,4.89,2.66,6.89,8.21,10.84,24.54,10.89,36.75,5.38,12.21-5.51,22.18-15.24,33.96-21.73,6.1-3.38,13.37-6.71,15.26-13.55"/>
          <path class="cls-9" d="M50.88,206.86c-7.48,10.93-11.56,24.35-11.39,37.72.04,1.82.21,3.82,1.46,5.11,3.18,3.24,8.04-1.47,9.8-5.69,3.74-9.06,5.8-18.88,6.02-28.75"/>
          <path class="cls-9" d="M52.3,258.49c-7.48,23.55-8.73,49.19-3.48,73.4.9,4.09,2.02,8.26,4.47,11.6,5.16,7.02,14.66,8.44,23.12,9.38,1.2.13,2.54.22,3.57-.49,1.2-.84,1.5-2.49,1.72-4,3.44-25.37,5.2-51.01,5.24-76.6,0-10.09-.3-20.53-4.38-29.73-1.89-4.27-4.64-8.35-5.07-13.06-.17-1.87,0-3.87-.82-5.55s-3.18-2.75-4.47-1.42"/>
          <path class="cls-9" d="M97,263.42c3.52,5.78,8.73,10.44,14.74,13.24,1.46.67,3.18,1.2,4.51.36,1.03-.67,1.5-1.96,1.89-3.15,3.22-9.73,6.53-19.95,5.07-30.17-1.46-10.13-7.82-19.37-16.63-24.04"/>
          <path class="cls-9" d="M125.71,283.02c5.54,8.18,9.11,17.77,10.32,27.68.73,6,.43,12.53-3.05,17.42-3.48,4.89-11.09,6.8-15.3,2.58-1.29-1.29-2.11-2.98-2.92-4.62-6.19-12.71-12.59-26.22-11.78-40.43"/>
          <path class="cls-9" d="M137.58,264.14c4.73,7.82,7.87,16.66,9.2,25.77,1.16,8,2.11,17.91,9.41,20.84,4.26,1.69,9.2-.04,12.59-3.15,3.4-3.11,5.46-7.46,7.26-11.77,1.25-3.02,2.45-6.18,2.36-9.46-.3-9.46-10.32-14.89-19-17.91-7.22-2.53-14.53-4.84-21.88-6.89"/>
          <path class="cls-9" d="M128.51,171.23c15.69,6,31.59,12,48.23,13.95,7.44.89,14.96.93,22.44,1.78,12.55,1.42,24.89,5.15,36.23,10.89,7.05,3.55,14.61,9.78,13.63,17.82-.86,6.75-7.87,11.2-14.49,11.33-6.62.18-12.85-2.8-18.91-5.51-24.41-10.93-50.16-18.75-76.42-23.28,4.86,3.87,9.71,7.73,14.61,11.6,4.69,3.73,9.37,7.46,14.1,11.2,3.48,2.8,7.01,5.55,10.32,8.58,7.87,7.11,14.61,15.46,20.03,24.7,4.21,7.24,7.69,15.86,5.33,23.99-2.36,8.09-13.2,13.42-19.13,7.64-1.2-14.35-14.01-24.26-25.62-32.21-7.44-5.07-14.83-10.18-22.27-15.24-5.46-3.73-11.56-10.71-7.65-16.13"/>
          <path class="cls-9" d="M125.24,59.34c2.88-6.04,6.92-11.73,12.59-15.02,4.81-2.8,11.22-4.44,12.98-9.86,6.96,9.6,5.67,22.93,3.44,34.7-2.19,11.51-4.9,22.93-8.21,34.17-3.78,12.84-9.37,29.46-22.01,35.15-8.47-21.37-8.9-57.99,1.2-79.14Z"/>
          <path class="cls-9" d="M102.8,12.06c2.06-10.53,6.4-20.62,12.59-29.24,3.09-4.27,6.71-8.31,11.39-10.58,4.69-2.27,10.49-2.58,14.79.36,5.2,17.51-10.14,34.17-12.47,52.3"/>
          <path class="cls-9" d="M77.06,40.95c-10.32-8.04-19.39-17.73-26.86-28.57-2.49-3.64-4.9-7.55-8.47-10.09-2.58-1.87-5.63-2.93-8.68-3.55-4.69-.98-9.84-.89-13.8,1.82-3.95,2.71-6.02,8.75-3.35,12.8,11.18,4.44,20.2,14.31,23.81,26.08"/>
          <path class="cls-9" d="M11.89,51.34c-19,4-39.93-6-49.34-23.55-4.99,4.13-6.19,11.86-4.26,18.17,1.93,6.31,6.4,11.42,11.22,15.82,16.59,15.24,38.51,24.7,51.06,43.68"/>
          <path class="cls-9" d="M-34.27,78.05c-4.38.36-6.71,6.22-5.24,10.53s5.37,7.15,9.2,9.46c11.95,7.15,25.49,11.55,39.24,12.75"/>
          <path class="cls-9" d="M166.76,80.98c5.85-1.07,11.69-2.09,17.54-3.15,1.03-.18,2.19-.36,3.14.13.86.44,1.38,1.33,1.76,2.22,3.22,6.98,1.2,15.6-3.18,21.86-4.38,6.27-10.75,10.71-16.98,15.02-7.78,5.38-15.6,10.75-23.38,16.17"/>
          <path class="cls-9" d="M154.34,172.6c12.16-3.42,23.86,5.82,35.89,9.73,21.06,6.8,43.41-3.11,63.4-12.8,8.55-4.18,17.41-8.58,23.34-16.17,5.93-7.6,7.95-19.42,2.02-27.02-25.75-32.84-114.81,21.28-143.39,26.04"/>
          <path class="cls-9" d="M203.81,86.94c11.91-2.31,23.77-4.62,35.68-6.93,6.32-1.24,13.15-2.4,18.87.62,5.72,2.98,8.73,12,3.91,16.35-1.72,1.56-4,2.18-6.23,2.75-14.79,3.95-29.53,7.86-44.32,11.82"/>
          <path class="cls-9" d="M173.47,65.96c11.26-22.26,21.84-44.92,31.72-67.89,13.07,4.27,19.17,20.88,16.81,34.84-2.36,13.95-10.96,25.82-19.26,37.06"/>
          <path class="cls-9" d="M-57.26,220.72c-13.24,1.91-25.27,11.2-30.78,23.82,10.96,2.22,21.88,4.4,32.84,6.62,2.58.53,5.33,1.02,7.82.13,2.66-.93,4.6-3.33,6.53-5.47,7.05-7.82,16.16-13.6,26.09-16.53-8.94,14.8-29.23,19.51-36.88,35.01-2.58,5.15-3.44,11.06-3.48,16.88-.04,4.58.56,9.6,3.65,12.89,4.3,4.58,11.99,3.95,16.89.09,4.9-3.82,7.61-9.95,9.5-16.04,3.18-10.13,4.77-20.84,9.33-30.35,4.56-9.55,13.11-18.04,23.38-18.31-12.25,20.57-17.19,45.37-15.6,69.45.52,7.69,1.81,15.64,6.23,21.82,4.47,6.18,12.89,9.82,19.6,6.44,8.64-4.31,9.59-16.57,8.51-26.44-1.68-15.64-5.24-31.06-6.02-46.79-.77-15.73,1.5-32.26,10.4-45.06"/>
          <path class="cls-9" d="M60.08,198.64c7.39,4.4,15.99,6.09,24.37,7.78,6.15,1.2,13.28,2.18,18.05-2.09,5.89-5.24,4.38-14.89,2.41-22.66,7.31.84,17.02.18,19-7.15,1.5-5.47-2.75-10.8-7.35-13.91-4.6-3.11-10.01-5.38-13.11-10.04-1.63-2.44-2.45-5.38-4.17-7.78-3.09-4.27-8.38-6-13.41-7.29-8.77-2.22-18.1-4.35-27.04-4.22,4.04,24.26-31.46,47.99,1.25,67.36Z"/>
        </g>
        <g>
          <path class="cls-6" d="M463.34,930.37c-8.55-19.82-16.63-39.81-24.2-60.07-.9-2.44-1.85-4.98-1.93-7.6-.3-8.09,7.01-14.04,13.54-18.53,4.38-3.02,9.33-6.18,14.49-5.29,7.61,1.29,11.3,10.09,13.63,17.68,5.37,17.55,10.44,35.24,15.22,52.96,2.79,10.44,11.95,38.35.17,45.81-14.87,9.38-26.31-14.31-30.9-24.97Z"/>
          <path class="cls-6" d="M587.74,972.76c20.46-6.98,41.13-14.09,59.4-25.86,8.17-5.29,15.82-11.46,23.98-16.8,13.75-8.98,29.01-15.42,44.92-19.02,9.84-2.22,22.31-2.27,27.51,6.62,4.38,7.51.73,17.77-5.8,23.42-6.53,5.64-15.09,7.82-23.3,10.09-33.05,9.24-65.03,22.62-94.99,39.86,7.91-.13,15.77-.27,23.68-.4,7.61-.13,15.22-.27,22.82-.4,5.67-.09,11.35-.18,17.02.09,13.41.67,26.74,3.47,39.33,8.31,9.89,3.78,20.07,9.6,23.94,19.73,3.87,10.13-2.88,24.44-13.37,23.51-12.34-13.46-32.92-12.84-50.81-11.24-11.39,1.02-22.82,2.04-34.21,3.07-8.38.76-19.94-1.2-20.2-9.86"/>
          <path class="cls-6" d="M497.69,862.83c-1.76-8.44-2.11-17.55,1.03-25.55,2.66-6.8,7.82-13.77,5.42-20.66,14.44,3.87,23.47,18.4,30.35,32.08,6.75,13.42,12.81,27.15,18.18,41.19,6.15,16.08,13.41,37.41,5.07,53.63-25.02-14.53-53.81-51.05-60.05-80.69Z"/>
          <path class="cls-6" d="M438.46,833.77c-6.1-12.31-9.54-26.04-9.97-39.86-.21-6.84.34-13.91,3.27-20.08,2.92-6.18,8.55-11.24,15.17-11.86,18.78,13.33,16.25,42.83,27.98,63.01"/>
          <path class="cls-6" d="M434.93,884.2c-16.59.44-33.27-1.78-49.22-6.58-5.37-1.6-10.79-3.51-16.38-3.15-4.04.27-7.91,1.73-11.52,3.64-5.46,2.89-10.62,7.24-12.47,13.29-1.89,6.04.69,13.77,6.58,15.68,14.7-4.8,31.42-2.31,44.19,6.58"/>
          <path class="cls-6" d="M556.32,850.21c5.07-5.91,10.14-11.77,15.26-17.68.9-1.07,1.93-2.18,3.27-2.44,1.2-.27,2.41.18,3.48.76,8.68,4.35,13.28,14.71,13.75,24.66.47,9.95-2.49,19.68-5.46,29.15-3.7,11.86-7.35,23.77-11.05,35.64"/>
          <path class="cls-6" d="M614.77,952.76c9.59-13.51,28.54-13.86,43.67-19.91,26.48-10.58,41.31-39.06,53.9-65.36,5.37-11.29,10.92-23.06,10.96-35.64.09-12.57-7.05-26.17-18.91-28.88-51.36-11.73-99.12,116.46-124.22,144.94"/>
          <path class="cls-6" d="M598.22,825.51c10.19-12.17,20.37-24.35,30.56-36.52,5.42-6.44,11.39-13.29,19.47-15.02,8.08-1.73,18.1,4.84,16.59,13.24-.52,2.98-2.36,5.51-4.13,7.95-11.82,16.17-23.64,32.39-35.46,48.57"/>
          <path class="cls-6" d="M551.42,829.59c-5.93-31.77-12.81-63.32-20.72-94.64,16.46-6.53,35.46,5.15,43.89,21.15,8.42,16,8.98,35.06,9.33,53.28"/>
        </g>
        <g>
          <path class="cls-7" d="M424.23-31.52c-6.36-7.82-12.68-15.68-19.04-23.51-1.89-2.31-3.87-4.71-6.58-5.82-4.34-1.78-9.54.31-12.51,4.04-3.01,3.69-4.13,8.66-4.51,13.46-.95,12.22,2.79,24.79,10.19,34.39,5.16,6.67,12.21,12.35,14.4,20.62-21.32-6.49-44.62-3.47-65.25,5.11-1.2.49-2.41,1.02-3.22,2.04-2.36,2.84-.34,7.29,2.19,9.95,9.11,9.6,23.6,11.86,36.32,9.11,12.72-2.75,24.16-9.82,35.29-16.75"/>
          <path class="cls-7" d="M381.25,47.7c-17.88,1.56-35.29,7.95-50.12,18.4-3.35,2.35-6.92,5.55-6.92,9.78,0,2.27,1.07,4.44,2.41,6.22,7.44,9.82,22.22,9.86,33.27,4.84,11.05-4.98,20.07-13.77,30.73-19.68,5.5-3.07,12.12-6.04,13.8-12.26"/>
          <path class="cls-7" d="M407.98,82.05c-6.79,9.86-10.44,22.04-10.32,34.12,0,1.64.17,3.47,1.33,4.62,2.88,2.93,7.31-1.33,8.85-5.15,3.4-8.22,5.24-17.11,5.46-26.04"/>
          <path class="cls-7" d="M409.27,128.79c-6.79,21.33-7.87,44.52-3.14,66.43.82,3.69,1.81,7.46,4.04,10.49,4.69,6.35,13.24,7.64,20.93,8.49,1.12.13,2.32.22,3.22-.44,1.07-.76,1.38-2.27,1.55-3.6,3.14-22.97,4.69-46.17,4.73-69.36,0-9.15-.26-18.57-3.95-26.88-1.72-3.87-4.21-7.55-4.6-11.82-.17-1.69,0-3.47-.73-5.02-.73-1.51-2.88-2.49-4.04-1.29"/>
          <path class="cls-7" d="M449.72,133.28c3.18,5.24,7.87,9.46,13.32,12,1.29.62,2.88,1.11,4.08.36.95-.58,1.38-1.78,1.72-2.84,2.92-8.84,5.93-18.08,4.6-27.33-1.29-9.15-7.09-17.51-15.04-21.77"/>
          <path class="cls-7" d="M475.72,151.01c5.03,7.42,8.25,16.08,9.33,25.06.64,5.42.39,11.37-2.75,15.73-3.18,4.4-10.06,6.13-13.84,2.35-1.16-1.16-1.93-2.71-2.66-4.18-5.63-11.51-11.39-23.73-10.66-36.57"/>
          <path class="cls-7" d="M486.47,133.9c4.26,7.06,7.09,15.06,8.3,23.33,1.03,7.24,1.93,16.22,8.51,18.84,3.83,1.51,8.34-.04,11.39-2.84,3.05-2.8,4.94-6.75,6.58-10.66,1.16-2.75,2.24-5.6,2.11-8.58-.26-8.58-9.37-13.46-17.19-16.22-6.53-2.31-13.15-4.35-19.82-6.22"/>
          <path class="cls-7" d="M478.26,49.79c14.23,5.42,28.58,10.84,43.63,12.66,6.75.8,13.54.84,20.29,1.6,11.35,1.29,22.52,4.67,32.8,9.86,6.36,3.24,13.24,8.84,12.34,16.13-.77,6.13-7.14,10.13-13.11,10.26-5.97.13-11.61-2.53-17.11-4.98-22.09-9.91-45.39-16.97-69.16-21.06,4.38,3.51,8.81,6.98,13.2,10.49,4.26,3.38,8.51,6.75,12.77,10.13,3.18,2.53,6.32,5.02,9.33,7.78,7.09,6.44,13.24,14,18.14,22.39,3.83,6.53,6.96,14.4,4.81,21.68-2.15,7.29-11.95,12.13-17.32,6.89-1.12-13.02-12.68-21.95-23.21-29.15-6.71-4.62-13.41-9.2-20.16-13.82-4.94-3.38-10.44-9.69-6.92-14.57"/>
          <path class="cls-7" d="M475.29-51.47c2.62-5.47,6.28-10.62,11.39-13.6,4.34-2.53,10.14-4.04,11.73-8.93,6.32,8.66,5.11,20.75,3.14,31.41-1.98,10.44-4.47,20.75-7.44,30.93-3.4,11.64-8.47,26.66-19.94,31.81-7.61-19.33-7.99-52.48,1.12-71.63Z"/>
          <path class="cls-7" d="M314.06-26.95c-7.52.27-15.04.53-22.57.84-3.05.13-6.66.53-8.21,3.24-1.89,3.29.6,7.42,3.22,10.09,12.08,12.31,30.47,17.51,46.94,13.33"/>
          <path class="cls-7" d="M512.9-31.88c5.29-.93,10.57-1.91,15.9-2.84.95-.18,1.98-.31,2.84.13.77.4,1.25,1.2,1.59,2,2.92,6.31,1.07,14.09-2.88,19.77-3.95,5.69-9.71,9.69-15.34,13.6-7.05,4.89-14.1,9.73-21.19,14.62"/>
          <path class="cls-7" d="M501.64,51.03c11-3.11,21.58,5.29,32.5,8.8,19.04,6.18,39.29-2.8,57.38-11.6,7.74-3.78,15.77-7.73,21.15-14.66,5.37-6.89,7.22-17.6,1.81-24.48-23.3-29.73-103.89,19.24-129.77,23.55"/>
          <path class="cls-7" d="M277.49-4.95c-6.45,1.56-12.89,3.11-19.34,4.62-4.51,1.07-9.71,2.8-11.22,7.29-1.59,4.75,2.02,9.73,5.97,12.66,8.94,6.62,21.06,8.35,31.38,4.49,11.69-4.35,21.88-15.51,34.21-13.82"/>
          <path class="cls-7" d="M291.11,33.93c12.85,10.8,30.43,15.24,46.64,11.86"/>
          <path class="cls-7" d="M306.89,57.12c-14.06,2.93-28.07,6.13-41.95,9.69-2.41.62-4.94,1.29-6.79,2.98-1.89,1.69-2.84,4.75-1.5,6.93,1.5,2.4,4.77,2.53,7.52,2.4,13.84-.67,27.64-1.38,41.48-2.04"/>
          <path class="cls-7" d="M310.11,94.62c-11.99,1.73-22.91,10.13-27.85,21.59,9.89,2,19.82,4,29.7,6,2.32.49,4.81.93,7.05.13,2.41-.84,4.17-3.02,5.93-4.98,6.36-7.06,14.66-12.31,23.64-14.97-8.08,13.37-26.43,17.64-33.4,31.68-2.32,4.67-3.09,10.04-3.14,15.29-.04,4.13.52,8.66,3.31,11.64,3.87,4.13,10.83,3.55,15.3.09s6.88-9.02,8.6-14.49c2.88-9.15,4.3-18.84,8.42-27.46,4.13-8.62,11.86-16.35,21.15-16.57-11.09,18.62-15.56,41.06-14.1,62.87.47,6.93,1.63,14.17,5.63,19.73,4.04,5.55,11.69,8.89,17.75,5.87,7.82-3.91,8.68-15.02,7.69-23.95-1.5-14.17-4.77-28.13-5.46-42.34-.73-14.22,1.38-29.19,9.41-40.75"/>
          <path class="cls-7" d="M416.32,74.63c6.71,3.95,14.49,5.51,22.05,7.02,5.59,1.11,12.04,1.96,16.33-1.87,5.33-4.75,4-13.46,2.19-20.48,6.62.8,15.39.18,17.19-6.44,1.33-4.93-2.49-9.78-6.66-12.57-4.13-2.8-9.07-4.84-11.86-9.06-1.46-2.22-2.24-4.89-3.78-7.02-2.79-3.87-7.61-5.47-12.12-6.62-7.95-2.04-16.38-3.91-24.46-3.82,3.65,21.86-28.5,43.32,1.12,60.87Z"/>
        </g>
        <g>
          <path class="cls-6" d="M1073.4,436.63c-18.1-11.02-35.89-22.53-53.38-34.48-2.11-1.47-4.3-2.93-5.8-5.02-4.77-6.44-2.15-15.64.64-23.24,1.89-5.07,4.13-10.62,8.85-13.02,6.92-3.51,14.87,1.47,21.02,6.27,14.23,11.11,28.24,22.48,42.08,34.08,8.17,6.84,31.25,24.08,25.79,37.28-6.92,16.53-29.49,4.04-39.2-1.87Z"/>
          <path class="cls-6" d="M1069.75,440.94c-12.85,5.87-25.7,11.73-38.56,17.6-3.78,1.73-7.74,3.6-10.27,6.98-4.08,5.42-3.35,13.55.39,19.24,3.7,5.69,9.8,9.29,16.03,11.69,15.77,6.13,33.83,5.87,49.43-.8,10.87-4.67,21.15-12.4,32.92-12.22-16.98,27.5-22.18,61.63-19,94.15.17,1.87.43,3.82,1.42,5.38,2.84,4.49,9.5,3.38,14.06.84,16.29-9.06,25.02-28.66,26.35-47.72,1.38-19.06-3.44-37.95-8.25-56.43"/>
          <path class="cls-6" d="M1157.47,532.91c-4.99,25.86-3.4,53.01,4.56,78.02,1.81,5.69,4.64,11.95,10.19,13.64,3.01.93,6.28.22,9.2-.98,15.9-6.62,21.79-27.46,19.56-45.06-2.24-17.6-10.32-33.81-13.88-51.14-1.85-8.98-3.22-19.46-10.79-24.31"/>
          <path class="cls-6" d="M1213.39,508.7c10.4,13.46,24.97,23.46,41.05,27.99,2.19.62,4.64,1.11,6.62-.04,4.99-2.89,1.12-10.8-3.31-14.53-9.54-8-20.55-14.17-32.24-17.95"/>
          <path class="cls-6" d="M1275.63,525.31c25.49,18,55.71,28.7,86.52,30.66,5.2.31,10.62.4,15.47-1.56,10.23-4.13,15.34-15.68,19.47-26.22.6-1.51,1.2-3.15.69-4.71-.56-1.82-2.45-2.84-4.17-3.6-29.1-13.46-59.1-24.84-89.75-34.04-12.08-3.64-24.67-6.93-37.09-5.02-5.8.89-11.65,2.93-17.41,1.82-2.32-.44-4.6-1.38-6.92-.98-2.32.44-4.43,3.07-3.27,5.2"/>
          <path class="cls-6" d="M1297.51,469.95c8.17-2.44,15.6-7.42,21.1-14.09,1.33-1.6,2.58-3.64,2.06-5.64-.43-1.56-1.76-2.62-3.05-3.55-10.49-7.64-21.53-15.46-34.26-17.28-12.64-1.78-25.92,3.11-34.69,12.66"/>
          <path class="cls-6" d="M1331.21,440.27c11.78-4.18,24.5-5.29,36.79-3.29,7.44,1.2,15.17,3.91,19.73,10.09,4.56,6.18,4.17,16.62-2.36,20.44-2.02,1.2-4.3,1.64-6.58,2.09-17.41,3.38-35.8,6.71-52.52.58"/>
          <path class="cls-6" d="M1312.86,418.36c11.05-3.24,22.74-4.09,34.09-2.53,9.97,1.38,22.18,3.69,28.24-4.58,3.52-4.8,3.27-11.77.69-17.2-2.58-5.42-6.96-9.64-11.48-13.51-3.14-2.71-6.53-5.33-10.49-6.4-11.39-2.98-21.49,7.91-28.2,17.86-5.63,8.31-10.96,16.84-16.03,25.5"/>
          <path class="cls-6" d="M1198.52,396.72c12.77-17.95,25.62-36.08,33.91-56.65,3.7-9.2,6.49-18.8,10.14-28.04,6.19-15.55,15-29.95,25.96-42.39,6.79-7.73,16.89-15.2,26.13-11.06,7.78,3.51,10.57,14.09,8.38,22.57-2.15,8.49-7.91,15.42-13.32,22.17-21.79,27.33-40.36,57.41-55.1,89.36,6.36-4.84,12.72-9.69,19.08-14.53,6.15-4.67,12.25-9.33,18.4-14,4.56-3.47,9.16-6.98,13.93-10.13,11.3-7.51,23.73-13.15,36.71-16.8,10.14-2.84,21.75-4.18,30.56,1.73s11.35,21.64,2.28,27.15c-17.62-3.55-34,9.24-47.71,21.24-8.73,7.64-17.45,15.33-26.18,22.97-6.4,5.6-16.94,10.93-22.01,4.04"/>
          <path class="cls-6" d="M1063.56,361c-6.19-5.82-11.52-13.06-13.45-21.46-1.63-7.15-1.33-15.91-7.14-20.08,13.97-5.51,29.44.93,42.72,8,12.98,6.89,25.66,14.49,37.91,22.71,14.01,9.42,31.89,22.48,34.17,40.7-28.58,3.11-72.55-9.46-94.22-29.86Z"/>
          <path class="cls-6" d="M999,372.77c-11.86-6.4-22.35-15.51-30.47-26.53-4-5.47-7.52-11.55-8.6-18.31-1.07-6.75.69-14.31,5.72-18.75,22.78-.36,37.27,25.19,58.11,34.61"/>
          <path class="cls-6" d="M1024.36,415.96c-13.28,10.31-28.11,18.44-43.8,24.08-5.29,1.91-10.79,3.6-15.09,7.24-3.14,2.62-5.5,6.13-7.35,9.86-2.79,5.64-4.6,12.26-2.75,18.31,1.85,6.04,8.3,10.8,14.14,8.84,9.28-12.71,24.33-20.71,39.72-21.11"/>
          <path class="cls-6" d="M1013.52,502.92c-2.02,25.68-21.45,48.88-45.78,54.65,3.14,7.86,11.95,12.13,20.2,11.91,8.25-.22,15.95-4.13,22.95-8.66,24.16-15.73,43.33-40.39,70.45-49.63"/>
          <path class="cls-6" d="M1029,571.48c-1.12,5.78,5.07,10.8,10.75,10.44,5.67-.36,10.49-4.31,14.57-8.4,12.85-12.75,22.91-28.44,29.27-45.59"/>
          <path class="cls-6" d="M1032.31,598.27c-2.62,10.71-5.2,21.46-7.82,32.17-1.07,4.35-1.93,9.6,1.07,12.89,3.61,3.95,10.01,2.09,14.61-.58,21.02-12.22,35.16-36.12,36.11-61.01"/>
          <path class="cls-6" d="M1104.3,315.63c.86-7.86,1.68-15.68,2.54-23.55.13-1.42.34-2.93,1.29-3.95.82-.93,2.06-1.29,3.27-1.51,9.5-1.64,19.08,4.04,25.02,11.86,5.93,7.82,8.98,17.55,11.91,27.02,3.65,11.91,7.31,23.77,10.96,35.68"/>
          <path class="cls-6" d="M1209.35,364.24c.26-16.75,15.52-28.39,24.46-42.39,15.69-24.48,11.78-56.61,7.31-85.58-1.93-12.44-4-25.33-11-35.64-7.01-10.31-20.42-17.11-31.59-12.22-48.48,21.19-15.56,154.32-20.07,192.53"/>
          <path class="cls-6" d="M1124.59,270.4c1.5-16.04,2.97-32.04,4.47-48.08.77-8.49,1.85-17.64,7.48-23.91,5.63-6.27,17.49-6.89,20.98.89,1.25,2.75,1.16,5.91,1.07,8.93-.56,20.26-1.16,40.57-1.72,60.83"/>
          <path class="cls-6" d="M1088.7,301.73c-22.61-22.35-45.91-43.94-69.89-64.78,9.8-15.15,31.81-17.02,47.67-9.02,15.86,8,26.95,23.19,37.44,37.86"/>
          <path class="cls-6" d="M1046.92,658.61c-.52,9.73-.99,19.42-1.5,29.15-.34,6.8-.17,14.8,5.2,18.75,5.67,4.13,13.63,1.02,19.08-3.42,12.29-10,19.34-26.39,18.35-42.52-1.16-18.26-11.82-37.01-4.77-53.76"/>
          <path class="cls-6" d="M1103.66,654.66c19.3-13.86,32.15-36.92,34.09-61.14"/>
          <path class="cls-6" d="M1140.58,641.6c-1.68,20.97-2.97,42.03-3.78,63.05-.13,3.64-.26,7.46,1.25,10.8,1.5,3.33,5.16,5.91,8.55,4.84,3.74-1.16,5.2-5.73,6.1-9.69,4.56-19.77,9.11-39.55,13.67-59.32"/>
          <path class="cls-6" d="M1191.34,651.82c-2.45,17.6,4.38,36.35,17.49,47.85,6.53-13.2,13.11-26.39,19.64-39.59,1.55-3.11,3.14-6.44,2.97-9.91-.17-3.78-2.36-7.06-4.21-10.31-6.79-11.82-10.44-25.5-10.44-39.28,14.49,16.71,12.89,44.3,28.71,59.63,5.29,5.11,12.04,8.31,18.96,10.49,5.46,1.69,11.65,2.71,16.68-.04,7.01-3.82,8.98-13.91,6.15-21.55-2.84-7.64-9.2-13.24-15.77-17.86-10.96-7.64-23.21-13.51-32.97-22.75-9.76-9.2-16.89-23.19-13.5-36.44,20.2,23.02,48.1,38.17,77.5,44.74,9.37,2.09,19.34,3.29,28.28-.18,8.94-3.47,16.33-12.97,14.74-22.75-2.06-12.62-16.42-18.17-28.58-20.35-19.3-3.42-39.03-4.4-58.07-8.98-19.08-4.62-38.04-13.46-50.16-29.37"/>
          <path class="cls-6" d="M1206.86,493.99c7.91-7.91,13.02-18.26,17.97-28.39,3.65-7.46,7.35-16.22,3.95-23.82-4.17-9.38-16.2-10.93-26.22-11.2,3.65-9.06,6.32-21.68-1.76-26.84-5.97-3.87-13.93-.31-19.26,4.44-5.33,4.75-9.97,10.89-16.68,13.15-3.52,1.2-7.31,1.2-10.79,2.53-6.23,2.4-10.19,8.58-13.5,14.53-5.8,10.44-11.65,21.55-14.74,33.06,30.47,3.6,46.16,57.41,81.02,22.53Z"/>
        </g>
        <g>
          <path class="cls-8" d="M857.97,935.66c-2.06-4.35-3.35-9.29-2.66-14.09.6-4.09,2.54-8.58.34-12,8.38.13,15.13,6.84,20.63,13.37,5.37,6.4,10.44,13.06,15.17,20,5.42,7.91,12.08,18.57,9.59,28.57-15.52-4.53-35.89-20.57-43.07-35.86Z"/>
          <path class="cls-8" d="M821.95,927.84c-4.9-5.91-8.51-12.93-10.53-20.39-.99-3.69-1.59-7.64-.77-11.37.82-3.78,3.22-7.29,6.75-8.53,11.95,4.71,14.31,21.15,23.25,30.57"/>
          <path class="cls-8" d="M888.36,920.82c2.02-3.91,4.04-7.82,6.06-11.73.34-.71.77-1.42,1.46-1.78.6-.31,1.33-.22,2.02-.09,5.29,1.2,9.11,6.22,10.62,11.6,1.5,5.38,1.12,11.06.73,16.66-.52,6.98-.99,13.95-1.5,20.93"/>
          <path class="cls-8" d="M933.28,968.8c3.52-8.66,13.8-11.46,21.28-16.8,13.11-9.38,17.58-26.93,21.1-43.01,1.5-6.89,3.01-14.04,1.46-20.93-1.55-6.89-7.18-13.33-14.01-13.2-29.53.58-39.29,77-49.34,95.98"/>
          <path class="cls-8" d="M908.09,901.62c4-8.04,8.04-16.04,12.04-24.08,2.11-4.27,4.51-8.8,8.73-10.84,4.17-2.04,10.49.18,10.75,4.98.09,1.69-.6,3.33-1.25,4.89-4.38,10.44-8.77,20.88-13.2,31.33"/>
          <path class="cls-8" d="M883.07,910.2c-7.26-16.53-15.04-32.79-23.34-48.83,8.17-5.78,19.99-2,26.65,5.6,6.66,7.6,9.37,17.91,11.86,27.82"/>
        </g>
        <g>
          <path class="cls-8" d="M719.35-22.73c.13,8.13.21,16.31.34,24.44.04,2.4.09,4.93,1.2,7.02,1.81,3.38,6.06,4.75,9.71,4,3.65-.76,6.79-3.2,9.37-6,6.53-7.06,10.36-16.8,10.44-26.57.04-6.84-1.55-14,1.12-20.26,10.01,15.11,25.96,25.37,42.9,30.79.99.31,1.98.62,3.01.44,2.84-.53,3.78-4.31,3.48-7.33-.95-10.66-8.85-19.64-18.05-24.53-9.24-4.89-19.73-6.49-30-7.95"/>
          <path class="cls-8" d="M669.79.11c-5.8,4.93-12.64,8.53-19.94,10.44-3.61.93-7.44,1.47-11.05.58-3.61-.89-7.01-3.51-8.12-7.15,4.81-12.22,20.76-14.35,30.04-23.46"/>
          <path class="cls-8" d="M696.91-3.93c2.24,9.33,3.05,19.06,2.45,28.66-.21,3.24-.56,6.53.3,9.64.64,2.27,1.85,4.27,3.31,6.09,2.19,2.75,5.11,5.15,8.55,5.47,3.44.36,7.22-2.04,7.52-5.6-4.3-7.73-5.03-17.51-1.85-25.82"/>
          <path class="cls-8" d="M738,20.91c12.38,6.71,19.73,22.17,17.28,36.44,4.64.04,8.68-3.73,10.4-8.18,1.68-4.44,1.46-9.42.69-14.13-2.58-16.35-10.7-31.99-9.37-48.52"/>
          <path class="cls-8" d="M775.66,27.66c2.62,1.87,6.53-.31,7.57-3.42,1.03-3.11.13-6.53-.99-9.64-3.57-9.64-9.2-18.44-16.38-25.64"/>
          <path class="cls-8" d="M789.8,31.79c4.77,3.73,9.59,7.46,14.36,11.24,1.93,1.51,4.38,3.15,6.66,2.27,2.79-1.07,3.22-4.89,2.92-7.95-1.5-13.91-10.36-26.7-22.57-32.66"/>
          <path class="cls-8" d="M823.15,37.17c4.73,2.4,9.5,4.8,14.23,7.2,3.31,1.69,7.35,3.33,10.49,1.33,3.31-2.13,3.48-7.06,2.49-10.93-2.28-8.75-8.94-16.13-17.24-19.11-9.37-3.38-21.1-1.78-27.94-9.24"/>
          <path class="cls-8" d="M833.6,6.02c-2.71-13.37-11.39-25.28-23.08-31.64"/>
          <path class="cls-8" d="M835.15-16.55c10.1,5.51,20.37,10.8,30.69,15.86,1.81.89,3.7,1.78,5.67,1.69,1.98-.09,4.08-1.47,4.3-3.51.26-2.27-1.72-4.04-3.48-5.38-8.9-6.75-17.79-13.55-26.65-20.31"/>
        </g>
        <g>
          <path class="cls-8" d="M1045.76,872.16c-10.92,4.53-21.96,8.75-33.14,12.71-1.33.49-2.75.93-4.17.93-4.38,0-7.48-4.35-9.76-8.26-1.55-2.62-3.14-5.55-2.54-8.53.86-4.35,5.72-6.31,9.89-7.51,9.63-2.71,19.34-5.29,29.06-7.64,5.72-1.38,21.06-6.09,24.84.93,4.77,8.84-8.3,14.97-14.18,17.37Z"/>
          <path class="cls-8" d="M1046.36,875.32c-1.89,7.91-3.78,15.82-5.67,23.73-.56,2.35-1.12,4.8-.56,7.11.9,3.73,4.69,6.18,8.42,6.44,3.74.22,7.35-1.33,10.53-3.33,8.08-5.15,14.14-13.55,16.59-22.97,1.72-6.58,1.93-13.95,6.06-19.28,6.02,17.24,18.87,31.33,33.91,41.01.86.58,1.76,1.11,2.79,1.2,2.88.22,4.69-3.2,5.16-6.18,1.72-10.58-3.74-21.33-11.48-28.48-7.74-7.15-17.49-11.42-27.08-15.55"/>
          <path class="cls-8" d="M1115.95,866.56c9.41,11.15,21.62,19.73,35.07,24.66,3.05,1.11,6.75,2,9.37,0,1.42-1.07,2.28-2.8,2.75-4.53,2.58-9.6-4.34-19.42-12.64-24.44-8.34-5.02-18.05-6.84-26.74-11.15-4.51-2.22-9.46-5.2-14.14-3.38"/>
          <path class="cls-8" d="M1124.72,832.57c9.37-.13,18.65-3.42,26.13-9.24,1.03-.8,2.06-1.73,2.24-3.07.47-3.29-4.26-4.22-7.39-3.47-6.71,1.64-13.11,4.58-18.78,8.66"/>
          <path class="cls-8" d="M1153.22,809.73c16.46-5.55,31.42-15.73,42.85-29.19,1.93-2.27,3.83-4.75,4.64-7.64,1.72-6.09-1.46-12.44-4.6-17.91-.43-.8-.95-1.64-1.81-1.96-.99-.36-2.06.18-2.97.67-15.77,8.75-30.95,18.62-45.39,29.55-5.72,4.31-11.43,8.93-14.87,15.33-1.59,2.98-2.71,6.35-5.2,8.62-.99.89-2.19,1.64-2.79,2.84-.6,1.2-.17,3.11,1.12,3.29"/>
          <path class="cls-8" d="M1136.97,780.67c1.76-4.58,2.19-9.69,1.16-14.53-.26-1.16-.69-2.44-1.72-2.89-.82-.36-1.72-.09-2.58.18-6.88,2.22-14.06,4.58-19.17,9.82-5.07,5.2-7.57,12.97-6.45,20.26"/>
          <path class="cls-8" d="M1135.72,755.04c2.24-6.84,6.1-13.06,11.22-18.04,3.05-2.98,6.88-5.64,11.09-5.6,4.21.04,8.55,3.78,7.99,8.09-.17,1.33-.77,2.53-1.38,3.73-4.51,9.15-9.41,18.75-17.75,24.35"/>
          <path class="cls-8" d="M1120.04,755.92c2.41-6.18,6.02-11.82,10.62-16.53,4-4.09,9.2-8.93,7.74-14.53-.86-3.29-3.95-5.51-7.14-6.22-3.22-.71-6.53-.09-9.76.62-2.24.53-4.56,1.16-6.36,2.62-5.2,4.22-3.95,12.57-1.98,19.06,1.63,5.42,3.48,10.8,5.46,16.13"/>
          <path class="cls-8" d="M1071.51,801.02c-3.35-12-6.71-24.13-12.72-35.01-2.66-4.84-5.85-9.42-8.55-14.26-4.56-8.18-7.74-17.15-9.33-26.44-.99-5.78-.73-12.97,4.21-15.82,4.17-2.4,9.67-.04,12.55,3.87,2.92,3.91,3.91,8.93,4.94,13.73,4.26,19.37,10.83,38.21,19.51,55.94.09-4.58.21-9.15.3-13.73.09-4.4.21-8.84.3-13.24.09-3.29.13-6.58.43-9.86.64-7.78,2.49-15.42,5.37-22.62,2.28-5.64,5.67-11.42,11.22-13.46,5.59-2.04,13.2,2.22,12.47,8.26-7.57,6.84-7.69,18.8-7.22,29.19.3,6.62.6,13.29.9,19.91.21,4.84-1.12,11.51-5.8,11.51"/>
          <path class="cls-8" d="M1009.87,850.74c-4.64.84-9.54.84-13.84-1.2-3.61-1.69-7.31-4.84-11.09-3.6,2.41-8.31,10.49-13.2,18.1-16.88,7.44-3.6,15-6.8,22.74-9.64,8.85-3.2,20.59-6.93,29.19-1.73-8.42,14.22-28.88,30.13-45.09,33.06Z"/>
          <path class="cls-8" d="M992.81,884.42c-6.83,3.24-14.36,4.93-21.84,4.89-3.74-.04-7.52-.53-10.83-2.35s-5.93-5.2-6.1-9.06c7.65-10.58,23.6-8.49,34.82-14.8"/>
          <path class="cls-8" d="M1020.06,887.62c-.13,9.64-1.72,19.24-4.64,28.39-.99,3.07-2.15,6.18-2.06,9.42.04,2.35.77,4.62,1.72,6.75,1.46,3.24,3.7,6.31,6.92,7.55,3.22,1.24,7.48-.09,8.64-3.47-2.28-8.62-.56-18.26,4.56-25.46"/>
          <path class="cls-8" d="M1053.71,922.42c10.36,9.73,13.67,26.62,7.78,39.77,4.47,1.24,9.33-1.33,12.04-5.2,2.75-3.87,3.7-8.75,4.13-13.51,1.5-16.48-2.49-33.77,2.84-49.37"/>
          <path class="cls-8" d="M1088.49,938.81c2.11,2.49,6.36,1.38,8.17-1.33,1.81-2.71,1.72-6.31,1.42-9.55-1.07-10.26-4.34-20.26-9.54-29.06"/>
          <path class="cls-8" d="M1004.37,816.49c-3.09-3.07-6.19-6.18-9.24-9.24-.56-.53-1.12-1.16-1.25-1.96-.13-.71.17-1.38.47-2,2.54-4.93,8.25-7.38,13.67-7.42,5.42-.04,10.62,1.91,15.69,3.82,6.36,2.4,12.72,4.8,19.08,7.2"/>
          <path class="cls-8" d="M1061.28,784.89c-7.14-5.87-6.88-16.84-9.84-25.77-5.16-15.6-20.29-24.84-34.26-32.7-6.02-3.38-12.25-6.84-19.08-7.15-6.83-.31-14.36,3.51-16.08,10.31-7.52,29.5,60.99,60.07,75.86,75.23"/>
          <path class="cls-8" d="M991.86,791.65c-6.36-6.18-12.77-12.35-19.13-18.53-3.4-3.29-6.96-6.89-7.69-11.64-.73-4.75,3.05-10.4,7.57-9.33,1.59.36,2.97,1.47,4.21,2.58,8.51,7.2,17.02,14.44,25.57,21.64"/>
          <path class="cls-8" d="M993.02,818.89c-17.37,2.71-34.64,6-51.79,9.86-3.18-9.69,3.57-20.44,12.47-24.97,8.85-4.53,19.21-4.4,29.1-4.22"/>
          <path class="cls-8" d="M1149.87,933.04c.64-13.64-4.86-27.42-14.57-36.61"/>
          <path class="cls-8" d="M1156.87,911.62c8.42,8,17.06,15.77,25.79,23.37,1.5,1.33,3.14,2.67,5.07,3.11s4.3-.36,5.03-2.27c.77-2.13-.69-4.35-2.06-6.13-6.92-8.89-13.88-17.73-20.8-26.62"/>
          <path class="cls-8" d="M1178.71,891.8c6.71,7.15,17.11,10.44,26.56,8.35-3.44-7.55-6.83-15.06-10.27-22.62-.82-1.78-1.68-3.64-3.27-4.75-1.68-1.2-3.83-1.33-5.89-1.6-7.39-.93-14.57-3.95-20.46-8.66,12.16-.93,23.47,9.29,35.46,7.29,4-.67,7.69-2.67,11-5.11,2.62-1.91,5.16-4.4,5.72-7.69.73-4.53-2.88-8.89-7.14-10.22-4.26-1.33-8.85-.31-13.07,1.11-7.05,2.4-13.75,6-21.06,7.33-7.31,1.33-15.77-.18-20.29-6.27,16.81-1.38,32.88-9.02,45.78-20.26,4.13-3.6,8.04-7.73,9.63-13.06,1.59-5.29,0-11.95-4.73-14.57-6.15-3.38-13.41,1.29-18.53,6.18-8.08,7.69-15.26,16.4-23.77,23.59-8.51,7.2-18.83,12.89-29.83,12.97"/>
          <path class="cls-8" d="M1116.17,830.53c-.69-6.35-3.4-12.22-6.02-18-1.93-4.22-4.47-8.93-8.85-10-5.46-1.29-10.27,3.69-13.8,8.22-2.62-4.8-7.14-10.35-12.12-8.4-3.7,1.42-4.9,6.27-4.69,10.35.21,4.09,1.25,8.31-.09,12.17-.69,2-1.98,3.78-2.62,5.82-1.12,3.69.17,7.64,1.59,11.2,2.49,6.27,5.29,12.75,9.16,18.08,11.99-12.71,40.49-1.47,37.44-29.46Z"/>
        </g>
        <g>
          <path class="cls-7" d="M204.76-33.26c-6.79,21.33-7.87,44.52-3.14,66.43.82,3.69,1.81,7.46,4.04,10.49,4.69,6.35,13.24,7.64,20.93,8.49,1.12.13,2.32.22,3.22-.44,1.07-.76,1.38-2.27,1.55-3.6,3.14-22.97,4.69-46.17,4.73-69.36,0-9.15-.26-18.57-3.95-26.88-1.72-3.87-4.21-7.55-4.6-11.82-.17-1.69,0-3.47-.73-5.02-.73-1.51-2.88-2.49-4.04-1.29"/>
          <path class="cls-7" d="M271.21-11.04c5.03,7.42,8.25,16.08,9.33,25.06.64,5.42.39,11.37-2.75,15.73-3.18,4.4-10.06,6.13-13.84,2.35-1.16-1.16-1.93-2.71-2.66-4.18-5.63-11.51-11.39-23.73-10.66-36.57"/>
          <path class="cls-7" d="M281.96-28.1c4.26,7.06,7.09,15.06,8.3,23.33,1.03,7.24,1.93,16.22,8.51,18.84,3.83,1.51,8.34-.04,11.39-2.84,3.05-2.84,4.94-6.75,6.58-10.66,1.16-2.75,2.24-5.6,2.11-8.58-.26-8.58-9.37-13.46-17.19-16.22-6.53-2.31-13.15-4.35-19.82-6.22"/>
          <path class="cls-7" d="M105.6-67.43c-11.99,1.73-22.91,10.13-27.85,21.59,9.89,2,19.82,4,29.7,6,2.32.49,4.81.93,7.05.13,2.41-.84,4.17-3.02,5.93-4.98,6.36-7.06,14.66-12.31,23.64-14.97-8.08,13.37-26.43,17.64-33.4,31.68-2.32,4.67-3.09,10.04-3.14,15.29-.04,4.13.52,8.66,3.31,11.64,3.87,4.13,10.83,3.55,15.3.09,4.47-3.47,6.88-9.02,8.6-14.49,2.88-9.15,4.3-18.84,8.42-27.46,4.13-8.62,11.86-16.35,21.15-16.57-11.09,18.62-15.56,41.06-14.1,62.87.47,6.93,1.63,14.17,5.63,19.73,4.04,5.55,11.69,8.89,17.75,5.87,7.82-3.91,8.68-15.02,7.69-23.95-1.5-14.17-4.77-28.13-5.46-42.34-.73-14.22,1.38-29.19,9.41-40.75"/>
        </g>
        <path class="cls-10" d="M-78.41,680.56c7.44-2.09,14.57,3.55,21.92,5.95,12.85,4.18,26.52-1.91,38.73-7.82,5.24-2.53,10.66-5.24,14.27-9.91,3.61-4.67,4.86-11.86,1.2-16.53-15.73-20.08-70.19,13.02-87.64,15.91"/>
        <g>
          <path class="cls-4" d="M851.56,376.33c2.15-8.62,4.47-17.15,7.05-25.64.3-1.02.64-2.09,1.25-2.93,1.89-2.67,5.72-2.67,8.9-2.4,2.15.18,4.51.49,5.97,2.13,2.11,2.4,1.12,6.22,0,9.24-2.62,7.06-5.33,14.04-8.17,20.97-1.68,4.09-5.63,15.46-11.26,14.71-7.05-.84-4.86-11.46-3.74-16.08Z"/>
          <path class="cls-4" d="M849.54,375.31c-3.7-4.58-7.39-9.11-11.09-13.69-1.07-1.33-2.24-2.75-3.83-3.38-2.54-1.07-5.54.18-7.31,2.35-1.76,2.18-2.41,5.02-2.62,7.86-.56,7.11,1.63,14.44,5.93,20.04,3.01,3.91,7.14,7.2,8.38,12-12.42-3.78-26-2-38,2.98-.69.27-1.42.62-1.89,1.2-1.38,1.64-.21,4.27,1.29,5.82,5.29,5.6,13.75,6.93,21.15,5.29,7.39-1.6,14.06-5.73,20.55-9.78"/>
          <path class="cls-4" d="M824.49,421.47c-10.4.93-20.55,4.67-29.19,10.71-1.98,1.38-4.04,3.24-4.04,5.69,0,1.33.6,2.58,1.42,3.64,4.34,5.73,12.94,5.73,19.39,2.84,6.45-2.89,11.69-8.04,17.88-11.46,3.22-1.78,7.05-3.51,8.04-7.15"/>
          <path class="cls-4" d="M840.05,441.47c-3.95,5.78-6.1,12.84-6.02,19.91,0,.98.09,2,.77,2.71,1.68,1.69,4.26-.76,5.16-2.98,1.98-4.8,3.05-9.95,3.18-15.15"/>
          <path class="cls-4" d="M840.82,468.71c-3.95,12.4-4.6,25.95-1.85,38.7.47,2.18,1.07,4.35,2.36,6.13,2.75,3.69,7.74,4.44,12.21,4.93.64.09,1.33.13,1.89-.27.64-.44.82-1.33.9-2.09,1.81-13.37,2.75-26.88,2.75-40.39,0-5.33-.17-10.84-2.32-15.68-.99-2.27-2.45-4.4-2.66-6.89-.09-.98,0-2.04-.43-2.93s-1.68-1.47-2.36-.76"/>
          <path class="cls-4" d="M864.37,471.33c1.85,3.07,4.6,5.51,7.78,6.98.77.36,1.68.62,2.41.18.56-.36.82-1.02.99-1.64,1.72-5.15,3.44-10.53,2.66-15.91-.77-5.33-4.13-10.22-8.77-12.66"/>
          <path class="cls-4" d="M879.5,481.64c2.92,4.31,4.81,9.38,5.42,14.57.39,3.15.21,6.62-1.59,9.15-1.85,2.58-5.85,3.6-8.04,1.38-.69-.67-1.12-1.56-1.55-2.44-3.27-6.71-6.62-13.82-6.19-21.33"/>
          <path class="cls-4" d="M885.78,471.68c2.49,4.13,4.13,8.8,4.86,13.6.6,4.22,1.12,9.46,4.94,10.98,2.24.89,4.86,0,6.62-1.69s2.88-3.95,3.83-6.22c.69-1.6,1.29-3.24,1.25-5.02-.17-4.98-5.46-7.82-10.01-9.46-3.83-1.33-7.65-2.53-11.56-3.64"/>
          <path class="cls-4" d="M881.01,422.72c8.3,3.15,16.63,6.31,25.4,7.38,3.91.44,7.91.49,11.82.93,6.62.76,13.11,2.71,19.08,5.73,3.7,1.87,7.69,5.15,7.18,9.38-.43,3.55-4.17,5.91-7.65,6-3.48.09-6.75-1.47-9.97-2.89-12.89-5.78-26.43-9.91-40.27-12.26,2.58,2.04,5.11,4.09,7.69,6.09,2.49,1.96,4.94,3.91,7.44,5.91,1.85,1.47,3.7,2.93,5.46,4.53,4.13,3.73,7.69,8.18,10.57,13.02,2.24,3.82,4.04,8.35,2.79,12.62-1.25,4.27-6.96,7.06-10.1,4-.64-7.55-7.39-12.8-13.5-16.97-3.91-2.67-7.82-5.38-11.73-8.04-2.88-1.96-6.1-5.64-4.04-8.49"/>
          <path class="cls-4" d="M879.25,363.71c1.5-3.2,3.65-6.18,6.66-7.91,2.54-1.47,5.89-2.35,6.83-5.2,3.7,5.07,3.01,12.09,1.81,18.31-1.16,6.09-2.58,12.09-4.34,18-1.98,6.75-4.94,15.51-11.61,18.53-4.43-11.29-4.64-30.57.64-41.72Z"/>
          <path class="cls-4" d="M867.43,338.78c1.07-5.55,3.35-10.84,6.62-15.42,1.63-2.27,3.52-4.35,6.02-5.55,2.45-1.2,5.54-1.33,7.78.18,2.75,9.2-5.37,18.04-6.58,27.59"/>
          <path class="cls-4" d="M853.89,354.02c-5.42-4.22-10.23-9.33-14.14-15.06-1.33-1.91-2.58-3.95-4.47-5.33-1.38-.98-2.97-1.56-4.6-1.87-2.45-.49-5.2-.49-7.26.98-2.11,1.42-3.18,4.62-1.76,6.75,5.89,2.31,10.66,7.55,12.55,13.77"/>
          <path class="cls-4" d="M819.54,359.49c-10.01,2.09-21.06-3.15-26-12.4-2.62,2.18-3.27,6.27-2.24,9.55,1.03,3.29,3.4,6.04,5.89,8.35,8.73,8.04,20.33,13.02,26.91,23.02"/>
          <path class="cls-4" d="M795.17,373.57c-2.32.18-3.52,3.29-2.75,5.55.77,2.27,2.84,3.78,4.86,4.98,6.32,3.78,13.41,6.09,20.67,6.71"/>
          <path class="cls-4" d="M785.37,377.97c-4.38.18-8.77.31-13.15.49-1.81.04-3.87.31-4.77,1.91-1.07,1.91.34,4.31,1.89,5.87,7.05,7.15,17.75,10.22,27.34,7.73"/>
          <path class="cls-4" d="M901.17,375.13c3.09-.53,6.19-1.11,9.24-1.64.56-.09,1.16-.18,1.63.09.43.22.73.71.95,1.16,1.72,3.69.64,8.22-1.68,11.51-2.32,3.29-5.67,5.64-8.94,7.91-4.13,2.84-8.21,5.69-12.34,8.53"/>
          <path class="cls-4" d="M894.59,423.43c6.4-1.82,12.59,3.07,18.91,5.11,11.09,3.6,22.87-1.64,33.4-6.75,4.51-2.18,9.2-4.53,12.29-8.53,3.14-4,4.21-10.26,1.07-14.26-13.58-17.33-60.52,11.2-75.61,13.73"/>
          <path class="cls-4" d="M920.68,378.24c6.28-1.2,12.55-2.44,18.78-3.64,3.31-.67,6.92-1.24,9.97.31,3.01,1.56,4.6,6.31,2.06,8.62-.9.8-2.11,1.16-3.27,1.47-7.78,2.09-15.56,4.13-23.34,6.22"/>
          <path class="cls-4" d="M904.69,367.22c5.93-11.73,11.52-23.68,16.72-35.81,6.88,2.27,10.1,11.02,8.85,18.35-1.25,7.38-5.76,13.6-10.14,19.55"/>
          <path class="cls-4" d="M764.05,390.81c-3.74.89-7.52,1.82-11.26,2.71-2.62.62-5.67,1.6-6.53,4.27-.95,2.75,1.16,5.69,3.48,7.38,5.2,3.87,12.25,4.89,18.27,2.62,6.83-2.53,12.77-9.02,19.94-8.04"/>
          <path class="cls-4" d="M772,413.43c7.48,6.27,17.71,8.89,27.17,6.93"/>
          <path class="cls-4" d="M781.2,426.98c-8.17,1.69-16.33,3.55-24.46,5.64-1.42.36-2.88.76-3.95,1.73-1.07.98-1.68,2.75-.86,4.04.86,1.38,2.79,1.47,4.38,1.38,8.04-.4,16.12-.8,24.16-1.2"/>
          <path class="cls-4" d="M783.05,448.8c-7.01.98-13.32,5.91-16.25,12.57,5.76,1.16,11.52,2.31,17.32,3.47,1.38.27,2.79.53,4.13.09,1.42-.49,2.41-1.78,3.44-2.89,3.7-4.13,8.51-7.15,13.75-8.71-4.73,7.78-15.39,10.26-19.43,18.44-1.33,2.71-1.81,5.82-1.85,8.89-.04,2.4.3,5.07,1.93,6.8,2.28,2.4,6.32,2.09,8.9.04,2.58-2.04,4-5.24,4.99-8.44,1.68-5.33,2.49-10.98,4.9-16,2.41-5.02,6.92-9.51,12.34-9.64-6.45,10.84-9.07,23.91-8.21,36.61.26,4.04.95,8.26,3.31,11.51,2.36,3.24,6.79,5.15,10.32,3.42,4.56-2.27,5.07-8.75,4.51-13.95-.9-8.26-2.75-16.35-3.18-24.66-.43-8.26.77-17.02,5.5-23.73"/>
          <path class="cls-4" d="M844.95,437.16c3.91,2.31,8.42,3.2,12.85,4.09,3.27.62,7.01,1.16,9.5-1.11,3.09-2.75,2.32-7.86,1.29-11.95,3.87.44,8.98.09,10.01-3.78.77-2.89-1.46-5.69-3.87-7.33-2.41-1.64-5.29-2.84-6.92-5.29-.86-1.29-1.29-2.84-2.19-4.09-1.63-2.27-4.43-3.15-7.05-3.87-4.64-1.2-9.54-2.27-14.27-2.22,2.06,12.8-16.63,25.33.64,35.55Z"/>
        </g>
        <g>
          <path class="cls-7" d="M1063.08-34.15c-6.36-7.82-12.68-15.68-19.04-23.51-1.89-2.31-3.87-4.71-6.58-5.82-4.34-1.78-9.54.31-12.51,4.04-2.97,3.73-4.13,8.66-4.51,13.46-.95,12.22,2.79,24.79,10.19,34.39,5.16,6.67,12.21,12.35,14.4,20.62-21.32-6.49-44.62-3.47-65.25,5.11-1.2.49-2.41,1.02-3.22,2.04-2.36,2.84-.34,7.29,2.19,9.95,9.11,9.6,23.6,11.86,36.32,9.11,12.72-2.75,24.16-9.82,35.29-16.75"/>
          <path class="cls-7" d="M1020.1,45.08c-17.88,1.56-35.29,7.95-50.12,18.4-3.35,2.35-6.92,5.55-6.92,9.78,0,2.27,1.07,4.44,2.41,6.22,7.44,9.82,22.22,9.86,33.27,4.84,11.05-4.98,20.07-13.77,30.73-19.68,5.5-3.07,12.12-6.04,13.8-12.26"/>
          <path class="cls-7" d="M1046.84,79.43c-6.79,9.86-10.44,22.04-10.32,34.12,0,1.64.17,3.47,1.33,4.62,2.88,2.93,7.31-1.33,8.85-5.15,3.4-8.22,5.24-17.11,5.46-26.04"/>
          <path class="cls-7" d="M1048.08,126.13c-6.79,21.33-7.87,44.52-3.14,66.43.82,3.69,1.81,7.46,4.04,10.49,4.69,6.35,13.24,7.64,20.93,8.49,1.12.13,2.32.22,3.22-.44,1.07-.76,1.38-2.27,1.55-3.6,3.14-22.97,4.69-46.17,4.73-69.36,0-9.15-.26-18.57-3.95-26.88-1.72-3.87-4.21-7.55-4.6-11.82-.17-1.69,0-3.47-.73-5.02-.73-1.56-2.88-2.49-4.04-1.29"/>
          <path class="cls-7" d="M1088.57,130.66c3.18,5.24,7.87,9.46,13.32,12,1.29.62,2.88,1.11,4.08.36.95-.58,1.38-1.78,1.72-2.84,2.92-8.84,5.93-18.08,4.6-27.33-1.29-9.15-7.09-17.51-15.04-21.77"/>
          <path class="cls-7" d="M1114.53,148.34c5.03,7.42,8.25,16.08,9.33,25.06.64,5.42.39,11.37-2.75,15.73-3.18,4.4-10.06,6.13-13.84,2.35-1.16-1.16-1.93-2.71-2.62-4.18-5.63-11.51-11.39-23.73-10.66-36.57"/>
          <path class="cls-7" d="M1125.28,131.28c4.26,7.06,7.09,15.06,8.3,23.33,1.03,7.24,1.93,16.22,8.51,18.84,3.83,1.51,8.34-.04,11.39-2.84,3.05-2.8,4.94-6.75,6.58-10.66,1.16-2.75,2.24-5.6,2.11-8.58-.26-8.58-9.37-13.46-17.19-16.22-6.53-2.31-13.15-4.35-19.82-6.22"/>
          <path class="cls-7" d="M1117.11,47.17c14.23,5.42,28.58,10.84,43.63,12.66,6.75.8,13.54.84,20.29,1.6,11.35,1.29,22.52,4.67,32.8,9.86,6.36,3.24,13.24,8.84,12.34,16.13-.77,6.13-7.14,10.13-13.11,10.26-5.97.13-11.61-2.53-17.11-4.98-22.09-9.91-45.39-16.97-69.16-21.06,4.38,3.51,8.81,6.98,13.2,10.49,4.26,3.38,8.51,6.75,12.77,10.13,3.18,2.53,6.32,5.02,9.33,7.78,7.09,6.44,13.24,14,18.14,22.39,3.83,6.53,6.96,14.4,4.81,21.68-2.15,7.33-11.95,12.13-17.32,6.89-1.12-13.02-12.68-21.95-23.21-29.15-6.71-4.62-13.41-9.2-20.16-13.82-4.94-3.38-10.44-9.69-6.92-14.57"/>
          <path class="cls-7" d="M1114.1-54.1c2.62-5.47,6.28-10.62,11.39-13.6,4.34-2.53,10.14-4.04,11.73-8.93,6.32,8.66,5.11,20.75,3.14,31.41-1.98,10.44-4.47,20.75-7.44,30.93-3.4,11.64-8.47,26.66-19.94,31.81-7.61-19.33-7.99-52.52,1.12-71.63Z"/>
          <path class="cls-7" d="M952.92-29.61c-7.52.27-15.04.53-22.57.84-3.05.13-6.66.53-8.21,3.24-1.89,3.29.6,7.42,3.22,10.09,12.08,12.31,30.47,17.51,46.94,13.33"/>
          <path class="cls-7" d="M1151.71-34.5c5.29-.93,10.57-1.91,15.9-2.84.95-.18,1.98-.31,2.84.13.77.4,1.25,1.2,1.59,2,2.92,6.31,1.07,14.09-2.88,19.77-3.95,5.69-9.71,9.69-15.34,13.6-7.05,4.89-14.1,9.73-21.19,14.62"/>
          <path class="cls-7" d="M1140.5,48.41c11-3.11,21.58,5.29,32.5,8.8,19.04,6.18,39.29-2.8,57.38-11.6,7.74-3.78,15.77-7.73,21.15-14.66,5.37-6.93,7.22-17.6,1.81-24.48-23.3-29.73-103.89,19.24-129.77,23.55"/>
          <path class="cls-7" d="M916.34-7.57c-6.45,1.56-12.89,3.11-19.34,4.62-4.51,1.07-9.71,2.8-11.22,7.29-1.59,4.75,2.02,9.73,5.97,12.66,8.94,6.62,21.06,8.35,31.38,4.49,11.69-4.35,21.88-15.51,34.21-13.82"/>
          <path class="cls-7" d="M929.97,31.26c12.85,10.8,30.43,15.24,46.64,11.86"/>
          <path class="cls-7" d="M945.74,54.5c-14.06,2.93-28.07,6.13-41.95,9.69-2.41.62-4.94,1.29-6.79,2.98-1.85,1.69-2.84,4.75-1.5,6.93,1.5,2.4,4.77,2.53,7.52,2.4,13.84-.67,27.64-1.38,41.48-2.04"/>
          <path class="cls-7" d="M948.96,91.96c-11.99,1.73-22.91,10.13-27.85,21.59,9.89,2,19.82,4,29.7,6,2.32.49,4.81.93,7.05.13,2.41-.84,4.17-3.02,5.93-4.98,6.36-7.06,14.66-12.31,23.64-14.97-8.08,13.37-26.43,17.64-33.4,31.68-2.32,4.67-3.09,10.04-3.14,15.29-.04,4.13.52,8.66,3.31,11.64,3.87,4.13,10.83,3.55,15.3.09,4.47-3.47,6.88-9.02,8.6-14.49,2.88-9.15,4.3-18.84,8.42-27.46,4.13-8.62,11.86-16.35,21.15-16.57-11.09,18.62-15.56,41.06-14.1,62.87.47,6.93,1.63,14.17,5.63,19.73,4.04,5.55,11.69,8.89,17.75,5.87,7.82-3.91,8.68-15.02,7.69-23.95-1.5-14.17-4.77-28.13-5.46-42.34-.73-14.22,1.38-29.19,9.41-40.75"/>
          <path class="cls-7" d="M1055.17,71.96c6.71,3.95,14.49,5.51,22.05,7.02,5.59,1.11,12.04,1.96,16.33-1.87,5.33-4.75,4-13.46,2.19-20.48,6.62.8,15.39.18,17.24-6.44,1.33-4.93-2.49-9.78-6.66-12.57-4.13-2.8-9.07-4.84-11.86-9.06-1.46-2.22-2.24-4.89-3.78-7.02-2.79-3.87-7.61-5.47-12.12-6.62-7.95-2.04-16.38-3.91-24.46-3.82,3.57,21.91-28.58,43.37,1.07,60.87Z"/>
        </g>
      </g>
    </g>
  </g>
</svg>