<?xml version="1.0" encoding="utf-8"?>
<!-- Generator: Adobe Illustrator 28.1.0, SVG Export Plug-In . SVG Version: 6.00 Build 0)  -->
<svg version="1.1" id="Layer_1" xmlns="http://www.w3.org/2000/svg" xmlns:xlink="http://www.w3.org/1999/xlink" x="0px" y="0px"
	 viewBox="0 0 1915.45 175.66" >style="#d4b89d";" xml:space="preserve">
<style type="text/css">
	.st0{fill:#d4b89d;}
</style>
<path class="st0" d="M1920.43,633.07c-27.63,36.96-72.95,86.52-141.44,118.47c-217.9,101.67-374.35-112.94-698.05-118.47
	c-298.44-5.1-358.49,174.01-662.29,152.17C236.26,772.13,91.87,695.65-1.62,633.07c0-288,0-576,0-864
	c27.97,1.38,74.12,6.35,126.14,26.55c61.03,23.71,99.82,56.62,108.26,63.32C375.4-27.76,955.84-128.8,955.84-128.8
	c380.92-66.31,500.37-126.66,788.43-116.43c74.65,2.65,135.88,9.17,176.16,14.3C1920.43,57.07,1920.43,345.07,1920.43,633.07z"/>
</svg>
